<svg width="551" height="552" viewBox="0 0 551 552" fill="none" xmlns="http://www.w3.org/2000/svg">
<path opacity="0.2" d="M215.181 6.63855C175.12 15.5663 138.494 33.4217 106.904 57.6867L109.651 59.747C140.554 35.9398 176.952 18.5422 216.325 9.84337L215.181 6.63855ZM275.614 0C258.904 0 242.651 1.60241 226.627 4.3494L227.542 7.78313C243.108 5.03615 259.133 3.66265 275.386 3.66265C315.675 3.66265 353.904 12.3614 388.241 28.1566L390.759 25.4096C355.735 9.15663 316.59 0 275.614 0ZM402.663 31.1325L400.145 33.6506C417.313 42.5783 433.566 53.3374 448.446 65.6988L451.651 63.8675C436.771 51.2771 420.289 40.2892 402.663 31.1325ZM427.157 501.325C423.036 504.072 418.687 506.819 414.566 509.337L416.398 512.313C420.976 509.566 425.325 506.819 429.675 503.843L427.157 501.325ZM176.265 528.795L173.976 531.542C192.06 538.639 211.06 544.133 230.747 547.337L231.205 543.904C212.205 540.928 193.892 535.892 176.265 528.795ZM69.3614 452.795L66.3855 454.627C76.9157 466.988 88.5904 478.434 101.181 488.506L103.699 486.217C91.1084 476.145 79.6626 464.928 69.3614 452.795ZM6.18072 217.699C2.06024 236.241 0 255.699 0 275.614V275.843H3.43373V275.614C3.43373 256.157 5.49398 236.928 9.38554 218.614L6.18072 217.699ZM3.89157 289.349H0.457831C2.28916 331.241 13.7349 370.386 32.506 405.41L35.4819 403.807C17.1687 369.47 5.95181 330.554 3.89157 289.349ZM361.458 533.831C334.446 542.988 305.602 547.795 275.614 547.795C264.855 547.795 254.096 547.108 243.795 545.964L243.108 549.398C253.867 550.771 264.627 551.229 275.614 551.229C306.06 551.229 335.59 546.193 362.831 537.036L361.458 533.831ZM533.602 362.145C527.422 380.687 519.181 398.313 509.337 414.795L512.313 416.398C522.386 399.687 530.627 381.831 537.036 363.06L533.602 362.145ZM547.337 230.06L544.133 231.205C546.422 245.627 547.795 260.506 547.795 275.386C547.795 300.566 544.362 324.831 537.952 347.952L541.157 349.096C547.566 325.747 551 301.024 551 275.614C551 260.048 549.855 244.94 547.337 230.06ZM525.59 159.783L522.386 161.157C523.988 164.361 525.362 167.566 526.735 171L529.94 169.627C528.566 166.422 526.964 162.988 525.59 159.783ZM64.5542 98.6627C61.5783 102.096 58.8313 105.53 56.3133 108.964L59.5181 110.566C62.0361 107.133 64.7831 103.699 67.759 100.265L64.5542 98.6627Z" fill="#FF6347"/>
</svg>
