<svg width="157" height="132" viewBox="0 0 157 132" fill="none" xmlns="http://www.w3.org/2000/svg">
<g opacity="0.1" clip-path="url(#clip0_1766_1939)">
<path d="M16.1465 64.0146C16.1403 64.0333 16.1528 64.0581 16.1468 64.1388C16.1405 64.0954 16.1528 64.0581 16.1465 64.0146Z" fill="#FD9900"/>
<path d="M140.462 63.3136C137.798 55.7974 132.59 48.9095 126.401 43.9305C123.204 41.3451 119.493 39.2516 115.727 37.5743C114.826 37.1735 113.913 36.872 112.988 36.6078C112.943 36.3038 112.819 35.9937 112.588 35.6902C100.837 21.3288 78.0892 13.8602 59.9404 15.4976C50.5465 16.3451 41.6655 18.6439 33.8608 24.1304C25.0402 30.3152 19.0359 38.2361 14.3395 47.8293C12.3647 51.8705 10.7003 55.9728 9.80025 60.3894C8.79604 65.3093 7.24679 70.628 7.18634 75.694C7.14689 79.3818 8.14215 82.4394 9.88676 84.9174C10.3359 85.748 10.8285 86.5722 11.3768 87.3528C13.5076 90.3511 16.4189 92.8008 19.5954 94.6351C26.4891 98.6063 34.9357 100.816 42.5935 102.786C58.3004 106.855 74.6666 109.239 90.8188 110.52C105.239 111.662 120.775 112.181 132.626 102.262C143.573 93.1405 144.953 75.9399 140.462 63.3136ZM11.4426 61.8C14.952 42.6561 31.1152 23.2446 50.7791 19.6472C61.6842 17.6652 72.0625 18.2177 82.7087 21.3396C91.6592 23.9636 101.056 28.6785 107.685 35.5807C106.89 35.4838 106.089 35.4055 105.27 35.321C102.01 34.6168 98.7068 34.2294 95.4237 34.2206C95.0154 32.4525 92.9164 31.987 91.2014 31.2347C89.4305 30.464 89.1952 28.4222 87.6961 27.2037C86.3277 26.0904 84.744 25.6916 82.9881 25.8769C80.9965 26.0877 79.3494 27.446 77.2565 26.9618C75.3189 26.5082 73.8645 25.7179 71.7549 25.9105C69.9866 26.071 67.7727 26.7046 66.7648 28.0672C66.5966 27.8256 66.4284 27.584 66.2601 27.3424C65.2008 25.7935 64.0433 24.6671 62.0144 24.8656C60.7983 24.981 58.3264 26.5839 57.4684 28.244C57.3877 28.238 57.3565 28.2071 57.3068 28.17C55.4359 27.1388 53.3223 28.1571 52.2656 29.793C51.5487 30.9002 51.1983 32.087 51.1147 33.2792C50.8343 32.8765 50.5416 32.5111 50.2429 32.2264C48.5007 30.6175 45.9184 30.4266 43.7481 31.116C40.1393 32.2815 38.809 35.9979 40.1395 39.1042C32.119 36.1048 26.4149 44.8691 27.6885 52.0916C27.7137 52.2032 27.7636 52.3024 27.8383 52.3891C26.338 52.9896 25.1715 53.08 23.5032 53.5009C20.582 54.2112 18.0815 56.6522 16.9657 59.4057C16.4048 60.7918 16.0309 62.4878 16.153 63.996C16.165 63.8345 16.5622 66.0745 16.6926 66.1175C16.5256 66.3105 15.3042 66.7549 14.7588 67.0297C12.3541 68.2413 10.8199 70.009 9.9442 72.0354C10.1456 68.5459 10.8803 64.943 11.4426 61.8ZM32.3754 43.529C34.0816 41.1151 37.2919 39.4666 40.2244 40.6001C43.0637 41.7028 43.3019 44.8 44.6734 47.0308C47.5538 51.7652 52.5965 57.3995 57.9891 59.4072C57.1929 61.005 56.4278 62.6338 55.6689 64.244C55.4664 62.854 55.0159 61.5268 54.449 60.7401C53.5269 59.464 51.973 58.5995 50.6242 57.8648C48.2622 56.5681 44.8175 56.4853 42.8084 54.871C40.0342 52.632 38.2214 50.1728 34.2315 50.4268C32.6492 50.5247 31.0865 51.0012 29.6235 51.6139C30.9759 49.1453 30.6382 45.9739 32.3754 43.529ZM46.9651 47.6013C45.0719 45.2603 44.3124 42.1771 42.1413 40.3026C42.1474 40.2839 42.1474 40.2839 42.1349 40.2591C41.8525 39.1115 41.3719 38.1258 41.4491 36.8902C41.5729 34.5121 43.0954 32.9679 45.3908 32.6507C46.6006 32.4918 48.1217 32.7046 48.9683 33.6457C49.4539 34.1781 49.6676 35.1584 49.9921 35.803C50.273 36.392 50.554 36.9809 50.872 37.52C49.9723 37.6159 49.0176 38.0036 48.0019 38.764C45.3637 40.8082 45.8524 44.7116 46.9651 47.6013ZM55.5137 55.2613C54.1131 53.7445 52.6815 52.2589 51.4234 50.6237C50.0469 48.8461 48.2574 45.8778 48.5115 43.4807C48.6505 42.1207 49.899 40.2794 51.4 39.9272C52.8388 39.5752 54.6255 41.5503 55.3479 42.4297C57.571 45.1484 58.9451 48.3104 60.8399 51.2101C61.1951 51.7616 61.5687 52.195 61.9667 52.4918C61.1694 53.6551 60.4156 54.8742 59.7425 56.0992C59.4954 56.5345 59.267 56.976 59.0386 57.4174C57.8204 56.7878 56.6578 56.0526 55.5137 55.2613ZM53.275 37.9412C53.2686 37.8978 53.2685 37.8357 53.2435 37.7861C53.1059 37.3892 52.9308 36.9179 52.7371 36.4405C52.5722 35.1869 52.5994 33.79 53.043 32.634C53.2241 30.771 54.6746 30.1334 57.3696 30.6717C57.669 31.2047 57.8753 31.769 58.0073 32.3708C58.7148 34.6098 58.8267 36.9003 59.7636 39.0703C61.1878 42.3936 63.2438 45.2432 66.3332 47.0281C65.3432 48.0864 64.378 49.1943 63.5 50.3517C60.4811 47.1635 57.3887 39.8162 53.275 37.9412ZM64.1106 42.242C62.7845 40.7499 61.7243 38.8906 61.0305 37.1109C60.3553 35.3374 60.0731 32.0604 58.8879 29.8911C59.7231 28.9264 60.6263 27.8807 61.7792 27.3309C63.4465 26.5375 64.2447 27.9382 65.049 29.2581C64.8071 29.3023 64.559 29.3651 64.2986 29.4652C59.7671 31.3598 61.7147 37.6676 64.1106 42.242ZM67.022 44.7538C65.93 42.6153 65.0423 40.2961 64.3905 38.0135C64.1274 37.1203 63.9014 36.1773 63.7933 35.2527C63.2291 33.2057 64.2373 31.9672 66.8427 31.5249C67.7446 32.2361 68.4483 33.1094 68.9291 34.1571C69.9836 36.2212 70.4001 38.7156 70.878 40.9616C70.9975 41.5385 71.1169 42.0535 71.292 42.5248C70.1215 43.4409 68.9699 44.4252 67.9053 45.4589C67.6377 45.2052 67.3392 44.9826 67.022 44.7538ZM72.2274 37.4375C71.6331 35.7321 70.9957 34.1571 69.9986 32.6701C69.3754 31.7408 68.5657 30.6878 67.6142 30.0016C68.6452 28.0057 72.2883 28.0507 73.9712 28.3995C75.3436 28.6872 76.3887 29.5904 77.6806 29.9342C79.4259 30.407 80.5536 29.7456 82.2843 29.4486C85.2185 28.9494 86.02 31.5296 87.8675 33.0699C88.9375 33.9606 90.6812 33.8747 91.9672 34.3613C86.4822 34.8247 81.0189 36.4117 75.7706 39.4756C74.9279 39.9623 74.1041 40.5173 73.2802 41.0723C72.8238 39.8879 72.5839 38.4235 72.2274 37.4375ZM17.8793 86.7497C14.8787 85.6971 12.9439 83.9833 11.7216 81.8638C11.363 80.1328 10.9176 78.4145 10.9995 76.6014C11.1111 74.3227 11.8006 72.2968 13.4407 70.6468C14.7404 69.3392 16.527 69.0607 17.8397 67.9641C19.0286 66.9921 18.8168 66.6947 18.9433 65.31C19.2315 61.8077 20.2138 57.9557 24.3078 57.1985C26.3983 56.8136 27.7457 57.0517 29.6728 55.9719C31.2654 55.0918 32.8199 53.889 34.7248 53.7529C37.2006 53.5779 38.6128 54.8091 40.4039 56.1447C41.399 56.8866 42.5183 57.6904 43.7358 58.0716C45.8228 58.6986 47.4977 58.3832 49.4129 59.7184C51.583 61.2205 53.0811 64.32 52.3066 67.0415C52.0116 68.0605 52.6404 68.785 53.4291 68.9627C51.2689 73.3148 48.8228 77.4692 45.2581 81.1302C37.9925 88.552 27.5456 90.1477 17.8793 86.7497ZM128.883 99.6409C117.451 108.54 102.72 107.399 89.1997 106.284C75.0338 105.122 60.9151 103.066 47.0417 99.954C39.2853 98.2204 31.1803 96.1028 23.8607 92.9834C22.8977 92.5828 21.9344 92.12 20.9896 91.6014C21.1449 91.632 21.2939 91.6812 21.4492 91.7118C30.6022 93.5344 40.1175 91.6931 46.9323 85.0735C50.1571 81.9412 53.1941 78.2507 55.2808 74.2464C57.8982 69.1976 59.8631 63.8093 62.4867 58.7419C67.802 48.526 76.7009 41.478 87.6646 38.2543C94.2813 36.3037 101.326 36.562 108.145 38.0688C119.426 41.9586 129.477 49.9494 134.851 60.7168C140.718 72.6188 140.067 90.9285 128.883 99.6409Z" fill="#FD9900"/>
<path d="M90.6825 41.1939C79.8815 44.9262 71.3422 51.8242 66.2257 62.1263C63.6397 67.3302 61.283 72.4031 58.1748 77.3106C54.7391 82.7095 50.7795 87.1912 45.558 90.9255C45.4278 91.0066 45.5836 91.2234 45.7076 91.1609C54.6554 86.0932 61.858 78.3612 66.0396 68.8875C71.3561 56.8527 78.5723 47.2644 91.1014 42.3039C91.684 42.0414 91.3149 40.9685 90.6825 41.1939Z" fill="#FD9900"/>
<path d="M75.8382 21.3043C64.9016 18.6241 53.0717 20.5902 43.0189 25.562C37.6331 28.2289 32.7472 32.136 28.3894 36.2588C26.1052 38.4199 23.8895 40.6242 22.0844 43.2122C20.3721 45.6447 19.6096 48.2047 18.5932 50.9703C18.4207 51.4303 19.0977 51.6331 19.3013 51.2041C28.5312 31.4471 54.4651 19.4996 75.6119 22.4907C76.2886 22.5694 76.5089 21.4637 75.8382 21.3043Z" fill="#FD9900"/>
<path d="M40.0177 62.3227C36.3362 59.6394 32.8115 59.799 29.0767 62.5355C27.6336 63.589 26.3713 64.971 25.8362 66.717C25.5963 67.5062 25.5239 68.2265 25.582 69.0521C25.6393 69.5672 25.7461 70.0573 25.8716 70.5536C25.7721 70.4794 25.5923 70.5233 25.3198 70.7228C23.231 71.7286 20.8975 71.7231 19.0962 73.4233C17.7777 74.6627 17.0935 76.3596 16.9184 78.1418C16.4227 82.8987 19.8212 84.2481 23.9031 83.5903C24.8398 83.4447 24.7239 81.9178 23.7743 81.9145C20.032 81.9194 18.0304 78.5296 20.0454 75.5561C20.9973 74.175 23.5388 73.05 25.1391 72.71C26.4292 72.4329 27.6469 72.8763 28.1705 71.4779C28.3184 71.0925 28.0508 70.8388 28.0809 70.4973C28.1807 68.4421 27.4695 67.0909 28.935 65.1557C31.5754 61.6651 35.8676 60.7459 39.48 63.1376C40.0024 63.4961 40.5339 62.6999 40.0177 62.3227Z" fill="#FD9900"/>
<path d="M34.5372 77.9836C33.6428 77.7504 31.5069 77.3967 31.1133 76.4605C30.7385 75.5924 31.9452 74.3162 32.5022 73.7558C33.2263 73.0024 34.0936 72.4411 34.936 71.8302C35.32 71.5435 34.865 70.8557 34.4499 71.1115C32.5417 72.3216 28.1841 74.2529 28.8064 77.1254C29.3473 79.6815 32.3211 80.0638 34.4616 79.8401C35.4047 79.7379 35.4315 78.2168 34.5372 77.9836Z" fill="#FD9900"/>
<path d="M43.5444 71.7363C42.7607 71.1054 41.4622 70.594 41.4218 69.4642C41.3685 68.1234 42.7738 66.8714 43.5158 65.8759C43.9981 65.2288 43.0338 64.3936 42.4582 64.9478C40.9788 66.3615 39.0527 67.8138 39.1334 70.0733C39.2011 72.1217 41.0341 72.8923 42.6989 73.4212C43.7861 73.8215 44.3593 72.3981 43.5444 71.7363Z" fill="#FD9900"/>
</g>
<defs>
<clipPath id="clip0_1766_1939">
<rect width="134" height="94" fill="white" transform="translate(29.4688) rotate(18.2699)"/>
</clipPath>
</defs>
</svg>
