<svg width="110" height="165" viewBox="0 0 110 165" fill="none" xmlns="http://www.w3.org/2000/svg">
<g opacity="0.1">
<path d="M101.017 48.9024C101.068 46.9127 98.7696 45.5539 97.1651 44.4948C98.6602 43.0324 100.394 41.1947 100.088 39.6161C99.9486 38.84 99.5198 38.5489 98.8986 38.1279C97.7442 37.3484 96.5742 36.7969 95.4852 36.0372C96.3775 34.8576 97.3565 33.6863 98.3333 32.6397C98.9112 32.0272 99.8042 31.4923 99.9973 30.6199C100.557 28.0683 95.7639 26.7053 94.2809 25.9515C92.3214 24.946 89.3794 22.3 87.217 23.8466C85.876 24.8007 85.2201 26.5532 84.4137 27.92C83.5497 29.3588 82.5977 30.7352 81.6735 32.1378C80.6952 31.8951 79.6331 31.7522 78.8309 31.6344C79.6593 30.0774 80.5105 28.563 81.4106 27.0636C82.1809 25.7574 83.3494 24.6078 84.0103 23.2506C85.1127 21.0248 82.7444 20.0743 81.042 19.3973C79.4979 18.7861 78.1114 18.0078 76.6134 17.3032C75.8481 16.946 75.1559 16.7004 74.4048 17.2963C73.5898 17.9265 73.1405 19.5268 72.6663 20.3856C72.1921 21.2444 71.8926 22.9975 71.2622 23.6657L71.2572 23.6821C71.0336 23.5964 70.7886 23.5222 70.5387 23.4644C69.1459 23.0601 68.0355 22.3119 66.8513 21.6308C67.2559 20.178 68.4685 18.6479 69.2351 17.4123C69.8407 16.4143 71.2292 15.0091 71.0219 13.6932C70.6761 11.4223 66.4925 10.226 64.6609 9.56345C63.0855 8.99651 61.6557 8.00823 60.108 7.46759C59.3016 7.18737 58.554 7.30095 57.8604 7.82473C56.7011 8.70862 56.3597 10.3058 55.9132 11.6026C55.5725 12.6093 55.0635 13.5829 54.9826 14.6146C53.7814 14.1073 52.4041 13.4751 51.0375 13.043C51.5223 11.5609 52.5396 10.2043 52.6993 8.67733C52.7589 8.06883 52.5757 7.67318 52.0916 7.32953C50.8513 6.36289 48.7208 6.45119 47.2619 6.20597C45.4502 5.88963 43.5383 5.25651 41.6875 5.30427C38.6924 5.36325 38.3319 9.72945 37.8045 12.058C37.6596 12.7123 37.4985 13.3616 37.3374 14.0109C35.1025 12.7966 32.1798 13.5578 31.5721 16.3274C30.9858 19.0856 31.1144 22.1321 30.7993 24.9367C30.6552 26.2357 30.3571 27.6312 30.36 28.9747C29.846 29.1412 29.403 29.544 29.293 30.0835C27.6313 37.7431 24.0499 44.6778 21.9424 52.2202C21.0054 55.6061 19.9086 58.872 19.2378 62.3207C19.0994 63.0127 18.9773 63.7097 18.8552 64.4066C16.8676 69.7298 14.8963 75.0578 12.9577 80.3958C7.61094 95.1556 2.85204 110.094 -2.09783 124.956C-3.21445 128.287 -4.56251 131.441 -5.27091 134.896C-5.74081 137.153 -6.7914 140.737 -5.0861 142.757C-3.52563 144.609 -1.33056 143.896 0.361163 142.726C3.69703 140.425 6.89729 137.689 9.99249 135.064C22.7375 124.248 35.305 113.251 47.6708 101.979C54.4994 95.7425 61.4047 89.5466 68.033 83.0879C71.371 79.8389 74.9369 76.8379 78.2635 73.5676C81.1273 70.7656 84.6086 68.0434 86.9641 64.8009C87.3914 64.2144 87.1962 63.5644 86.7681 63.0945C87.9664 62.2583 89.0497 61.1545 90.0408 60.2375C92.5134 57.9614 95.0201 55.7494 97.4877 53.4897C98.7052 52.355 100.975 50.8053 101.017 48.9024ZM94.6525 38.6671C95.2134 39.0519 95.9382 39.3073 96.4515 39.7314C97.4894 40.6009 97.3141 39.8854 96.7653 40.9901C95.6891 43.1882 93.1143 45.2721 91.6448 47.2972C87.575 52.9023 82.3877 57.4885 77.7932 62.6481C75.0891 62.6879 72.4049 62.6621 69.6305 62.2867C69.6141 62.2818 69.6141 62.2818 69.5978 62.2768C69.6028 62.2604 69.629 62.2326 69.634 62.2162C73.5605 57.3195 78.0882 52.9094 81.8046 47.8238C83.629 45.3334 85.4825 42.9234 87.4454 40.5645C88.3406 39.4931 89.2535 38.4809 90.2155 37.4835C90.4994 37.1936 91.1752 36.199 91.5124 36.0864C92.3097 35.8088 91.6161 35.9208 92.3168 36.4912C92.3771 36.5274 92.4162 36.5751 92.4552 36.6227C92.407 37.2526 92.9238 37.6061 93.5024 37.6382C93.8687 38.0178 94.2287 38.3596 94.6525 38.6671ZM88.6234 25.3827C89.3142 25.1624 92.0801 27.2717 92.7766 27.6797C94.0814 28.4332 95.3792 29.3277 96.7714 29.9107C96.8644 29.9568 97.2527 30.1461 97.5111 30.117C97.2634 30.3463 96.8765 30.6229 96.7977 30.7064C95.7669 31.7545 94.5196 32.9877 93.5939 34.3362C92.578 33.2765 91.7317 32.7157 90.3147 33.8616C87.7136 35.9734 85.4221 39.1815 83.3747 41.8192C79.7713 46.4736 76.3439 51.253 72.8399 55.9912C75.2833 51.1643 77.7104 46.3323 80.6287 41.703C81.7639 39.8988 84.9435 36.5839 84.4934 34.2456C84.3797 33.6204 83.968 33.1554 83.4085 32.8248C84.4805 32.1114 85.343 31.0301 86.011 29.9436C86.5328 29.0455 87.5252 25.7122 88.6234 25.3827ZM79.8015 34.2558C81.709 34.7265 82.1769 34.6534 81.2413 36.4465C79.7704 39.241 78.0041 41.8922 76.3686 44.5831C72.9689 50.2122 70.3771 56.1758 67.2125 61.9119C65.1622 61.5591 63.0714 61.1045 61.0155 60.5351C61.9653 59.2834 64.4577 54.4713 64.7857 53.8009C66.2708 50.7243 67.7999 47.679 69.1919 44.5563C70.3135 42.0319 71.2818 39.4253 72.1308 36.8004C72.4055 35.9527 72.8505 32.543 73.5952 32.3212C73.9488 32.2135 75.7577 33.2451 76.2802 33.4034C77.4296 33.7876 78.6223 33.97 79.8015 34.2558ZM73.0541 26.9299C73.5503 25.4691 73.184 24.6778 72.3441 24.1547C73.3046 23.5149 73.9144 22.2676 74.5441 21.3664C74.7003 21.1452 75.9085 19.4527 75.5919 19.3209C76.1669 19.4236 78.4863 20.7709 78.8192 20.9077C79.6158 21.2207 81.047 21.4396 81.6497 21.9803C82.2525 22.521 82.4811 21.7668 81.6604 23.0039C81.3594 23.4677 80.9377 23.859 80.6091 24.2965C79.0757 26.3559 77.7801 28.6307 76.5598 30.8924C75.0065 30.1352 73.3836 29.1958 71.9552 30.3204C71.109 30.9949 70.7669 32.3591 70.4524 33.3379C69.8781 35.1152 69.2925 36.8711 68.6529 38.6286C65.981 45.8567 61.6563 52.6556 59.6716 60.1457C57.5489 59.5024 55.4659 58.728 53.5193 57.7979C54.122 56.6916 55.1733 55.399 55.5815 54.6993C56.8948 52.4836 58.2472 50.3156 59.5278 48.09C61.9556 43.9028 64.6788 39.8588 67.3317 35.8114C69.1653 33.0553 72.0085 30.0859 73.0541 26.9299ZM63.6227 24.9308C63.7973 24.5899 64.2325 23.2717 64.5789 22.8934C64.432 23.2606 66.6164 24.406 65.9526 24.0079C67.0438 24.6429 68.113 25.0564 69.3113 25.4554C70.9783 26.0143 70.7738 26.4536 69.8545 27.8399C69.0601 29.0492 68.2267 30.2108 67.4323 31.4201C65.2501 34.6793 63.1283 37.9746 61.0227 41.2749C58.7773 44.8014 56.7293 48.4413 54.4513 51.9579C53.637 53.2328 52.2357 54.9742 51.4555 56.7249C49.3938 55.5272 47.5586 54.1117 45.9023 52.5177C46.6229 51.3756 47.7204 50.4014 48.475 49.3232C49.422 47.9632 50.3186 46.5343 51.1449 45.1019C53.1106 41.6161 55.3532 38.3931 57.6156 35.1045C59.8731 31.8324 61.7926 28.4399 63.6227 24.9308ZM59.663 9.64205C60.1393 9.48208 61.7403 10.6117 62.3345 10.8276C64.0568 11.4391 65.691 11.9881 67.3274 12.8241C69.3799 13.8758 68.3122 14.7516 67.2892 16.3034C66.4324 17.6012 65.4577 18.9349 64.8145 20.3511C64.7783 20.4118 64.7584 20.4773 64.7336 20.5593C64.314 20.4143 63.9527 20.4301 63.4004 20.7818C62.4022 21.4281 61.7996 23.3579 61.2529 24.338C60.0987 26.4407 58.9494 28.527 57.6907 30.5623C55.2806 34.3969 52.2735 37.9073 50.0558 41.8718C49.8237 42.2848 49.6128 42.6863 49.3807 43.0993C51.0255 38.4958 52.6752 33.8758 54.7999 29.4535C56.4432 26.031 58.5949 22.2256 59.2948 18.4456C59.6575 16.4252 58.4549 15.8638 56.9172 15.2904C57.26 14.9825 57.5412 14.5844 57.8159 14.1485C58.1815 13.4716 59.1653 9.81346 59.663 9.64205ZM49.201 15.2791C51.4081 15.2319 54.3175 17.0445 56.3599 17.7172C57.6236 18.136 57.1906 17.6825 57.1118 18.5896C56.9471 20.1329 55.8773 22.3687 55.3194 23.7391C53.9344 27.1325 52.0958 30.3168 50.6015 33.6591C48.1489 39.1635 46.4175 44.994 44.0579 50.5445C42.1212 48.3464 40.4698 45.9125 38.9661 43.3444C39.507 42.1478 40.1395 40.5314 40.1594 40.4658C40.7415 38.7804 41.2256 37.0654 41.8077 35.38C42.8895 32.1633 43.9863 28.8974 44.7742 25.5916C45.3229 23.2516 46.1192 15.3297 49.201 15.2791ZM43.3574 8.03016C44.4833 8.13867 45.5823 8.45383 46.6947 8.66566C47.1015 8.73524 50.3331 9.24916 50.1514 8.90765C50.4758 9.54304 49.1228 11.4781 48.7735 12.5717C48.6003 12.555 48.4108 12.5334 48.2276 12.5495C45.505 12.709 44.7604 15.4013 44.047 17.6376C42.7458 21.7546 41.9395 26.0035 40.7689 30.1601C39.7361 33.8033 38.5102 37.4955 37.7663 41.2443C36.5913 39.0622 35.5064 36.8179 34.4543 34.5836C34.7403 33.7573 35.064 32.9245 35.2408 32.0471C35.666 29.9383 35.9882 27.8161 36.5163 25.7205C37.5541 21.6491 39.0832 17.7803 39.9577 13.6593C40.2807 12.1819 40.5532 10.2236 41.3121 8.89617C42.0199 7.67852 41.7118 7.87157 43.3574 8.03016ZM33.5969 18.1763C34.0043 15.5966 34.9649 15.7803 36.6872 16.3917C35.77 19.7121 34.7713 23.0076 34.114 26.353C33.752 28.1946 33.4879 30.0659 33.2239 31.9372C32.903 31.2312 32.5657 30.5204 32.2399 29.8308C33.0058 27.5388 33.0093 24.5861 33.2861 22.3785C33.46 20.9812 33.3953 19.5473 33.5969 18.1763ZM16.865 124.741C10.9294 129.62 5.19552 134.774 -1.02968 139.314C-2.67739 140.516 -2.26068 139.729 -2.05131 138.038C-1.82844 136.244 -1.42881 134.396 -0.951082 132.643C-0.0637704 129.421 1.23176 126.323 2.11907 123.101C5.89759 109.28 10.4343 95.5458 15.0896 82.0086C15.9627 79.4806 16.8359 76.9525 17.6977 74.4031C17.8418 74.3393 17.9632 74.2329 18.0228 74.0362C18.4068 72.8278 18.7419 71.6046 19.0556 70.3929C22.1748 61.2773 25.1959 52.1321 28.0751 42.9259C29.1662 40.267 30.2523 37.6245 31.1474 34.9061C31.5365 35.7401 31.9206 36.5905 32.3097 37.4245C31.9746 39.0594 31.5693 40.691 31.2946 42.3621C30.8474 45.073 30.7865 47.6861 30.6368 50.4155C30.255 57.6753 29.9833 64.8074 30.4663 72.0966C30.8733 78.3424 31.2107 84.8177 33.3697 90.7531C34.3531 93.4499 35.2938 96.1697 36.3197 98.8437C37.2129 101.191 38.2963 103.381 39.3336 105.665C31.9498 112.145 24.4603 118.504 16.865 124.741ZM76.9735 70.7061C74.2489 73.4608 71.3958 76.0512 68.5767 78.7056C63.0125 83.9473 57.4745 89.1611 51.8599 94.3338C48.3224 97.594 44.7622 100.811 41.1743 104.003C39.0246 99.4486 37.0018 95.0046 35.5499 90.0891C33.6414 83.621 33.5404 76.4833 33.0028 69.7862C32.4687 63.0186 32.7944 56.2967 32.633 49.5346C32.562 46.4161 32.7521 43.3767 33.1567 40.2769C33.1872 39.9998 33.2291 39.7439 33.271 39.4881C37.393 48.0055 42.3919 55.983 51.3889 60.3566C56.6119 62.8883 62.6399 64.4109 68.3569 65.1947C73.1035 65.8276 77.6144 65.7089 82.2885 65.6396C80.5912 67.4166 78.6148 69.0553 76.9735 70.7061ZM92.1228 55.0146C89.8689 56.9809 87.6525 58.9408 85.3432 60.8546C84.6723 61.4211 84.0625 61.8449 83.7346 62.5153C82.806 62.5203 81.8724 62.5417 80.9552 62.5681C83.2028 60.1522 85.5611 57.8415 87.7646 55.3944C90.4935 52.3904 92.8979 49.1628 95.5551 46.1013C95.6914 45.9457 95.8539 45.7623 96.0491 45.5887C96.2046 45.9581 96.4077 46.2881 96.7151 46.6856C97.665 47.9044 98.6071 48.2078 97.8276 49.7797C96.8423 51.7367 93.7698 53.5803 92.1228 55.0146Z" fill="#FD9900"/>
</g>
</svg>
