<svg width="79" height="156" viewBox="0 0 79 156" fill="none" xmlns="http://www.w3.org/2000/svg">
<g opacity="0.1">
<path d="M17.2491 80.1089C17.4607 79.1453 17.991 78.3953 18.6884 77.8047C16.8782 75.261 15.5871 71.7784 15.3958 68.8144C15.1545 65.2745 14.6862 61.1117 15.4432 57.6249C16.1289 54.4732 17.6705 51.0573 19.4616 48.3952C20.1294 47.4014 21.74 45.4201 23.1176 45.3133C23.0323 45.1038 22.9505 44.907 22.8561 44.7137C21.9004 42.5919 20.7994 40.5377 19.7239 38.4765C17.6904 34.5821 15.5139 30.7135 13.5876 26.762C12.8321 25.2157 12.1273 23.6553 11.4225 22.095C11.0094 21.1944 9.7653 19.6598 10.2167 18.575C10.6017 17.6457 12.1035 17.3949 12.8931 17.0394C13.9422 16.5847 15.5132 15.0531 16.7421 15.248C17.6691 15.3893 17.896 16.2591 18.2484 17.0393C19.0688 18.8693 19.8638 20.7065 20.675 22.5528C22.1995 26.0395 23.5823 29.6065 24.9361 33.1677C25.932 35.2373 26.8898 37.3173 27.8568 39.3811C28.2325 40.196 28.6011 40.9854 28.9824 41.7713C30.4962 40.8727 32.8136 40.6569 34.2138 40.4341C38.045 39.8133 42.0622 39.7171 45.8452 40.7003C50.9246 42.0244 57.8003 44.607 60.2552 49.7287C61.8035 48.56 63.7424 47.914 65.6656 48.6437C69.6925 50.1629 70.2623 54.2976 68.9462 57.7882C70.3559 59.9216 71.4329 62.2841 72.8081 64.4407C74.5857 67.2128 76.527 69.8848 78.3392 72.6336C81.9136 78.0492 85.1679 83.6903 88.3897 89.3131C91.5883 94.9011 94.9702 100.411 98.3197 105.902C101.072 110.421 104.774 115.458 103.477 121.042C103.006 123.092 101.773 124.859 100.723 126.644C99.0207 129.529 96.5542 132.021 94.1632 134.341C90.1885 138.197 85.0088 142.784 79.4615 144.016C77.5967 144.436 76.1367 143.949 74.5942 142.867C71.828 140.917 69.3425 138.45 66.9049 136.107C62.4716 131.834 58.2682 127.306 54.2122 122.668C49.435 117.201 44.6868 111.74 40.1318 106.089C35.5838 100.462 30.6367 95.2208 25.8137 89.8353C25.794 89.8133 25.7905 89.8006 25.7707 89.7786C25.5197 89.7109 25.2652 89.6304 25.0199 89.5337C21.7474 88.2721 16.3151 84.2893 17.2491 80.1089ZM21.1057 28.3578C20.3347 26.2124 19.5073 24.11 18.5622 22.0264C18.1527 21.1386 17.2472 17.6179 16.5042 17.3023C15.8225 17.0108 13.1559 18.434 12.5848 18.8388C11.6026 19.5356 11.9071 19.6982 12.4379 20.8268C12.7726 21.5433 13.0567 22.2738 13.3879 22.9775C15.1873 26.7173 17.2483 30.3161 19.1767 33.979C20.131 35.7995 21.0889 37.6327 22.0559 39.4497C23.073 41.3488 23.851 43.7665 25.1064 45.49C25.676 46.265 26.5071 46.8991 27.5844 46.7931C29.2228 46.6416 29.0911 45.869 28.6654 44.9719C28.2657 44.4654 27.8625 43.9461 27.5679 43.4242C26.7341 41.9406 26.1146 40.343 25.4133 38.7953C23.8846 35.3921 22.3785 31.873 21.1057 28.3578ZM46.7543 42.9995C43.5036 41.965 40.3071 41.6698 36.904 41.9117C35.3508 42.0258 33.792 42.169 32.2473 42.3631C31.4703 42.4683 30.3465 42.5048 29.3968 42.7264C29.5963 43.1512 29.8049 43.5597 30.0206 43.9937C30.4111 44.7634 30.9488 45.9174 30.7703 46.8033C30.273 49.2036 26.7578 48.9416 25.1173 48.1474C24.344 47.7716 23.8809 47.0358 23.5031 46.2626C22.0823 47.5469 20.8264 49.5262 19.9964 51.1682C18.6543 53.7747 17.1783 56.8844 17.1307 59.8734C17.071 62.7697 17.0995 65.7376 17.4037 68.6156C17.6572 71.0138 18.6678 73.285 19.8696 75.4073C19.9108 73.284 20.3108 71.0753 20.6502 68.993C21.3488 64.6035 24.348 59.5914 22.2448 55.346C22.0488 54.934 22.4106 54.4636 22.8089 54.422C23.7142 54.3362 24.4812 54.8372 25.4076 54.8278C27.2984 54.7985 29.1732 53.7726 30.281 52.2457C31.6723 50.3113 32.0046 48.2035 34.2002 46.8557C36.0215 45.7349 40.7352 45.3911 41.4103 47.7825C42.4736 46.885 43.7575 46.2419 45.1275 45.7122C47.3519 44.8638 49.8145 44.8272 52.158 45.2487C50.466 44.3179 48.6423 43.6019 46.7543 42.9995ZM58.0215 50.5934C54.3328 46.4437 46.19 44.9109 41.8317 49.0098C39.8786 50.8391 39.7753 53.7749 38.3113 55.99C37.1365 57.7685 35.734 59.514 33.616 60.1547C33.2896 60.2587 32.9675 59.7855 33.3073 59.5818C36.6882 57.4811 37.9583 54.3186 39.2695 50.7607C39.6221 49.813 40.1327 49.041 40.7673 48.3718C40.1018 47.5959 38.8589 47.35 37.8642 47.3097C35.9035 47.2349 34.5088 48.1691 33.4102 49.6798C32.2806 51.2264 31.9215 53.0399 30.5091 54.4042C28.5574 56.2879 26.1849 56.8481 23.7802 56.1555C23.869 56.3778 23.9705 56.5966 24.0071 56.7785C24.1255 57.404 24.0866 58.0044 24.0548 58.6303C23.917 60.8488 23.0721 62.7829 22.5713 64.9236C22.0704 67.0643 21.9404 69.2121 21.8301 71.3819C21.7502 72.8713 21.37 74.6083 21.857 76.0233C22.1855 75.8775 22.5049 75.748 22.8116 75.6221C26.5033 74.0525 29.9405 72.1556 33.3503 70.0606C39.6375 66.1687 45.6653 61.8823 51.8058 57.7567C52.3248 57.3115 52.8275 56.857 53.3303 56.4026C55.1699 54.7555 56.8516 52.9328 58.632 51.2199C58.6109 51.1434 58.5897 51.067 58.5848 50.9998C58.5348 50.9177 58.4755 50.8518 58.429 50.7823C58.2753 50.77 58.14 50.7252 58.0215 50.5934ZM74.5961 139.712C75.6338 140.55 76.8082 141.733 78.2358 141.709C79.6092 141.685 81.2457 140.835 82.3724 140.167C84.9311 138.65 87.5364 136.956 89.7708 135.008C93.9211 131.392 98.0622 127.051 100.396 122.004C101.192 120.289 101.294 118.533 100.965 116.8C99.2099 117.518 96.8453 117.514 95.3598 117.527C90.3732 117.576 84.7367 116.708 81.3288 121.23C78.9898 124.331 79.819 128.614 78.4684 132.127C77.6362 134.305 76.0424 137.68 73.6592 138.943C73.9757 139.198 74.2831 139.47 74.5961 139.712ZM72.1436 137.662C73.4354 136.454 74.9865 135.641 75.9815 133.953C76.9089 132.367 77.3631 130.897 77.7525 129.144C77.9529 128.238 78.3372 127.405 78.4924 126.485C78.6477 125.564 78.633 124.622 78.8714 123.706C79.2347 122.302 80.0619 121.045 80.9891 119.952C83.2561 117.282 86.4436 116.359 89.8475 116.268C91.923 116.215 94.0035 116.229 96.0805 116.231C97.2276 116.229 99.2263 116.293 100.732 115.808C99.7359 112.258 97.1708 108.812 95.4376 105.904C94.8427 104.889 94.2351 103.878 93.6275 102.867C93.1485 104.988 91.4985 106.925 89.788 108.248C86.0629 111.13 80.6158 112.28 75.9859 112.532C73.2674 112.681 69.7219 112.112 67.3521 113.768C64.1475 116.012 66.542 119.039 66.5071 122.024C66.4814 123.759 65.1156 125.44 64.1827 126.808C63.6813 127.564 63.0989 128.027 62.4178 128.38C65.5307 131.633 68.7747 134.767 72.1436 137.662ZM61.2885 127.211C61.3012 127.208 61.3139 127.204 61.3266 127.201C62.4018 126.643 62.961 125.898 63.6126 124.895C64.3558 123.73 65.1512 122.605 65.1077 121.163C65.0804 120.225 64.8069 119.285 64.7507 118.341C64.6881 117.028 64.4437 115.601 65.1996 114.432C66.1128 113.041 68.1603 112.393 69.6683 112.017C71.5698 111.532 73.5164 111.556 75.4552 111.403C77.8213 111.215 80.3771 110.577 82.6579 109.932C86.2205 108.933 93.1836 105.856 92.6915 101.261C90.6136 97.7488 88.5322 94.2242 86.5523 90.6715C85.2687 88.3524 83.9507 86.0566 82.6326 83.7607C82.9074 84.7544 83.0737 85.7506 82.9269 86.7511C82.6093 88.8136 81.2907 90.7143 79.9065 92.1804C76.553 95.7135 72.0533 97.918 67.2943 98.7405C64.5298 99.2171 61.616 99.1043 58.9685 100.152C57.5168 100.732 55.659 101.671 55.1222 103.286C54.7449 104.392 54.8582 105.938 54.8298 107.07C54.7858 109.084 54.5501 111.097 53.6354 112.927C53.1467 113.926 52.4034 115.338 51.4226 116.089C54.5771 119.838 57.869 123.59 61.2885 127.211ZM49.475 113.789C49.7816 114.157 50.1045 114.534 50.4111 114.902C51.0436 114.521 51.7854 113.301 52.102 112.816C52.9073 111.578 53.3319 110.199 53.5056 108.753C53.7046 107.052 53.4525 105.202 53.7834 103.533C54.419 100.299 57.876 98.6714 60.7723 97.98C62.9762 97.4527 65.2584 97.3563 67.4905 96.931C70.3332 96.3916 72.894 95.3267 75.3047 93.7686C77.4481 92.3804 79.5895 90.7871 80.7848 88.4406C81.8038 86.4446 81.6533 84.0727 81.4675 81.8203C79.9704 79.2723 78.4387 76.7475 76.8761 74.2588L76.8725 74.2461C76.8772 76.5349 75.7883 78.9205 74.3477 80.6766C71.0737 84.695 65.683 85.5551 60.8592 86.0939C57.9566 86.4168 53.8971 86.607 51.4632 88.3773C49.0073 90.1673 48.0438 93.6976 46.7885 96.3212C45.8491 98.3089 44.2104 99.9414 42.5267 101.312C41.957 101.771 41.1687 102.428 40.3331 102.865C43.3945 106.475 46.4284 110.134 49.475 113.789ZM39.2215 101.513C40.3038 100.981 41.4037 100.512 42.3725 99.6681C44.6253 97.6874 45.5591 95.4819 46.7622 92.8178C48.4456 89.0748 50.5631 86.5555 54.6636 85.7231C59.5904 84.717 64.8287 84.8864 69.4651 82.7812C72.0739 81.5934 74.0594 79.7826 75.2048 77.1072C75.9065 75.4458 75.844 73.886 75.6101 72.2502C74.2272 70.1643 72.8097 68.1017 71.4613 65.9925C70.1756 63.962 69.1226 61.7849 68.0259 59.6472C64.8808 64.8231 60.6684 69.2519 56.3186 73.4308C51.7008 77.8757 46.61 82.191 41.0032 85.3324C38.3543 86.8193 35.5862 88.0237 32.6793 88.9237C31.4208 89.313 30.2709 89.6996 29.1259 89.9065C32.5694 93.7127 35.9092 97.5886 39.2215 101.513ZM24.0467 86.3608C26.7523 88.1906 28.9471 87.6796 31.8879 86.8525C34.7144 86.057 37.4599 84.9686 40.0447 83.5954C44.782 81.0647 49.05 77.4296 53.0317 73.8462C56.8731 70.3976 60.8711 66.5766 63.8807 62.3433C65.4349 60.1581 67.3204 57.9362 67.5943 55.1726C67.7645 53.4663 67.2535 52.1128 65.7668 51.0841C63.8804 49.7957 62.0274 50.8019 60.5968 52.1986C57.165 55.5476 53.6458 58.7288 49.8319 61.635C44.8773 65.4052 39.9113 68.9865 34.545 72.1574C30.9322 74.3086 27.2637 76.4066 23.271 77.5794C23.0532 77.6808 22.8353 77.7822 22.6174 77.8836C22.4587 78.2978 21.9877 78.62 21.5365 78.4706C21.4202 78.5439 21.3039 78.6172 21.1875 78.6905C21.043 78.9088 20.83 79.0774 20.5762 79.1476C19.979 79.6556 19.5749 80.2199 19.534 80.862C19.3786 83.0169 22.5346 85.3392 24.0467 86.3608Z" fill="#FD9900"/>
<path d="M27.0985 80.1548C34.2365 77.4127 40.8064 73.2094 46.9569 68.7245C50.2314 66.3379 53.4226 63.9468 56.2417 61.0004C57.427 59.7537 58.5369 58.432 59.5946 57.0698C60.6833 55.6716 62.4313 54.1871 63.2895 52.6469C63.4362 52.387 63.9205 52.4587 63.8401 52.8101C63.4987 54.1936 62.4628 55.2891 61.6942 56.4616C60.5652 58.1589 59.406 59.7961 58.0881 61.3536C55.3465 64.5803 52.2236 67.2679 48.8145 69.7604C42.3256 74.5034 35.3882 79.6997 27.3705 81.2864C26.7219 81.4109 26.507 80.387 27.0985 80.1548Z" fill="#FD9900"/>
</g>
</svg>
