<svg width="80" height="154" viewBox="0 0 80 154" fill="none" xmlns="http://www.w3.org/2000/svg">
<g opacity="0.1" clip-path="url(#clip0_1766_1949)">
<path d="M4.09377 144.957C5.84268 142.239 6.98683 139.323 9.40589 137.066C11.0894 135.502 13.2143 134.447 14.6036 132.569C16.2544 130.329 17.1371 127.595 18.4937 125.19C21.3214 120.166 26.5681 117.629 29.9515 113.083C31.2591 111.32 32.4196 109.409 33.2859 107.383C34.4137 104.748 34.9531 101.898 36.4895 99.4436C39.6931 94.3536 45.986 91.5863 49.8761 86.9905C53.0633 83.2512 55.8093 79.2155 56.3977 74.1915C56.9861 69.2003 56.1199 64.061 54.0277 59.5146C53.6027 58.6086 53.1777 57.7191 52.7201 56.879C54.7469 55.2318 56.316 53.1892 58.0322 51.2455C60.2715 48.7252 62.6905 46.3202 64.3741 43.3552C65.2894 41.7574 66.1393 40.176 67.1527 38.6276C67.6267 37.9029 68.2478 37.1616 68.4113 36.2721C68.6891 34.7566 67.8555 34.0977 66.7931 33.5542C67.3489 32.9776 67.9046 32.3846 68.444 31.8081C71.9418 28.1183 75.4396 24.5273 77.7116 19.9151C78.8557 17.5925 81.2748 13.2602 79.1009 10.7894C77.1558 8.58208 72.0562 8.82916 69.7025 9.96575C65.7797 11.8765 63.802 17.8725 61.6771 21.3811C59.6994 24.6426 57.5582 27.7888 55.5478 31.0339C56.9044 27.9536 58.2774 24.8897 59.7484 21.8588C62.004 17.1971 63.7693 12.2554 64.701 7.13251C65.3221 3.68979 65.649 0.461206 61.2685 0.0164528C57.264 -0.395356 54.8776 2.71792 54.2565 6.29242C53.5046 10.5752 52.8182 14.7757 51.8375 18.9926C49.9741 18.449 47.6531 18.169 46.2148 19.4044C44.188 21.1505 43.1583 25.4498 42.2593 27.8877C41.0825 31.0998 40.1018 34.3119 39.1864 37.6064C38.4019 40.4067 37.3885 43.2234 37.4048 46.172C32.6158 45.8261 27.2219 47.638 23.6424 49.8783C19.4417 52.5138 17.2351 55.973 15.5189 60.5523C14.6036 62.9738 13.9334 65.4611 13.0999 67.899C12.0374 71.0288 9.9943 73.1043 7.57525 75.2292C3.89763 78.4578 1.10263 81.4887 -0.0251694 86.4304C-1.16932 91.4874 -0.9078 96.7092 -3.06534 101.519C-4.84694 105.522 -7.60924 109.113 -8.21401 113.56C-8.93319 118.98 -8.63898 124.169 -10.3062 129.506C-11.7118 134.184 -14.0655 138.516 -14.0001 143.54C-13.9511 146.884 -12.8887 151.644 -9.7014 153.407C-6.33433 155.252 -2.59133 152.517 -0.254 150.244C1.39684 148.63 2.85155 146.884 4.09377 144.957ZM66.2374 36.8322C65.9432 37.7546 64.8481 38.7429 64.325 39.5501C62.903 41.7574 61.7589 43.9647 59.9936 45.9414C58.4245 47.7039 56.6102 49.2358 55.0084 50.949C53.8316 52.2009 52.6547 53.4363 51.2817 54.474C50.8895 53.881 50.4645 53.321 50.0232 52.7774C51.1019 52.2338 51.5923 51.3113 52.4095 50.1748C53.9133 48.0828 55.5968 46.0731 57.2477 44.0965C60.01 40.7855 62.9847 37.6064 65.9595 34.4601C66.3518 35.152 66.548 35.8273 66.2374 36.8322ZM66.0739 18.6302C67.071 16.8347 68.019 14.3639 69.4737 12.8814C70.8957 11.4318 75.505 10.7894 77.2049 12.2719C79.8201 14.5615 74.3772 22.0894 72.8081 24.1155C70.1438 27.5582 66.8912 30.4738 63.9328 33.653C60.958 36.8322 57.8034 39.896 55.0084 43.2234C52.7855 45.859 50.775 48.6264 48.6502 51.3278C48.1598 50.8666 47.6368 50.4218 47.0647 50.0265C47.2609 49.6312 47.4407 49.2358 47.6368 48.8405C48.405 47.8027 49.5819 45.859 49.6963 45.6284C50.6279 43.8329 51.625 42.0539 52.7038 40.3408C54.8776 36.8651 56.9208 33.3235 59.16 29.8643C61.53 26.191 63.9491 22.4847 66.0739 18.6302ZM56.0218 10.5752C56.365 8.30205 56.2506 6.01239 57.6072 4.08512C58.7187 2.50378 60.8762 1.38366 62.4617 3.06384C63.7366 4.3981 63.1319 5.9465 62.7723 7.75846C62.3636 9.89986 61.7916 12.0907 61.1378 14.1827C59.7321 18.7126 57.5092 22.9624 55.5151 27.2452C53.6027 31.3469 51.6904 35.4485 49.6799 39.5007C48.2906 42.301 46.0677 45.6778 45.136 48.8734C44.8255 48.7087 44.4986 48.5605 44.1717 48.4287C44.0246 48.3628 43.8775 48.3134 43.7304 48.264C48.2906 42.9599 50.0559 35.0861 51.7067 28.5136C52.7201 24.4449 53.9787 20.4092 54.8776 16.3241C55.2863 14.4298 55.7112 12.5025 56.0218 10.5752ZM42.8477 32.747C43.5506 30.4574 44.4005 28.2171 45.2995 26.0098C46.0513 24.1814 46.6888 21.414 48.6338 20.4586C49.255 20.1457 50.4808 20.1127 51.5596 20.1457C51.5269 20.2939 51.4942 20.4422 51.4452 20.6069C50.2357 25.3674 49.3203 30.1938 47.8003 34.8719C46.8686 37.7052 46.0186 40.522 44.7437 43.2234C44.0409 44.7224 43.0929 46.0896 42.4228 47.5721C41.7036 47.1768 40.9517 46.8638 40.1508 46.6497C40.1345 46.6003 40.1181 46.5344 40.1018 46.485C40.8046 41.8727 41.4911 37.244 42.8477 32.747ZM-7.266 150.821C-9.99561 150.491 -10.6984 146.11 -10.7802 143.985C-10.9273 139.949 -9.24374 136.44 -7.88711 132.767C-5.36998 135.518 -1.90484 139.307 1.98526 139.158C2.93327 139.125 3.04769 137.89 2.19775 137.577C0.465179 136.935 -1.13663 136.704 -2.77113 135.666C-4.45466 134.596 -6.13819 133.377 -7.64193 132.059C-7.60924 131.976 -7.57655 131.894 -7.54386 131.812C-6.21992 128.007 -5.4844 124.053 -5.20653 120.034C-5.05943 117.958 -5.20653 115.834 -4.89598 113.791C-4.53639 111.485 -3.49031 109.393 -2.41154 107.35C-2.18271 106.922 -1.95388 106.477 -1.72505 106.049C1.21705 111.073 6.03882 114.763 11.9394 115.669C12.2172 115.718 12.2989 115.356 12.0538 115.257C8.75209 113.923 5.97344 111.452 3.42362 109.03C2.5083 108.157 1.87085 107.054 1.00457 106.131C0.416145 105.505 -0.221309 104.912 -0.842419 104.303C0.285385 101.98 1.21705 99.6083 1.65836 96.9562C2.34485 92.904 2.01795 88.6542 3.42362 84.7337C4.12646 82.7735 5.33599 81.2087 6.72531 79.8085C6.77434 81.1757 6.67627 82.51 7.33007 83.9431C8.42519 86.3151 10.1087 88.8518 11.9557 90.6803C15.5516 94.2218 21.5666 96.0667 26.4374 96.7256C27.2383 96.8245 27.2873 95.622 26.6172 95.3914C22.0569 93.8265 16.2708 91.8992 13.0018 88.1435C11.5471 86.4798 10.0924 84.4537 9.0463 82.477C8.40884 81.2746 8.24539 79.9732 7.86946 78.7213C9.86355 76.9094 12.0374 75.2457 13.6392 73.1043C15.8785 70.0898 16.5813 66.1529 17.7091 62.5455C17.7909 63.1385 17.9053 63.7315 18.0851 64.3575C18.8369 66.993 20.0628 69.3486 22.0242 71.2923C25.6855 74.9327 31.8639 78.0954 37.0943 77.9801C37.8625 77.9636 38.1077 76.7282 37.2741 76.5799C32.3706 75.7728 26.8296 72.8737 23.3482 69.2827C21.4685 67.339 20.3897 64.8516 19.6542 62.2655C19.36 61.2277 19.3436 59.9758 19.1148 58.8392C20.0465 56.8131 21.1906 55.0341 23.0213 53.5351C25.3096 51.6737 27.8921 50.4054 30.6544 49.4335C31.4062 49.1699 32.2071 48.9229 33.008 48.7087C36.179 48.7087 39.3662 49.5488 42.3083 50.7348C46.6725 52.5138 48.9117 56.0224 50.9712 60.1076C52.8835 63.9127 53.7989 68.0637 53.6354 72.3301C52.573 72.0995 51.3798 72.2971 50.2847 72.1983C47.6695 71.9842 44.7601 71.1605 42.243 70.3863C37.2414 68.8544 33.6782 63.8962 31.4553 59.4157C31.4226 59.3499 31.3082 59.3993 31.3409 59.4652C33.1878 64.5551 35.6559 70.0075 40.8046 72.5113C42.8804 73.5161 49.7617 76.3329 53.2595 75.3116C52.3932 79.1496 50.1703 82.3617 47.5551 85.4091C46.1004 87.1222 44.4332 88.5883 42.717 89.9884C42.6516 89.8402 42.5535 89.7084 42.3901 89.5931C40.3469 88.0776 36.8818 88.0776 34.5118 87.287C30.9486 86.1174 27.32 83.8113 24.5087 81.3404C24.3942 81.2416 24.2471 81.3899 24.3452 81.5052C28.8074 86.9905 34.332 89.5931 40.919 91.4545C39.546 92.5581 38.1567 93.6618 36.8491 94.8807C33.6945 97.7963 32.485 101.305 30.8832 105.143C29.8862 105.11 28.8237 105.225 27.9248 105.143C26.2412 104.995 24.6067 104.896 22.9232 104.649C20.2263 104.27 17.5457 103.331 15.2737 101.816C12.6422 100.053 10.7789 97.6151 8.68671 95.2596C8.5396 95.0949 8.26174 95.309 8.37615 95.4902C10.3702 98.587 11.874 101.733 14.7344 104.105C16.9246 105.934 19.8176 106.906 22.5636 107.4C23.6751 107.597 26.9277 108.223 29.4612 108.042C27.6632 111.188 25.2115 113.873 22.4165 116.229C19.0658 119.046 16.7121 121.994 14.8488 125.981C14.3094 127.134 13.7863 128.353 13.1652 129.489C13.0508 129.423 12.9201 129.357 12.773 129.341C9.87989 128.764 6.9051 128.863 4.15915 127.661C0.628629 126.112 -2.46057 124.267 -4.53639 120.891C-4.58542 120.792 -4.71618 120.874 -4.68349 120.973C-1.62698 127.743 4.43701 130.972 11.4163 131.894C11.3673 131.944 11.3346 131.976 11.2856 132.026C9.56934 133.673 7.59159 134.843 6.02247 136.704C3.12941 140.163 1.5276 144.314 -1.75774 147.526C-3.04899 148.811 -5.25557 151.068 -7.266 150.821Z" fill="#FD9900"/>
</g>
<defs>
<clipPath id="clip0_1766_1949">
<rect width="94" height="154" fill="white" transform="translate(-14)"/>
</clipPath>
</defs>
</svg>
