<svg width="210" height="49" viewBox="0 0 210 49" fill="none" xmlns="http://www.w3.org/2000/svg">
<path d="M18.9769 16.8464C19.829 16.934 20.6891 17.1331 21.5571 17.4397C22.4251 17.7503 23.2095 18.1684 23.9143 18.694C24.619 19.2196 25.1924 19.8606 25.6344 20.6092C26.0764 21.3578 26.2954 22.2178 26.2954 23.1894C26.2078 24.4834 25.8335 25.4669 25.1725 26.1438C24.5115 26.8207 23.7192 27.3423 22.7914 27.7086C21.8676 28.075 20.8961 28.3537 19.8808 28.5448C18.8654 28.7359 17.9775 28.9788 17.213 29.2735C15.891 29.7752 15.0111 30.4202 14.5691 31.2126C14.2147 31.9173 14.2665 32.7256 14.7244 33.6375C15.1783 34.5493 15.907 35.2819 16.9064 35.8394C17.9337 36.4287 19.1402 36.7193 20.5218 36.7193C21.7562 36.7193 22.8591 36.4247 23.8267 35.8394C24.7982 35.2501 25.6702 34.5095 26.4506 33.6136C27.2271 32.7177 27.9358 31.7103 28.5649 30.5954C29.198 29.4805 29.7913 28.3776 30.3488 27.2906C30.9938 26.0562 31.6508 24.8298 32.3118 23.6114C32.9727 22.393 33.7372 21.306 34.6053 20.3504C35.4733 19.3948 36.4767 18.6183 37.6234 18.0131C38.7702 17.4118 40.1359 17.1092 41.7206 17.1092C43.3054 17.1092 44.6791 17.4318 45.8417 18.0808C47.0004 18.7258 47.9481 19.5779 48.6847 20.6371C49.4174 21.6962 49.9629 22.9146 50.3172 24.2963C50.6716 25.6779 50.8468 27.1154 50.8468 28.6165C50.8468 29.6159 50.6756 30.7825 50.3411 32.1204C50.0027 33.4583 49.4731 34.7205 48.7564 35.911C48.0357 37.1016 47.104 38.109 45.9572 38.9292C44.8105 39.7534 43.4288 40.1635 41.8162 40.1635C40.6973 40.1635 39.678 39.9445 38.7542 39.5026C37.8305 39.0606 36.8948 38.6346 35.9551 38.2244L35.9113 44.3961C35.9113 45.073 36.0666 45.7181 36.3732 46.3353C36.6797 46.9524 37.1138 47.4661 37.6752 47.8762L38.161 48.2306C38.2486 48.2903 38.2724 48.3779 38.2286 48.4934C38.1848 48.6088 38.1052 48.6686 37.9858 48.6686H27.5257C27.4063 48.6686 27.3346 48.6088 27.3067 48.4934C27.2788 48.3739 27.3067 48.2863 27.3943 48.2306L27.8801 47.92C28.4375 47.5099 28.8636 46.9883 29.1582 46.3552C29.4529 45.7221 29.6002 45.0691 29.6002 44.3922V36.9423V32.7137C30.0103 31.9811 30.4204 31.2285 30.8345 30.464C31.2447 29.6995 31.6548 28.935 32.0689 28.1705C32.6582 27.0238 33.2594 25.9248 33.8766 24.8657C34.4938 23.8065 35.1547 22.8549 35.8595 22.0028V22.4448V34.9156C35.8595 35.9747 36.19 36.7313 36.851 37.1852C37.5119 37.6391 38.3123 37.8701 39.252 37.8701C40.2792 37.8701 41.1234 37.5555 41.7843 36.9224C42.4453 36.2893 42.9829 35.5129 43.393 34.5851C43.8031 33.6614 44.0898 32.6619 44.253 31.5869C44.4123 30.5158 44.4959 29.5243 44.4959 28.6125C44.4959 27.5255 44.4442 26.4026 44.3406 25.24C44.2371 24.0813 44.034 23.0142 43.7235 22.0426C43.4169 21.0711 42.9669 20.2787 42.3776 19.6615C41.7883 19.0444 40.996 18.7378 39.9965 18.7378C38.9374 18.7378 37.9698 19.0603 37.0859 19.7053C36.2059 20.3504 35.3976 21.1388 34.661 22.0625C33.9244 22.9863 33.2793 23.9738 32.7219 25.017C32.1644 26.0602 31.6787 26.98 31.2686 27.7723C30.4443 29.3889 29.5405 31.0653 28.557 32.7973C27.5735 34.5334 26.3909 36.0305 25.0092 37.2927C23.9501 38.2921 22.7994 39.0208 21.5491 39.4747C20.2988 39.9286 19.0446 40.1556 17.7824 40.1556C17.2528 40.1556 16.7153 40.1197 16.1738 40.0441C15.6283 39.9724 15.1066 39.845 14.6089 39.6698C12.5822 39.1124 10.9497 38.1329 9.71536 36.7392C8.48102 35.3456 7.63689 33.7649 7.18297 32.001C6.72507 30.2371 6.63747 28.4094 6.92017 26.5141C7.19889 24.6188 7.83996 22.9226 8.83539 21.4254C9.83481 19.9283 11.1846 18.7298 12.8888 17.8339C14.597 16.942 16.6277 16.6115 18.9769 16.8464ZM13.2472 29.7592C13.3626 30.2888 13.5856 30.3485 13.9081 29.9344C14.2904 29.4049 14.7682 28.9509 15.3416 28.5687C15.9149 28.1865 16.5003 27.8122 17.1055 27.4458C17.7067 27.0795 18.308 26.7052 18.9132 26.323C19.5144 25.9407 20.036 25.5028 20.478 25.0011C20.92 24.5033 21.2545 23.9061 21.4934 23.2172C21.7283 22.5284 21.8 21.6962 21.7124 20.7286C21.5372 19.8168 21.147 19.1479 20.5457 18.7218C19.9445 18.2958 19.2596 18.0848 18.4951 18.0848C17.9934 18.0848 17.4798 18.1724 16.9542 18.3476C15.895 18.7298 15.0748 19.3589 14.4855 20.2429C13.8962 21.1228 13.4701 22.1143 13.2073 23.2172C12.9446 24.3202 12.8331 25.451 12.8769 26.6097C12.9167 27.7684 13.0401 28.8195 13.2472 29.7592ZM27.1315 20.3743L35.5489 16.9818C35.6087 16.9221 35.6724 16.9221 35.748 16.9818C35.8197 17.0415 35.8595 17.1132 35.8595 17.2008V17.9056C34.8601 18.463 33.8447 19.5222 32.8175 21.079C32.2879 21.8714 31.7464 22.7832 31.1849 23.8105C30.6275 24.8378 30.082 25.8691 29.5524 26.8964V24.7383C29.5524 23.8862 29.3255 23.1057 28.8676 22.401C28.4136 21.6962 27.8005 21.1507 27.0399 20.7724C26.9802 20.7127 26.9603 20.649 26.9722 20.5733C26.9922 20.4977 27.0439 20.434 27.1315 20.3743Z" fill="white"/>
<path d="M53.1758 20.4183L61.5932 16.982C61.8002 16.9223 61.8998 16.9979 61.8998 17.201L61.9436 35.5808C61.9436 37.0222 62.5169 38.1808 63.6637 39.0608L64.1495 39.4152C64.2371 39.4749 64.2649 39.5625 64.2371 39.678C64.2092 39.7935 64.1335 39.8532 64.0181 39.8532H53.5739C53.4266 39.8532 53.339 39.7935 53.3111 39.678C53.2833 39.5625 53.3111 39.4709 53.3987 39.4152L53.8845 39.1046C54.442 38.6945 54.876 38.1729 55.1865 37.5398C55.4931 36.9067 55.6484 36.2537 55.6484 35.5768L55.6046 24.7345C55.6046 23.8824 55.3856 23.102 54.9437 22.3972C54.5017 21.6924 53.9004 21.1629 53.1359 20.8085C53.0762 20.7488 53.0563 20.6771 53.0683 20.5895C53.0802 20.5059 53.116 20.4461 53.1758 20.4183ZM54.8521 11.4275C54.8521 10.5157 55.1746 9.73922 55.8236 9.0902C56.4687 8.44516 57.2491 8.11865 58.1609 8.11865C59.1006 8.11865 59.893 8.44117 60.542 9.0902C61.187 9.73524 61.5135 10.5157 61.5135 11.4275C61.5135 12.3672 61.191 13.1595 60.542 13.8086C59.8969 14.4536 59.1165 14.7801 58.2047 14.7801C57.265 14.7801 56.4726 14.4576 55.8236 13.8086C55.1746 13.1595 54.8521 12.3672 54.8521 11.4275Z" fill="white"/>
<path d="M77.4166 16.8027C78.4439 16.8027 79.4513 16.9739 80.4348 17.3084C81.4183 17.6469 82.3102 18.1446 83.1025 18.8056C83.8949 19.4665 84.54 20.2589 85.0417 21.1866C85.5394 22.1104 85.8062 23.1616 85.834 24.3362C85.834 24.4835 85.7902 24.5114 85.7026 24.4238L80.4149 22.6161C80.387 22.5882 80.3711 22.5444 80.3711 22.4847C80.5781 22.0427 80.6936 21.5649 80.7254 21.0513C80.7533 20.5376 80.6737 20.0678 80.4826 19.6417C80.2914 19.2157 79.9809 18.8573 79.5588 18.5627C79.1327 18.268 78.5514 18.1207 77.8188 18.1207C76.7039 18.1207 75.7403 18.5826 74.932 19.5103C74.1237 20.4341 73.5145 21.5888 73.1044 22.9705C72.6943 24.3521 72.5031 25.8413 72.531 27.442C72.5589 29.0426 72.8456 30.5358 73.3911 31.9174C73.9326 33.2991 74.7648 34.4459 75.8797 35.3537C76.9945 36.2655 78.4359 36.7194 80.1998 36.7194C81.2869 36.7194 82.3142 36.5283 83.2857 36.1461C84.2533 35.7638 85.0058 35.2502 85.5354 34.6051C85.7106 34.4021 85.8858 34.2985 86.065 34.2985C86.2999 34.2985 86.4751 34.4021 86.5945 34.6051C86.71 34.8122 86.6662 35.063 86.4631 35.3537C85.2567 37.03 83.8909 38.2325 82.3659 38.9691C80.8369 39.7057 79.2801 40.0721 77.6953 40.0721C76.2858 40.0721 74.9121 39.8013 73.5742 39.2558C72.2364 38.7143 71.0538 37.9538 70.0265 36.9862C68.9992 36.0147 68.159 34.856 67.514 33.5062C66.869 32.1564 66.5146 30.6712 66.4549 29.0546C66.427 27.4659 66.6619 25.9408 67.1596 24.4716C67.6573 23.0023 68.386 21.7082 69.3416 20.5934C70.2972 19.4785 71.4639 18.5746 72.8456 17.8818C74.2113 17.1929 75.7403 16.8346 77.4166 16.8027Z" fill="white"/>
<path d="M137.087 19.5341C137.147 19.6496 137.199 19.777 137.243 19.9084C137.286 20.0398 137.223 20.1513 137.044 20.2389L133.826 21.8714C133.651 21.959 133.52 22.0028 133.428 22.0028C133.341 22.0028 133.237 21.9152 133.122 21.74C132.297 20.4778 131.298 19.9044 130.123 20.0199C128.949 20.1394 127.611 20.665 126.114 21.6086C125.496 21.9909 124.871 22.393 124.238 22.8191C123.605 23.2451 123.004 23.6513 122.431 24.0295C121.857 24.4118 121.336 24.7662 120.866 25.0887C120.396 25.4112 120.014 25.6899 119.719 25.9248C118.485 26.8645 117.258 27.8281 116.04 28.8116C114.821 29.7951 113.595 30.7746 112.361 31.7422C111.716 32.2717 111.007 32.865 110.246 33.526C109.482 34.187 108.69 34.84 107.865 35.485C107.041 36.1301 106.229 36.7393 105.421 37.3126C104.612 37.886 103.828 38.3638 103.063 38.7461C101.829 39.3632 100.531 39.7734 99.1652 39.9804C97.7995 40.1875 96.5412 40.0839 95.3985 39.6738C94.2517 39.2637 93.3041 38.4912 92.5555 37.3604C91.8069 36.2296 91.4326 34.621 91.4326 32.5345L91.3888 24.7343C91.3888 23.8822 91.1698 23.1018 90.7279 22.397C90.2859 21.6922 89.6847 21.1627 88.9202 20.8083C88.8604 20.7486 88.8365 20.6769 88.8525 20.5893C88.8684 20.5017 88.9042 20.442 88.964 20.4141L97.3814 16.9779C97.5884 16.9181 97.688 16.9938 97.688 17.1969L97.7318 32.5345C97.7318 33.3588 97.8871 34.0755 98.1936 34.6926C98.5002 35.3098 98.8825 35.8115 99.3404 36.1898C99.7943 36.572 100.308 36.8428 100.881 37.006C101.455 37.1693 102.02 37.2051 102.578 37.1175C103.135 37.0299 103.876 36.7074 104.803 36.146C105.731 35.5885 106.675 34.9435 107.646 34.2069C108.614 33.4742 109.534 32.7535 110.402 32.0488C111.27 31.344 111.923 30.8144 112.361 30.4601C113.595 29.4925 114.821 28.513 116.04 27.5295C117.258 26.546 118.485 25.5824 119.719 24.6427C120.571 23.9977 121.555 23.3049 122.673 22.5722C123.788 21.8396 124.923 21.0751 126.066 20.2787C126.743 19.8089 127.336 19.3828 127.85 19.0006C128.363 18.6183 128.865 18.2958 129.347 18.029C129.833 17.7662 130.322 17.5512 130.824 17.388C131.322 17.2287 131.867 17.1331 132.453 17.1013C133.07 17.0734 133.611 17.1172 134.085 17.2327C134.555 17.3521 134.965 17.5194 135.319 17.7384C135.67 17.9574 135.988 18.2241 136.267 18.5307C136.554 18.8533 136.825 19.1837 137.087 19.5341ZM106.062 24.7343C106.062 23.8822 105.843 23.1018 105.401 22.397C104.959 21.6922 104.357 21.1627 103.593 20.8083C103.533 20.7486 103.513 20.6769 103.525 20.5893C103.541 20.5017 103.577 20.442 103.637 20.4141L112.054 16.9779C112.261 16.9181 112.361 16.9938 112.361 17.1969V29.3173C111.154 30.257 109.988 31.1847 108.857 32.0926C107.726 33.0044 106.691 33.7968 105.751 34.4737C105.898 34.0914 106.002 33.6096 106.062 33.0203C106.121 32.5783 106.121 32.1523 106.062 31.7422V24.7343ZM112.452 32.8451C112.568 33.522 112.842 34.1392 113.269 34.6966C113.695 35.2541 114.232 35.696 114.877 36.0186C114.937 36.0783 114.957 36.15 114.945 36.2376C114.929 36.3252 114.877 36.3849 114.79 36.4128L106.416 39.849C106.181 39.9087 106.066 39.8331 106.066 39.63V38.1329V37.8701C106.83 37.3126 107.702 36.6357 108.686 35.8434C109.669 35.051 110.764 34.1671 111.97 33.1995C112.058 33.1398 112.138 33.084 112.213 33.0243C112.281 32.9646 112.365 32.9048 112.452 32.8451ZM119.592 23.6791C119.592 23.5915 119.548 23.4283 119.46 23.1934C119.373 22.9584 119.233 22.6956 119.042 22.401C118.851 22.1063 118.608 21.8197 118.313 21.5409C118.019 21.2622 117.668 21.0193 117.254 20.8123C117.195 20.7526 117.175 20.6809 117.187 20.5933C117.203 20.5057 117.238 20.446 117.298 20.4181L125.715 16.9818C125.919 16.9221 126.022 16.9978 126.022 17.2008C126.022 17.5234 126.03 17.8618 126.046 18.2162C126.062 18.5666 126.066 18.905 126.066 19.2275C125.477 19.5501 124.812 19.9562 124.059 20.438C123.307 20.9198 122.45 21.517 121.479 22.2218C121.184 22.4289 120.878 22.6638 120.555 22.9266C120.237 23.1934 119.914 23.4442 119.592 23.6791ZM128.276 39.411C128.363 39.4707 128.391 39.5583 128.363 39.6738C128.335 39.7893 128.244 39.849 128.101 39.849H117.7C117.553 39.849 117.465 39.7893 117.437 39.6738C117.406 39.5583 117.437 39.4668 117.525 39.411L118.011 39.1004C119.158 38.2205 119.731 37.0459 119.731 35.5766V27.0278C120.32 26.5579 120.898 26.108 121.471 25.682C122.044 25.2559 122.594 24.8538 123.123 24.4715C123.8 23.9738 124.386 23.5676 124.887 23.2611C125.385 22.9545 125.843 22.6797 126.253 22.4448C126.106 22.827 126.034 23.2093 126.034 23.5915C126.034 25.6182 126.042 27.6171 126.058 29.5841C126.074 31.5511 126.066 33.5499 126.034 35.5766C126.034 36.2535 126.189 36.8985 126.496 37.5157C126.802 38.1329 127.237 38.6465 127.794 39.0566L128.276 39.411Z" fill="white"/>
<path d="M150.793 16.846C151.645 16.9336 152.505 17.1327 153.373 17.4393C154.241 17.7498 155.026 18.1679 155.73 18.6935C156.435 19.2231 157.008 19.8602 157.45 20.6087C157.892 21.3573 158.111 22.2174 158.111 23.1889C158.024 24.483 157.649 25.4665 156.989 26.1434C156.328 26.8203 155.535 27.3419 154.607 27.7082C153.684 28.0745 152.712 28.3532 151.697 28.5444C150.685 28.7355 149.793 28.9784 149.029 29.273C147.707 29.7747 146.823 30.4198 146.385 31.2121C146.09 31.7696 146.098 32.3589 146.409 32.976C146.716 33.5932 147.201 34.1666 147.862 34.6962C148.523 35.2257 149.308 35.6597 150.22 35.9982C151.131 36.3366 152.071 36.5039 153.039 36.5039C153.891 36.5039 154.715 36.3486 155.507 36.042C156.3 35.7354 156.992 35.1979 157.578 34.4334C157.725 34.1984 157.916 34.079 158.151 34.079C158.299 34.079 158.438 34.1387 158.569 34.2542C158.701 34.3736 158.768 34.517 158.768 34.6962C158.74 34.8435 158.689 34.9669 158.613 35.0704C158.541 35.174 158.474 35.2855 158.414 35.4009C157.239 37.0772 155.882 38.2797 154.337 39.0164C152.796 39.749 151.231 40.1193 149.642 40.1193C147.675 40.0914 145.975 39.7171 144.554 38.9964C143.128 38.2758 141.961 37.344 141.05 36.1973C140.138 35.0505 139.485 33.7525 139.091 32.2952C138.696 30.8378 138.533 29.3646 138.605 27.8675C138.676 26.3703 139.003 24.921 139.576 23.5274C140.15 22.1338 140.942 20.9074 141.957 19.8482C142.973 18.7891 144.219 17.9848 145.704 17.4233C147.189 16.8619 148.886 16.6708 150.793 16.846ZM145.067 29.7588C145.183 30.2884 145.406 30.3481 145.728 29.934C146.11 29.4044 146.588 28.9505 147.162 28.5683C147.735 28.186 148.32 27.8117 148.925 27.4454C149.527 27.0791 150.132 26.7048 150.733 26.3225C151.334 25.9403 151.856 25.5023 152.298 25.0006C152.74 24.5029 153.078 23.9056 153.313 23.2168C153.548 22.5279 153.62 21.6958 153.532 20.7282C153.357 19.8164 152.967 19.1474 152.366 18.7214C151.764 18.2953 151.08 18.0843 150.315 18.0843C149.813 18.0843 149.304 18.1719 148.774 18.3471C147.715 18.7294 146.895 19.3585 146.305 20.2424C145.716 21.1224 145.294 22.1138 145.027 23.2168C144.765 24.3197 144.653 25.4505 144.697 26.6092C144.733 27.7679 144.86 28.8191 145.067 29.7588Z" fill="white"/>
<path d="M192.991 37.5153C193.301 38.1325 193.731 38.6461 194.293 39.0562L194.735 39.4106C194.85 39.4703 194.89 39.5579 194.846 39.6734C194.802 39.7889 194.723 39.8486 194.603 39.8486H184.155C184.036 39.8486 183.964 39.7889 183.936 39.6734C183.908 39.5579 183.936 39.4664 184.024 39.4106L184.466 39.1C185.023 38.6899 185.457 38.1763 185.764 37.5591C186.074 36.9419 186.226 36.281 186.226 35.5762V24.7339C186.226 24.2362 186.154 23.7584 186.007 23.3005C185.859 22.8465 185.648 22.4802 185.366 22.1975C185.087 21.9188 184.741 21.7356 184.33 21.648C183.92 21.5604 183.45 21.6321 182.921 21.867C182.069 22.2214 181.006 22.6514 179.724 23.1651C178.445 23.6787 177.115 24.2601 175.734 24.9051C174.352 25.5501 172.978 26.2549 171.613 27.0194C170.247 27.7839 169.048 28.5922 168.021 29.4443C166.994 30.2964 166.205 31.1923 165.664 32.132C165.118 33.0717 164.967 34.0273 165.202 34.9948C165.437 35.7872 165.923 36.4044 166.655 36.8464C167.388 37.2883 168.141 37.4795 168.905 37.4197C169.67 37.36 170.35 36.9937 170.956 36.3168C171.557 35.6399 171.86 34.5967 171.86 33.1871V28.5245C171.86 28.3175 171.876 28.1064 171.903 27.8834C171.931 27.6645 172.154 27.4494 172.564 27.2424C172.771 27.1548 173.07 27.0314 173.468 26.8681C173.866 26.7049 174.32 26.5137 174.834 26.2947C175.348 26.0757 175.885 25.8488 176.443 25.6099C177 25.3749 177.546 25.14 178.075 24.9051C178.103 25.1122 178.127 25.3152 178.143 25.5223C178.159 25.7293 178.167 25.9483 178.167 26.1832V32.6177C178.167 33.7366 178.262 34.6365 178.453 35.3293C178.644 36.0182 178.879 36.5199 179.158 36.8265C179.437 37.137 179.747 37.2764 180.086 37.2445C180.424 37.2167 180.723 37.0693 180.99 36.8026C181.137 36.6552 181.296 36.5756 181.475 36.5597C181.651 36.5437 181.798 36.5836 181.917 36.6712C182.033 36.7588 182.109 36.8902 182.136 37.0693C182.164 37.2445 182.109 37.4197 181.961 37.5989C181.551 38.1564 180.954 38.7019 180.177 39.2274C179.397 39.757 178.497 40.0198 177.466 40.0198C176.614 40.0198 175.738 39.8287 174.842 39.4464C173.946 39.0642 173.217 38.3873 172.66 37.4197C172.513 37.1251 172.381 36.9857 172.262 37.0016C172.142 37.0176 172.011 37.0972 171.864 37.2445C170.896 38.1842 169.821 38.889 168.646 39.3588C167.472 39.8287 166.325 40.0477 165.21 40.0198C164.593 40.0198 163.96 39.8964 163.315 39.6455C162.67 39.3947 162.096 39.0363 161.595 38.5665C161.097 38.0966 160.683 37.5233 160.36 36.8464C160.038 36.1695 159.875 35.393 159.875 34.5091C159.875 33.5097 160.229 32.57 160.934 31.69C161.638 30.81 162.55 29.9778 163.665 29.2014C164.78 28.425 166.022 27.7043 167.388 27.0433C168.754 26.3823 170.1 25.797 171.422 25.2794C172.744 24.7657 173.97 24.3078 175.101 23.9136C176.232 23.5155 177.108 23.2009 177.725 22.966L192.226 16.9735C192.429 16.9137 192.533 16.9894 192.533 17.1925C192.533 17.5747 192.533 17.8893 192.533 18.1401C192.533 18.391 192.549 18.7055 192.577 19.0878C192.577 19.2948 192.593 19.5019 192.62 19.7049C192.648 19.912 192.736 20.0275 192.883 20.0593C193.031 20.0593 193.198 19.9916 193.389 19.8602C193.58 19.7288 193.747 19.6014 193.895 19.4859C194.922 18.809 196.033 18.2596 197.223 17.8335C198.414 17.4075 199.58 17.1925 200.727 17.1925C201.607 17.1925 202.439 17.3239 203.216 17.5906C203.992 17.8574 204.677 18.2874 205.266 18.8927C205.852 19.4939 206.326 20.2823 206.676 21.2499C207.03 22.2214 207.206 23.408 207.206 24.8175V35.5722C207.206 36.2491 207.361 36.8941 207.667 37.5113C207.974 38.1285 208.396 38.6421 208.922 39.0522L209.407 39.4066C209.495 39.4664 209.523 39.5539 209.495 39.6694C209.467 39.7849 209.392 39.8446 209.276 39.8446H198.832C198.712 39.8446 198.641 39.7849 198.613 39.6694C198.581 39.5539 198.613 39.4624 198.701 39.4066L199.143 39.0961C199.7 38.6859 200.134 38.1643 200.441 37.5312C200.747 36.8981 200.902 36.2451 200.902 35.5682V24.8255C200.902 23.9734 200.695 23.2168 200.285 22.5559C199.875 21.8949 199.362 21.3733 198.744 20.991C198.127 20.6088 197.458 20.3818 196.738 20.3062C196.017 20.2345 195.348 20.3659 194.731 20.7044C194.114 21.0428 193.6 21.6082 193.186 22.4006C192.772 23.1929 192.569 24.268 192.569 25.6178L192.525 35.5762C192.529 36.2531 192.684 36.8981 192.991 37.5153ZM166.174 23.7663C166.289 23.6509 166.349 23.5593 166.349 23.5035C166.409 22.2692 166.584 21.2698 166.878 20.5053C167.173 19.7408 167.539 19.1754 167.981 18.809C168.423 18.4427 168.885 18.2596 169.371 18.2596C169.857 18.2596 170.303 18.4427 170.717 18.809C171.127 19.1754 171.473 19.697 171.752 20.3739C172.031 21.0508 172.17 21.8591 172.17 22.7988V23.5911C172.17 23.826 172.126 24.061 172.039 24.2959L177.856 22.1378C177.179 20.4615 176.128 19.1913 174.707 18.3273C173.281 17.4592 171.601 17.0292 169.662 17.0292C168.28 17.0292 167.07 17.2562 166.026 17.7101C164.983 18.164 164.079 18.813 163.315 19.6492C162.55 20.4854 161.925 21.4848 161.443 22.6475C160.958 23.8101 160.599 25.0922 160.364 26.5058C160.336 26.6212 160.356 26.7128 160.432 26.7686C160.504 26.8283 160.587 26.8283 160.675 26.7686L166.174 23.7663Z" fill="white"/>
<path d="M22.6567 16.5919C22.4258 16.4924 22.1949 16.4008 21.956 16.3172C21.0043 15.9747 20.0447 15.7557 19.0971 15.6562C18.5715 15.6044 18.0538 15.5766 17.5561 15.5766C15.613 15.5766 13.8571 15.9827 12.34 16.779C10.4646 17.7665 8.95157 19.1084 7.84863 20.7648C7.67742 21.0196 7.51815 21.2824 7.37082 21.5492L5.47949 15.5527C5.82192 15.5009 6.16435 15.4292 6.5028 15.3217C7.62167 14.9673 8.60915 14.3382 9.39355 13.4941C10.6518 13.7012 11.9339 13.6096 13.1643 13.2194C14.3986 12.8292 15.5015 12.1682 16.4134 11.2803C17.5402 11.5192 18.7108 11.4674 19.8257 11.117C20.1682 11.0095 20.4907 10.8701 20.8013 10.7148L22.6567 16.5919Z" fill="white"/>
<path d="M16.6479 1.04694C16.1462 1.20621 15.6922 1.44113 15.2861 1.73578C13.6894 0.210773 11.3362 -0.418343 9.08253 0.290407C6.82887 0.999158 5.26404 2.87058 4.83401 5.03267C4.33629 5.0247 3.82663 5.09239 3.32493 5.25166C0.82041 6.04403 -0.56922 8.7118 0.223148 11.2163C1.01552 13.7208 3.68329 15.1105 6.1878 14.3181C7.37436 13.9438 8.30609 13.1435 8.87947 12.1401C10.1178 12.5781 11.4995 12.6418 12.8493 12.2157C14.1991 11.7897 15.2941 10.9456 16.0546 9.87447C17.0978 10.3682 18.3202 10.4877 19.5107 10.1134C22.0152 9.32101 23.4049 6.65324 22.6125 4.14872C21.8201 1.6442 19.1524 0.254572 16.6479 1.04694Z" fill="white"/>
</svg>
