<svg width="95" height="97" viewBox="0 0 95 97" fill="none" xmlns="http://www.w3.org/2000/svg">
<path d="M93.8264 75.0969C92.8645 74.6571 91.9027 74.2525 90.9076 73.883C86.9441 72.37 82.9473 71.4024 79.0003 70.9626C76.8113 70.7339 74.6554 70.6107 72.5824 70.6107C64.4894 70.6107 57.1759 72.4052 50.8574 75.9238C43.0463 80.2868 36.7444 86.2156 32.1507 93.5342C31.4375 94.6602 30.7742 95.8213 30.1606 97L22.2832 70.5052C23.7094 70.2765 25.1356 69.9598 26.5453 69.4848C31.2054 67.919 35.3182 65.1394 38.5852 61.4097C43.8258 62.3245 49.1658 61.9199 54.2903 60.1958C59.4313 58.4717 64.025 55.5513 67.8228 51.6281C72.516 52.6836 77.3917 52.4549 82.0352 50.9068C83.4614 50.4318 84.8047 49.816 86.0983 49.1299L93.8264 75.0969Z" fill="#FD9900"/>
<path d="M69.2587 4.71649C67.1714 5.434 65.283 6.49234 63.5933 7.81974C56.9506 0.949536 47.1604 -1.88465 37.7844 1.30829C28.4084 4.50123 21.8982 12.932 20.1091 22.6723C18.0384 22.6364 15.918 22.9414 13.8308 23.6589C3.41115 27.2285 -2.37018 39.2469 0.926339 50.5298C4.22286 61.8127 15.3217 68.073 25.7413 64.5034C30.6778 62.8172 34.5541 59.2117 36.9395 54.6914C42.0914 56.6646 47.8396 56.9516 53.4553 55.0322C59.0709 53.1129 63.6264 49.31 66.7904 44.4847C71.1306 46.709 76.2161 47.2472 81.1692 45.561C91.5888 41.9914 97.3702 29.973 94.0737 18.6901C90.7771 7.40717 79.6783 1.14685 69.2587 4.71649Z" fill="#FD9900"/>
</svg>
