<svg width="570" height="68" viewBox="0 0 570 68" fill="none" xmlns="http://www.w3.org/2000/svg">
<path d="M6.08 38.58C7.74 38.58 9.1 37.68 9.1 36.16C9.1 34.34 7.72 33.92 5.22 33.22C2.84 32.58 1.24 31.78 1.24 29C1.24 26.86 2.74 24.78 5.7 24.78C7.38 24.78 8.38 25.4 9 25.4C9.3 25.4 9.38 25.26 9.5 25H9.84L9.98 29.04H9.54C8.74 26.88 7.72 25.4 5.52 25.4C3.88 25.4 2.88 26.32 2.88 27.56C2.88 29.1 4.32 29.6 6.22 30.12C8.4 30.7 10.74 31.38 10.74 34.58C10.74 37.3 8.94 39.2 6 39.2C4.1 39.2 2.76 38.6 2.18 38.6C1.92 38.6 1.82 38.82 1.66 39.2H1.28L1.08 34.54H1.52C2.3 36.8 3.72 38.58 6.08 38.58ZM16.4453 34.22H17.3453V32.76C17.3453 30.58 17.0053 29.76 15.7853 29.76C15.0853 29.76 14.5253 30 14.5253 30.54C14.5253 30.66 14.5453 30.8 14.5853 30.94H15.1253C15.2253 31.2 15.2853 31.46 15.2853 31.78C15.2853 32.62 14.6653 33.12 13.8453 33.12C12.8853 33.12 12.4453 32.54 12.4453 31.66C12.4453 30.1 13.9853 29.28 16.2653 29.28C19.0453 29.28 20.1453 30.16 20.1453 33.06V37C20.1453 37.84 20.3853 38.12 20.7653 38.12C21.1653 38.12 21.4253 37.8 21.5653 36.2L22.0253 36.24C21.9253 38.44 21.2653 39.2 19.7053 39.2C18.3653 39.2 17.6253 38.72 17.4253 37.78C16.9853 38.72 16.1453 39.2 14.8653 39.2C13.4053 39.2 12.0053 38.7 12.0053 36.82C12.0053 34.76 13.7453 34.22 16.4453 34.22ZM15.8853 38.34C16.6053 38.34 17.3453 37.62 17.3453 36.38V34.72H16.8853C15.4453 34.72 14.9253 35.42 14.9253 36.76C14.9253 37.94 15.2253 38.34 15.8853 38.34ZM21.0547 30V29.48H26.3947V30H24.9747L27.3947 36.46L29.6547 30H28.2947V29.48H31.3347V30H30.4147L27.1547 39.06H25.6947L21.9547 30H21.0547ZM31.2227 34.3C31.2227 30.82 33.3827 29.28 36.1627 29.28C38.9227 29.28 40.2427 30.84 40.1227 33.84H34.2027V34.38C34.2027 36.98 34.7427 38.48 36.7827 38.48C38.3027 38.48 39.2027 37.58 39.6027 36.08L40.1427 36.16C39.7427 37.84 38.7227 39.2 36.0227 39.2C32.7227 39.2 31.2227 37.2 31.2227 34.3ZM34.2027 33.3H37.3627C37.4027 30.76 37.1427 29.76 35.9427 29.76C34.8227 29.76 34.2627 30.68 34.2027 33.3ZM55.287 31.98C55.287 27.7 54.887 25.4 52.067 25.4C49.147 25.4 48.727 27.76 48.727 32.12C48.727 36.06 49.207 38.58 52.047 38.58C54.767 38.58 55.287 36.3 55.287 31.98ZM45.527 32.14C45.527 27.62 48.027 24.78 52.167 24.78C56.227 24.78 58.507 27.42 58.507 31.92C58.507 36.42 56.347 39.2 51.967 39.2C47.707 39.2 45.527 36.62 45.527 32.14ZM59.6564 29.48H63.7764V31.28C64.2164 30.28 65.0564 29.28 67.0364 29.28C68.8764 29.28 70.0564 30.2 70.0564 32.62V38.48H71.3764V39H66.0764V38.48H67.2364V32.32C67.2364 30.74 66.9364 30.22 66.0764 30.22C64.8764 30.22 63.7764 31.54 63.7764 33.28V38.48H64.9564V39H59.6564V38.48H60.9564V30H59.6564V29.48ZM82.9655 31.6L85.9255 25.58H84.0055V25H88.0455V25.58H86.6655L83.3655 32.26V38.42H84.8255V39H78.9055V38.42H80.3655V32.46L76.8655 25.58H75.6655V25H81.6655V25.58H80.1255L82.9655 31.6ZM93.3133 34.16C93.3133 31.46 93.0333 29.76 91.4933 29.76C89.8533 29.76 89.5933 31.44 89.5933 34.2C89.5933 36.98 89.8733 38.72 91.4933 38.72C93.0333 38.72 93.3133 37.28 93.3133 34.16ZM86.6133 34.28C86.6133 31.04 88.4733 29.28 91.5333 29.28C94.6133 29.28 96.2933 30.84 96.2933 34.14C96.2933 37.34 94.6533 39.2 91.4533 39.2C88.2933 39.2 86.6133 37.4 86.6133 34.28ZM108.538 39H104.618L104.458 37.38C104.038 38.3 103.198 39.2 101.358 39.2C99.4983 39.2 98.2983 38.28 98.2983 35.86V30H96.9783V29.48H101.118V36.16C101.118 37.74 101.378 38.32 102.318 38.32C103.438 38.32 104.398 37.1 104.398 35.58V30H103.178V29.48H107.218V38.48H108.538V39ZM115.328 30.1C114.248 30.1 113.308 31.74 113.308 33.54V38.48H115.088V39H109.188V38.48H110.488V30H109.188V29.48H113.308V31.34C113.728 29.92 114.708 29.28 115.868 29.28C117.088 29.28 117.928 30.06 117.928 31.36C117.928 32.5 117.348 33.06 116.488 33.06C115.688 33.06 115.088 32.62 115.088 31.58C115.088 31.4 115.108 31.2 115.148 31H115.768C115.848 30.82 115.868 30.68 115.868 30.56C115.868 30.18 115.588 30.1 115.328 30.1ZM122.71 25H132.83L133.03 29H132.53C131.85 26.12 130.73 25.58 128.27 25.58H127.09V31.78H128.11C129.53 31.78 130.15 31.04 130.45 29.24H130.89V35.16H130.41C130.03 33.06 129.55 32.44 128.01 32.44H127.09V38.42H129.63V39H122.71V38.42H124.09V25.58H122.71V25ZM134.855 26.22C134.855 25.42 135.355 24.7 136.495 24.7C137.455 24.7 138.075 25.18 138.075 26.22C138.075 27.1 137.575 27.76 136.475 27.76C135.195 27.76 134.855 26.94 134.855 26.22ZM133.875 29.48H138.035V38.48H139.355V39H133.915V38.48H135.215V30H133.875V29.48ZM146.128 30.1C145.048 30.1 144.108 31.74 144.108 33.54V38.48H145.888V39H139.988V38.48H141.288V30H139.988V29.48H144.108V31.34C144.528 29.92 145.508 29.28 146.668 29.28C147.888 29.28 148.728 30.06 148.728 31.36C148.728 32.5 148.148 33.06 147.288 33.06C146.488 33.06 145.888 32.62 145.888 31.58C145.888 31.4 145.908 31.2 145.948 31H146.568C146.648 30.82 146.668 30.68 146.668 30.56C146.668 30.18 146.388 30.1 146.128 30.1ZM149.628 39.2V35.74H150.088C150.528 37.82 151.808 38.56 153.428 38.56C154.968 38.56 155.588 37.96 155.588 37.1C155.588 36 154.528 35.8 153.088 35.46C151.488 35.1 149.708 34.64 149.708 32.48C149.708 30.62 151.068 29.28 153.128 29.28C153.988 29.28 154.548 29.48 155.128 29.74C155.308 29.82 155.488 29.9 155.688 29.9C155.928 29.9 156.008 29.7 156.088 29.24H156.488V32.26H156.048C155.508 30.6 154.568 29.84 153.168 29.84C151.928 29.84 151.208 30.32 151.208 31.12C151.208 32.18 152.368 32.4 153.708 32.7C155.288 33.08 157.048 33.58 157.048 35.94C157.048 37.98 155.688 39.2 153.428 39.2C152.388 39.2 151.628 38.96 150.908 38.58C150.788 38.5 150.648 38.42 150.568 38.42C150.348 38.42 150.228 38.58 150.048 39.2H149.628ZM158.92 36.48V30H157.62V29.48H158.92V26.9L161.76 26.18V29.48H164.44V30H161.76V36.56C161.76 37.7 161.98 38.28 162.86 38.28C163.82 38.28 164.36 37.5 164.54 36.14L165 36.2C164.82 37.76 164.2 39.2 161.92 39.2C160.18 39.2 158.92 38.62 158.92 36.48ZM169.818 25H175.098C178.518 25 180.618 25.8 180.618 28.32C180.618 30.18 179.498 31.22 177.458 31.56V31.6C179.858 31.92 181.318 33.06 181.318 35.06C181.318 38.2 178.678 39 174.998 39H169.818V38.42H171.318V25.58H169.818V25ZM174.318 32.02V38.42H175.258C177.438 38.42 178.098 37.42 178.098 35.12C178.098 32.96 177.398 32.02 175.078 32.02H174.318ZM174.318 25.58V31.42H174.838C176.938 31.42 177.558 30.5 177.558 28.36C177.558 26.26 176.918 25.58 174.958 25.58H174.318ZM189.231 34.16C189.231 31.46 188.951 29.76 187.411 29.76C185.771 29.76 185.511 31.44 185.511 34.2C185.511 36.98 185.791 38.72 187.411 38.72C188.951 38.72 189.231 37.28 189.231 34.16ZM182.531 34.28C182.531 31.04 184.391 29.28 187.451 29.28C190.531 29.28 192.211 30.84 192.211 34.14C192.211 37.34 190.571 39.2 187.371 39.2C184.211 39.2 182.531 37.4 182.531 34.28ZM199.915 34.16C199.915 31.46 199.635 29.76 198.095 29.76C196.455 29.76 196.195 31.44 196.195 34.2C196.195 36.98 196.475 38.72 198.095 38.72C199.635 38.72 199.915 37.28 199.915 34.16ZM193.215 34.28C193.215 31.04 195.075 29.28 198.135 29.28C201.215 29.28 202.895 30.84 202.895 34.14C202.895 37.34 201.255 39.2 198.055 39.2C194.895 39.2 193.215 37.4 193.215 34.28ZM210.018 39V38.48H211.158L208.538 34.04L207.858 34.18V38.48H208.978V39H203.738V38.48H205.038V24.52H203.698V24H207.858V33.6L208.378 33.46L212.338 30H210.678V29.48H214.678V30H213.258L210.598 32.36L214.258 38.48H215.138V39H210.018ZM216.554 26.22C216.554 25.42 217.054 24.7 218.194 24.7C219.154 24.7 219.774 25.18 219.774 26.22C219.774 27.1 219.274 27.76 218.174 27.76C216.894 27.76 216.554 26.94 216.554 26.22ZM215.574 29.48H219.734V38.48H221.054V39H215.614V38.48H216.914V30H215.574V29.48ZM221.688 29.48H225.808V31.28C226.248 30.28 227.088 29.28 229.068 29.28C230.908 29.28 232.088 30.2 232.088 32.62V38.48H233.408V39H228.108V38.48H229.268V32.32C229.268 30.74 228.968 30.22 228.108 30.22C226.908 30.22 225.808 31.54 225.808 33.28V38.48H226.988V39H221.688V38.48H222.988V30H221.688V29.48ZM242.353 32.54C242.353 34.7 240.853 35.96 238.533 35.96C237.993 35.96 237.453 35.88 237.033 35.8C236.313 36.28 235.973 36.62 235.973 36.82C235.973 37.02 236.173 37.12 236.973 37.12H239.353C241.653 37.12 243.633 37.62 243.633 40.22C243.633 42.4 242.153 44 238.093 44C234.973 44 233.553 43.16 233.553 41.76C233.553 40.72 234.373 40.34 235.053 40.16L235.933 40.64C235.773 41.02 235.733 41.38 235.733 41.7C235.733 42.64 236.353 43.48 238.493 43.48C240.813 43.48 242.033 42.54 242.033 41.2C242.033 40.08 241.373 39.66 239.313 39.66H237.053C235.153 39.66 234.533 38.9 234.533 38.06C234.533 37.14 235.173 36.56 236.473 35.64C235.093 35.16 234.493 34.16 234.493 32.66C234.493 30.84 235.733 29.28 238.553 29.28C239.273 29.28 239.953 29.42 240.553 29.74C240.453 28.24 241.153 26.78 242.733 26.78C243.593 26.78 244.233 27.32 244.233 28.16C244.233 28.76 243.793 29.32 243.133 29.32C242.593 29.32 242.213 28.98 242.093 28.7L242.573 28.14C242.533 27.82 242.353 27.64 242.013 27.64C241.553 27.64 241.073 28.16 241.073 29.52C241.073 29.7 241.073 29.86 241.093 30.04C241.853 30.6 242.353 31.38 242.353 32.54ZM237.133 32.66C237.133 34.9 237.593 35.42 238.473 35.42C239.293 35.42 239.753 34.96 239.753 32.64C239.753 30.3 239.333 29.76 238.493 29.76C237.653 29.76 237.133 30.26 237.133 32.66ZM252.832 34.22H253.732V32.76C253.732 30.58 253.392 29.76 252.172 29.76C251.472 29.76 250.912 30 250.912 30.54C250.912 30.66 250.932 30.8 250.972 30.94H251.512C251.612 31.2 251.672 31.46 251.672 31.78C251.672 32.62 251.052 33.12 250.232 33.12C249.272 33.12 248.832 32.54 248.832 31.66C248.832 30.1 250.372 29.28 252.652 29.28C255.432 29.28 256.532 30.16 256.532 33.06V37C256.532 37.84 256.772 38.12 257.152 38.12C257.552 38.12 257.812 37.8 257.952 36.2L258.412 36.24C258.312 38.44 257.652 39.2 256.092 39.2C254.752 39.2 254.012 38.72 253.812 37.78C253.372 38.72 252.532 39.2 251.252 39.2C249.792 39.2 248.392 38.7 248.392 36.82C248.392 34.76 250.132 34.22 252.832 34.22ZM252.272 38.34C252.992 38.34 253.732 37.62 253.732 36.38V34.72H253.272C251.832 34.72 251.312 35.42 251.312 36.76C251.312 37.94 251.612 38.34 252.272 38.34ZM258.836 29.48H262.956V31.28C263.396 30.28 264.236 29.28 266.216 29.28C268.056 29.28 269.236 30.2 269.236 32.62V38.48H270.556V39H265.256V38.48H266.416V32.32C266.416 30.74 266.116 30.22 265.256 30.22C264.056 30.22 262.956 31.54 262.956 33.28V38.48H264.136V39H258.836V38.48H260.136V30H258.836V29.48ZM276.021 38.32C277.001 38.32 278.081 37.46 278.081 35.88V32.26C278.081 31.18 277.361 29.96 276.181 29.96C274.821 29.96 274.361 31.24 274.361 34.28C274.361 37.24 274.701 38.32 276.021 38.32ZM278.261 39L278.081 37.56C277.541 38.58 276.681 39.2 275.121 39.2C272.821 39.2 271.381 37.6 271.381 34.3C271.381 30.96 272.901 29.28 275.461 29.28C276.781 29.28 277.581 29.74 278.021 30.46V24.52H276.481V24H280.881V38.48H282.181V39H278.261ZM294.045 38.58C295.285 38.58 295.885 38.08 296.105 37.22V33.88H294.545V33.3H300.045V33.88H299.005V38.98H298.625C298.485 38.68 298.305 38.48 297.825 38.48C297.105 38.48 295.645 39.2 293.905 39.2C289.825 39.2 287.265 37.02 287.265 32.14C287.265 27.3 290.145 24.78 294.045 24.78C295.845 24.78 296.985 25.4 297.645 25.4C297.945 25.4 298.005 25.26 298.105 25H298.465L298.605 29.24H298.145C297.385 26.9 296.045 25.4 294.085 25.4C291.745 25.4 290.445 27.16 290.445 32.08C290.445 36.42 291.685 38.58 294.045 38.58ZM301.242 34.3C301.242 30.82 303.402 29.28 306.182 29.28C308.942 29.28 310.262 30.84 310.142 33.84H304.222V34.38C304.222 36.98 304.762 38.48 306.802 38.48C308.322 38.48 309.222 37.58 309.622 36.08L310.162 36.16C309.762 37.84 308.742 39.2 306.042 39.2C302.742 39.2 301.242 37.2 301.242 34.3ZM304.222 33.3H307.382C307.422 30.76 307.162 29.76 305.962 29.76C304.842 29.76 304.282 30.68 304.222 33.3ZM312.104 36.48V30H310.804V29.48H312.104V26.9L314.944 26.18V29.48H317.624V30H314.944V36.56C314.944 37.7 315.164 38.28 316.044 38.28C317.004 38.28 317.544 37.5 317.724 36.14L318.184 36.2C318.004 37.76 317.384 39.2 315.104 39.2C313.364 39.2 312.104 38.62 312.104 36.48ZM412.356 31.76C412.356 37.4 408.816 39 404.076 39H399.056V38.42H400.576V25.58H399.056V25H404.636C409.536 25 412.356 26.78 412.356 31.76ZM403.596 38.42H404.396C407.736 38.42 409.116 36.46 409.116 31.8C409.116 26.68 407.536 25.58 404.076 25.58H403.596V38.42ZM414.543 26.22C414.543 25.42 415.043 24.7 416.183 24.7C417.143 24.7 417.763 25.18 417.763 26.22C417.763 27.1 417.263 27.76 416.163 27.76C414.883 27.76 414.543 26.94 414.543 26.22ZM413.563 29.48H417.723V38.48H419.043V39H413.603V38.48H414.903V30H413.563V29.48ZM420.136 39.2V35.74H420.596C421.036 37.82 422.316 38.56 423.936 38.56C425.476 38.56 426.096 37.96 426.096 37.1C426.096 36 425.036 35.8 423.596 35.46C421.996 35.1 420.216 34.64 420.216 32.48C420.216 30.62 421.576 29.28 423.636 29.28C424.496 29.28 425.056 29.48 425.636 29.74C425.816 29.82 425.996 29.9 426.196 29.9C426.436 29.9 426.516 29.7 426.596 29.24H426.996V32.26H426.556C426.016 30.6 425.076 29.84 423.676 29.84C422.436 29.84 421.716 30.32 421.716 31.12C421.716 32.18 422.876 32.4 424.216 32.7C425.796 33.08 427.556 33.58 427.556 35.94C427.556 37.98 426.196 39.2 423.936 39.2C422.896 39.2 422.136 38.96 421.416 38.58C421.296 38.5 421.156 38.42 421.076 38.42C420.856 38.42 420.736 38.58 420.556 39.2H420.136ZM433.747 29.76C432.207 29.76 431.527 30.92 431.527 34.24C431.527 37.24 432.187 38.44 433.907 38.44C435.747 38.44 436.387 37 436.607 35.86L437.167 35.94C436.927 37.18 436.287 39.2 433.127 39.2C430.187 39.2 428.547 37.48 428.547 34.4C428.547 31 430.547 29.28 433.607 29.28C435.887 29.28 437.107 30.28 437.107 31.82C437.107 32.94 436.527 33.5 435.667 33.5C434.807 33.5 434.187 33 434.187 32.04C434.187 31.86 434.207 31.6 434.287 31.32H434.907C434.967 31.12 435.007 30.92 435.007 30.74C435.007 30.18 434.607 29.76 433.747 29.76ZM444.817 34.16C444.817 31.46 444.537 29.76 442.997 29.76C441.357 29.76 441.097 31.44 441.097 34.2C441.097 36.98 441.377 38.72 442.997 38.72C444.537 38.72 444.817 37.28 444.817 34.16ZM438.117 34.28C438.117 31.04 439.977 29.28 443.037 29.28C446.117 29.28 447.797 30.84 447.797 34.14C447.797 37.34 446.157 39.2 442.957 39.2C439.797 39.2 438.117 37.4 438.117 34.28ZM460.042 39H456.122L455.962 37.38C455.542 38.3 454.702 39.2 452.862 39.2C451.002 39.2 449.802 38.28 449.802 35.86V30H448.482V29.48H452.622V36.16C452.622 37.74 452.882 38.32 453.822 38.32C454.942 38.32 455.902 37.1 455.902 35.58V30H454.682V29.48H458.722V38.48H460.042V39ZM460.692 29.48H464.812V31.28C465.252 30.28 466.092 29.28 468.072 29.28C469.912 29.28 471.092 30.2 471.092 32.62V38.48H472.412V39H467.112V38.48H468.272V32.32C468.272 30.74 467.972 30.22 467.112 30.22C465.912 30.22 464.812 31.54 464.812 33.28V38.48H465.992V39H460.692V38.48H461.992V30H460.692V29.48ZM473.569 36.48V30H472.269V29.48H473.569V26.9L476.409 26.18V29.48H479.089V30H476.409V36.56C476.409 37.7 476.629 38.28 477.509 38.28C478.469 38.28 479.009 37.5 479.189 36.14L479.649 36.2C479.469 37.76 478.849 39.2 476.569 39.2C474.829 39.2 473.569 38.62 473.569 36.48Z" fill="white"/>
<path d="M355.747 6.34968C356.5 4.22807 359.5 4.22807 360.253 6.34968C360.887 8.1356 363.247 8.50946 364.402 7.00677C365.773 5.22162 368.627 6.1488 368.687 8.3992C368.738 10.2935 370.867 11.3785 372.43 10.3061C374.286 9.0322 376.713 10.7958 376.075 12.9547C375.538 14.772 377.228 16.4619 379.045 15.9248C381.204 15.2868 382.968 17.7142 381.694 19.5703C380.621 21.1327 381.706 23.2621 383.601 23.3129C385.851 23.3732 386.778 26.2267 384.993 27.5983C383.491 28.7529 383.864 31.1133 385.65 31.747C387.772 32.4998 387.772 35.5002 385.65 36.253C383.864 36.8867 383.491 39.2471 384.993 40.4017C386.778 41.7733 385.851 44.6268 383.601 44.6871C381.706 44.7379 380.621 46.8673 381.694 48.4297C382.968 50.2858 381.204 52.7132 379.045 52.0752C377.228 51.5381 375.538 53.228 376.075 55.0453C376.713 57.2042 374.286 58.9678 372.43 57.6939C370.867 56.6215 368.738 57.7065 368.687 59.6008C368.627 61.8512 365.773 62.7784 364.402 60.9932C363.247 59.4905 360.887 59.8644 360.253 61.6503C359.5 63.7719 356.5 63.7719 355.747 61.6503C355.113 59.8644 352.753 59.4905 351.598 60.9932C350.227 62.7784 347.373 61.8512 347.313 59.6008C347.262 57.7065 345.133 56.6215 343.57 57.6939C341.714 58.9678 339.287 57.2042 339.925 55.0453C340.462 53.228 338.772 51.5381 336.955 52.0752C334.796 52.7132 333.032 50.2858 334.306 48.4297C335.379 46.8673 334.294 44.7379 332.399 44.6871C330.149 44.6268 329.222 41.7733 331.007 40.4017C332.509 39.2471 332.136 36.8867 330.35 36.253C328.228 35.5002 328.228 32.4998 330.35 31.747C332.136 31.1133 332.509 28.7529 331.007 27.5983C329.222 26.2267 330.149 23.3732 332.399 23.3129C334.294 23.2621 335.379 21.1327 334.306 19.5703C333.032 17.7142 334.796 15.2868 336.955 15.9248C338.772 16.4619 340.462 14.772 339.925 12.9547C339.287 10.7958 341.714 9.0322 343.57 10.3061C345.133 11.3785 347.262 10.2935 347.313 8.3992C347.373 6.1488 350.227 5.22162 351.598 7.00677C352.753 8.50946 355.113 8.1356 355.747 6.34968Z" fill="#FF6347"/>
<path d="M369.292 37.9714C369.292 35.8805 370.732 34.5392 372.606 34.5392C374.421 34.5392 375.801 35.5649 375.801 37.8136C375.801 40.0426 374.283 41.2064 372.547 41.2064C370.397 41.2064 369.292 39.8453 369.292 37.9714ZM371.265 37.9517C371.265 39.8453 371.541 40.7724 372.567 40.7724C373.632 40.7724 373.829 39.727 373.829 37.853C373.829 35.8411 373.553 34.9929 372.586 34.9929C371.561 34.9929 371.265 35.9002 371.265 37.9517ZM364.42 41.0091L372.724 27.2014H373.513L365.229 41.0091H364.42ZM362.171 30.4166C362.171 28.3257 363.591 26.9844 365.465 26.9844C367.3 26.9844 368.681 28.0101 368.681 30.2588C368.681 32.4877 367.162 33.6515 365.406 33.6515C363.276 33.6515 362.171 32.2905 362.171 30.4166ZM364.124 30.3969C364.124 32.2905 364.4 33.2176 365.426 33.2176C366.511 33.2176 366.708 32.1721 366.708 30.2982C366.708 28.2862 366.412 27.4381 365.446 27.4381C364.44 27.4381 364.124 28.3454 364.124 30.3969Z" fill="white"/>
<path d="M355.498 33.2174C354.61 33.2174 353.703 33.5527 352.875 34.0656L352.52 33.8881V27.4181L352.835 27.1814C354.472 27.4181 358.24 27.8324 358.812 27.8324C359.266 27.8324 359.443 27.5957 359.601 27.0039L360.015 27.0631C359.68 29.7655 359.345 30.3572 358.575 30.3572C358.141 30.3572 357.609 30.1994 356.938 29.9824L353.19 28.8975L353.111 33.2766C353.979 32.8426 354.926 32.5467 356.09 32.5467C359.562 32.5467 360.666 34.6179 360.666 36.6693C360.666 39.4901 358.556 41.2062 355.36 41.2062C353.506 41.2062 351.474 40.4763 351.474 38.3263C351.474 37.4189 351.967 36.6891 352.973 36.6891C353.802 36.6891 354.393 37.2216 354.393 38.0107C354.393 38.3263 354.315 38.6419 354.236 38.918H353.664C353.585 39.0955 353.545 39.2731 353.545 39.4506C353.545 40.1015 354.236 40.5947 355.301 40.5947C357.056 40.5947 357.569 39.1942 357.569 36.5115C357.569 34.2234 357.135 33.2174 355.498 33.2174Z" fill="white"/>
<path d="M341.309 41.0091V39.4311L343.814 36.7682C346.339 34.125 347.128 32.5666 347.128 30.1996C347.128 28.3257 346.635 27.5959 345.156 27.5959C344.071 27.5959 343.361 28.1482 343.361 28.9175C343.361 29.095 343.4 29.312 343.479 29.5092H344.051C344.15 29.7854 344.209 30.0813 344.209 30.4363C344.209 31.2253 343.578 31.7185 342.749 31.7185C341.763 31.7185 341.27 31.0083 341.27 30.0813C341.27 28.1876 342.946 26.9844 345.629 26.9844C348.568 26.9844 350.008 28.2665 350.008 30.3377C350.008 32.4088 349.041 33.5135 343.005 38.6815H347.207C349.081 38.6815 349.515 37.9517 349.811 36.4328H350.245L350.087 41.0091H341.309Z" fill="white"/>
</svg>
