<svg width="65" height="75" viewBox="0 0 65 75" fill="none" xmlns="http://www.w3.org/2000/svg">
<path d="M24.9249 0.221619C23.6936 0.558517 22.3011 1.2909 21.4216 2.11117L20.6154 2.84355L18.6219 2.8582C16.4085 2.87285 15.8955 2.99003 14.1805 3.89819C11.073 5.52408 9.13813 9.34711 9.65116 12.804C9.9883 15.0451 10.7798 16.6124 12.3336 18.0918L13.3157 19.0146L12.744 23.4968C12.4215 25.9429 12.1577 28.2719 12.1577 28.6674V29.3558L11.4101 29.5316C9.05018 30.1029 7.84822 32.9006 8.99155 35.127C9.47526 36.0645 10.5893 36.8261 11.8645 37.1044C12.2017 37.1777 12.2456 37.2802 12.4069 38.3934C12.6414 40.0486 13.257 41.9528 13.6675 42.2458C14.1072 42.5534 14.6935 42.5241 15.1626 42.1579C15.6317 41.777 15.617 41.3816 15.0014 39.243C14.6202 37.8954 14.6056 37.705 14.547 33.2228L14.4737 28.5942L15.3238 28.4916C23.3564 27.5395 31.4624 27.5102 38.9526 28.4184L40.3012 28.5795V33.047C40.3012 36.5332 40.2572 37.7489 40.0666 38.6278C39.1432 43.1686 35.7865 46.9184 31.3891 48.3246C26.8304 49.7893 22.1398 48.7054 18.49 45.3218C17.7717 44.648 17.5225 44.5162 17.0828 44.5162C16.3792 44.5162 15.9688 44.9263 15.9688 45.644C15.9688 46.142 16.0861 46.3032 17.0535 47.226C17.6545 47.7826 18.5633 48.515 19.1056 48.8372C20.205 49.511 20.3076 49.8186 19.6773 50.5217C19.3255 50.9025 18.402 51.2541 12.7 53.1583C9.03552 54.374 5.64951 55.5898 5.07785 55.8974C3.7293 56.6005 1.985 58.2996 1.26675 59.6033C0.988247 60.1306 0.592479 61.0094 0.416583 61.5807C0.0941054 62.5621 0.0794473 62.8404 0.0208151 68.3919C-0.0231591 74.1337 -0.0231591 74.1923 0.28466 74.5878C0.533847 74.8954 0.724402 74.9833 1.14949 74.9833C1.44265 74.9833 1.82376 74.8954 1.985 74.7782C2.24884 74.5732 2.2635 74.2949 2.33679 68.7287C2.41008 63.0308 2.42474 62.8843 2.76187 62.0201C3.43614 60.3063 4.59413 58.9295 6.04528 58.0799C6.66092 57.7137 17.2147 54.0371 17.6251 54.0371C17.7278 54.0371 18.9297 54.916 20.3076 55.9853L22.7994 57.9188L22.2571 58.3143C21.4802 58.8562 20.6007 60.0427 20.1903 61.0241C19.8532 61.859 19.8532 61.9762 19.8092 68.1282C19.7652 74.2656 19.7799 74.3974 20.073 74.6903C20.4835 75.1005 21.3923 75.0858 21.7734 74.6757C22.0372 74.3827 22.0519 74.0019 22.1252 68.3333L22.1985 62.3131L22.5649 61.5953C22.7701 61.1998 23.1806 60.6725 23.4884 60.4089C23.9721 59.9987 28.047 58.0067 35.7718 54.4326L37.1497 53.7881L38.3223 54.1983C38.9673 54.4326 41.5911 55.3261 44.1562 56.1757C48.2898 57.5672 48.9201 57.8162 49.8289 58.4461L50.855 59.1785V60.028V60.8922L50.1954 61.0534C49.8436 61.1413 49.3159 61.4196 49.0374 61.6539C48.0699 62.5035 48.0699 62.5474 48.0699 68.011C48.0699 72.6543 48.0846 72.9766 48.3631 73.5185C48.5243 73.8261 48.8908 74.2656 49.1986 74.4999L49.7263 74.9101L53.8599 74.954C57.8176 74.9979 58.0228 74.9833 58.8583 74.6757C59.943 74.2656 61.1156 73.1816 61.658 72.0684C62.0537 71.2774 62.0684 71.1603 62.1124 68.3626C62.171 65.1254 62.0537 64.437 61.2475 63.2066C60.9837 62.8111 60.456 62.2691 60.0602 61.9908L59.3566 61.4782V57.7723V54.0518L59.7378 53.7588C60.0456 53.5098 60.3387 53.4512 61.1596 53.4512C61.7166 53.4512 62.4348 53.378 62.7427 53.2901C63.4756 53.0557 64.2818 52.3966 64.6775 51.6496C65 51.0344 65 50.9611 65 44.8091C65 38.6571 65 38.5839 64.6775 37.9687C64.2818 37.2216 63.4756 36.5625 62.7427 36.3281C61.9951 36.1084 48.2458 36.1084 47.4396 36.3281C46.7214 36.5185 45.754 37.3974 45.4168 38.1444C45.1676 38.6864 45.1383 39.243 45.1383 44.8091C45.1383 51.6642 45.1237 51.5617 46.2817 52.6017C46.9999 53.2462 47.6449 53.4512 49.0667 53.4512C50.0048 53.4512 50.1807 53.4952 50.4885 53.8174C50.811 54.125 50.855 54.3008 50.855 55.1943V56.2196L50.2393 55.8681C49.8875 55.6777 46.5748 54.4912 42.881 53.2315C39.1725 51.9865 35.9917 50.8586 35.8158 50.7414C35.6252 50.6242 35.3907 50.2434 35.2881 49.9065C35.1269 49.3645 35.1415 49.2913 35.3761 49.1448C36.0943 48.72 37.6187 47.4896 38.3516 46.7426C40.521 44.5308 41.9136 41.7917 42.4852 38.5839L42.7344 37.1191L43.3647 37.0166C44.4787 36.8261 45.4755 36.0059 46.0032 34.8487C46.6188 33.5158 46.311 31.6116 45.3142 30.5423C44.8452 30.0443 43.6139 29.4291 43.0569 29.4291C42.6465 29.4291 42.6465 29.4291 42.6465 28.3598C42.6465 27.7885 42.4119 25.3717 42.1188 23.0134L41.5764 18.707L42.3973 17.8867C43.4527 16.7881 44.039 15.836 44.4641 14.4884C45.1383 12.3645 45.0504 10.0795 44.2588 8.23389C43.8484 7.26715 43.4966 6.95954 42.837 6.95954C41.8403 6.95954 41.5031 7.85306 42.0455 9.08346C43.1448 11.5736 42.5585 14.2834 40.4477 16.4659C39.2311 17.7109 39.0699 18.1064 39.2751 19.454C39.4657 20.6698 40.1399 26.1187 40.1106 26.1626C40.096 26.1626 39.2604 26.0894 38.249 25.9869C31.565 25.2545 22.8288 25.2691 16.5551 25.9869C15.6317 26.0894 14.8548 26.1626 14.8255 26.1333C14.7961 26.104 14.9867 24.4635 15.2359 22.4861C15.529 20.2596 15.6756 18.6923 15.6023 18.3554C15.529 17.9306 15.2359 17.5498 14.2831 16.627C12.8906 15.2941 12.2456 14.1516 11.9965 12.5989C11.6153 10.1674 12.9492 7.41362 15.1773 6.03674C16.5111 5.23112 18.3287 4.93816 19.9118 5.27506C20.9525 5.49477 21.5242 5.26041 22.6675 4.20578C23.2099 3.70776 24.0307 3.13651 24.5877 2.87285C25.5112 2.43342 25.6724 2.40412 27.2555 2.40412C28.8386 2.40412 28.9998 2.43342 29.9233 2.87285C30.4803 3.13651 31.3011 3.70776 31.8435 4.20578C32.9868 5.26041 33.5585 5.49477 34.5992 5.27506C35.7718 5.02605 36.8272 5.08465 38.1025 5.49478C39.3924 5.90491 39.7002 5.87562 40.1546 5.30436C40.7995 4.46944 40.3305 3.70776 38.8354 3.18045C38.0292 2.90215 37.5601 2.8582 35.8891 2.84355H33.8956L33.0894 2.11117C32.1806 1.27625 30.8174 0.543869 29.5275 0.20697C28.4281 -0.0713348 25.9949 -0.0713348 24.9249 0.221619ZM62.3615 38.8768L62.728 39.2284V44.8091V50.3899L62.3615 50.7414C62.0537 51.0637 61.8778 51.1076 60.9397 51.1076C59.5179 51.1076 58.8729 51.3127 58.1547 51.9572C57.07 52.9386 57.0114 53.1876 57.0114 57.2889V60.9215H55.1205H53.2149L53.1709 57.2303C53.127 53.7295 53.1123 53.4952 52.8045 52.9093C52.4087 52.1622 51.6025 51.5031 50.8696 51.2687C50.5618 51.1808 49.8436 51.1076 49.2866 51.1076C48.4657 51.1076 48.1725 51.049 47.8647 50.8L47.4836 50.5071V44.8091V39.1112L47.8647 38.8182C48.2458 38.5106 48.3924 38.5106 55.1351 38.5106H62.0098L62.3615 38.8768ZM33.0308 50.7268C33.0747 50.9172 33.3386 51.4152 33.6171 51.8253L34.1301 52.5724L33.2213 52.9972C32.7229 53.2315 30.7441 54.1397 28.8386 55.0478C26.9184 55.9413 25.2913 56.6737 25.218 56.6737C25.1008 56.6737 21.1871 53.7149 20.674 53.2315C20.5128 53.0704 20.6007 52.9386 21.1284 52.4405C21.4949 52.1183 21.9053 51.5617 22.0519 51.2248C22.2131 50.8732 22.345 50.5656 22.3597 50.551C22.3744 50.5217 22.7408 50.5949 23.1806 50.7121C25.9216 51.5031 29.4689 51.4592 32.0927 50.6242C32.9721 50.3313 32.9282 50.3313 33.0308 50.7268ZM58.1693 63.646C58.6677 63.895 59.0781 64.2466 59.3273 64.6274C59.7084 65.1987 59.7231 65.2865 59.7671 67.7034C59.8111 69.7394 59.7817 70.296 59.5765 70.8234C59.2394 71.7022 58.4039 72.42 57.4658 72.625C56.4983 72.8301 51.0748 72.8447 50.6937 72.6397C50.4299 72.4932 50.4152 72.2881 50.4152 68.055C50.4152 64.8032 50.4592 63.5728 50.5911 63.4409C50.723 63.3091 51.7051 63.2652 54.0797 63.2652C57.3632 63.2652 57.4071 63.2652 58.1693 63.646Z" fill="#FD9900"/>
<path d="M49.9026 40.9272L49.5361 41.2787V44.8088V48.3389L49.9026 48.6904C50.1225 48.9248 50.4303 49.0566 50.7088 49.0566C50.9873 49.0566 51.2951 48.9248 51.515 48.6904L51.8814 48.3389V44.8088V41.2787L51.515 40.9272C51.2951 40.6928 50.9873 40.561 50.7088 40.561C50.4303 40.561 50.1225 40.6928 49.9026 40.9272Z" fill="#FD9900"/>
<path d="M54.3 40.9272L53.9336 41.2787V44.8088V48.3389L54.3 48.6904C54.5199 48.9248 54.8277 49.0566 55.1062 49.0566C55.3847 49.0566 55.6926 48.9248 55.9124 48.6904L56.2789 48.3389V44.8088V41.2787L55.9124 40.9272C55.6926 40.6928 55.3847 40.561 55.1062 40.561C54.8277 40.561 54.5199 40.6928 54.3 40.9272Z" fill="#FD9900"/>
<path d="M58.6965 40.9272L58.3301 41.2787V44.8088V48.3389L58.6965 48.6904C58.9164 48.9248 59.2242 49.0566 59.5027 49.0566C59.7812 49.0566 60.089 48.9248 60.3089 48.6904L60.6754 48.3389V44.8088V41.2787L60.3089 40.9272C60.089 40.6928 59.7812 40.561 59.5027 40.561C59.2242 40.561 58.9164 40.6928 58.6965 40.9272Z" fill="#FD9900"/>
<path d="M19.7941 13.9905C19.6183 14.2102 19.4863 14.5032 19.4863 14.6643C19.4863 14.928 20.6883 17.9454 21.6411 20.0839C22.0661 21.0507 22.5352 21.3143 23.2974 21.0507C23.7811 20.8896 24.0303 20.5527 24.0303 20.0254C24.0303 19.5566 21.8609 14.3421 21.4945 13.9319C21.0547 13.4486 20.1899 13.4778 19.7941 13.9905Z" fill="#FD9900"/>
<path d="M26.3908 13.9908C26.0977 14.357 26.083 14.5621 26.083 17.4037C26.0977 19.6448 26.1416 20.4797 26.2882 20.6702C26.5814 21.0657 27.197 21.2414 27.6514 21.0657C28.3843 20.7873 28.4136 20.6409 28.4283 17.4037C28.4283 14.5621 28.4136 14.357 28.1205 13.9908C27.8859 13.6979 27.6954 13.61 27.2557 13.61C26.8159 13.61 26.6254 13.6979 26.3908 13.9908Z" fill="#FD9900"/>
<path d="M33.0163 13.9319C32.6499 14.3421 30.4805 19.5566 30.4805 20.0254C30.4805 20.5527 30.7297 20.8896 31.2134 21.0507C31.9756 21.3143 32.4446 21.0507 32.8697 20.0839C33.8225 17.9454 35.0245 14.928 35.0245 14.6643C35.0245 14.5032 34.8925 14.2102 34.7166 13.9905C34.3209 13.4778 33.4561 13.4486 33.0163 13.9319Z" fill="#FD9900"/>
<path d="M20.3079 32.3733C19.9414 32.6662 19.9268 32.7102 19.9268 34.3361C19.9268 36.2988 20.088 36.6357 21.0115 36.6357C21.9349 36.6357 22.1841 36.2549 22.2574 34.7462C22.316 33.2228 22.1255 32.4758 21.6124 32.2414C21.0701 31.9924 20.7476 32.0217 20.3079 32.3733Z" fill="#FD9900"/>
<path d="M33.0442 32.4321C32.7071 32.7543 32.6777 32.8862 32.6777 34.3216C32.6777 35.7132 32.7071 35.8889 33.0149 36.2258C33.4839 36.7531 34.2461 36.7971 34.7299 36.3137C34.9937 36.0501 35.023 35.8303 35.023 34.4095C35.023 32.8862 35.0084 32.769 34.6566 32.4321C34.4367 32.1977 34.1289 32.0659 33.8504 32.0659C33.5719 32.0659 33.2641 32.1977 33.0442 32.4321Z" fill="#FD9900"/>
<path d="M24.6902 40.4879C23.5469 41.6158 25.1593 43.0513 27.5485 43.0513C29.8205 43.0513 31.3743 41.5865 30.2603 40.4879C29.8352 40.0485 29.3368 40.0192 28.5746 40.4147C28.2521 40.5758 27.7538 40.7076 27.4459 40.7076C27.1381 40.7076 26.6397 40.5758 26.3319 40.4147C25.6137 40.0192 25.1153 40.0485 24.6902 40.4879Z" fill="#FD9900"/>
<path d="M25.7893 63.5582C25.6134 63.734 25.4961 64.0416 25.4961 64.3638C25.4961 65.0669 25.9212 65.4624 26.6541 65.4624C27.1085 65.4624 27.299 65.3745 27.5336 65.0816C27.7095 64.8618 27.8414 64.5396 27.8414 64.3638C27.8414 64.1881 27.7095 63.8658 27.5336 63.6461C27.1525 63.1627 26.2437 63.1041 25.7893 63.5582Z" fill="#FD9900"/>
<path d="M32.3859 63.5582C32.21 63.734 32.0928 64.0416 32.0928 64.3638C32.0928 65.0669 32.5179 65.4624 33.2508 65.4624C33.7052 65.4624 33.8957 65.3745 34.1302 65.0816C34.3061 64.8618 34.4381 64.5396 34.4381 64.3638C34.4381 64.1881 34.3061 63.8658 34.1302 63.6461C33.7491 63.1627 32.8403 63.1041 32.3859 63.5582Z" fill="#FD9900"/>
<path d="M11.2932 66.5755C11 66.9416 10.9854 67.1467 10.9854 70.5889C10.9854 74.0311 11 74.2362 11.2932 74.6024C11.6743 75.0857 12.5831 75.1443 13.0375 74.6903C13.316 74.412 13.3306 74.2069 13.3306 70.5889C13.3306 66.9709 13.316 66.7659 13.0375 66.4876C12.5831 66.0335 11.6743 66.0921 11.2932 66.5755Z" fill="#FD9900"/>
<path d="M25.7893 70.149C25.6134 70.3248 25.4961 70.6324 25.4961 70.9546C25.4961 71.6577 25.9212 72.0532 26.6541 72.0532C27.1085 72.0532 27.299 71.9653 27.5336 71.6724C27.7095 71.4527 27.8414 71.1304 27.8414 70.9546C27.8414 70.7789 27.7095 70.4566 27.5336 70.2369C27.1525 69.7535 26.2437 69.6949 25.7893 70.149Z" fill="#FD9900"/>
<path d="M32.3859 70.149C32.21 70.3248 32.0928 70.6324 32.0928 70.9546C32.0928 71.6577 32.5179 72.0532 33.2508 72.0532C33.7052 72.0532 33.8957 71.9653 34.1302 71.6724C34.3061 71.4527 34.4381 71.1304 34.4381 70.9546C34.4381 70.7789 34.3061 70.4566 34.1302 70.2369C33.7491 69.7535 32.8403 69.6949 32.3859 70.149Z" fill="#FD9900"/>
</svg>
