<svg width="50" height="50" viewBox="0 0 50 50" fill="none" xmlns="http://www.w3.org/2000/svg">
<g clip-path="url(#clip0_1874_2011)">
<path d="M33.8184 0.966797C32.793 1.34766 32.0605 2.01172 31.5625 3.02734C31.3086 3.54492 31.2988 3.62305 31.2988 5.12695C31.2988 6.31836 31.3477 6.85547 31.4844 7.37305C31.7871 8.56445 32.5098 9.88281 33.7793 11.5723C35.1855 13.4473 35.8887 14.707 36.3867 16.2891L36.5137 16.709L35.957 16.2793C33.6816 14.5215 30.9277 13.1641 28.2031 12.4512C26.4551 11.9922 25.2539 11.8262 23.3398 11.748C19.0723 11.5918 14.834 12.6855 11.2402 14.8828C10.7422 15.1855 10.2832 15.4492 10.2344 15.459C10.1855 15.4688 10.0586 15.2246 9.95117 14.9121C9.27734 12.9297 7.59766 11.7285 5.50781 11.7188C4.12109 11.7188 3.18359 12.0703 2.22656 12.9688C1.23047 13.9062 0.78125 14.9805 0.78125 16.4355C0.791016 18.5352 1.99219 20.2148 3.97461 20.8887C4.28711 20.9961 4.53125 21.123 4.52148 21.1719C4.51172 21.2207 4.27734 21.6211 3.99414 22.0801C3.33008 23.1445 2.34375 25.2051 1.96289 26.3184C1.24023 28.4668 0.898438 30.3418 0.810547 32.6758C0.585938 38.75 2.67578 44.209 6.97266 48.7793L7.79297 49.6582L8.61328 48.8574L9.42383 48.0664L10.4492 48.2422C14.6387 48.9746 19.3555 49.2676 26.0645 49.1895C31.4551 49.1309 34.4922 48.916 38.1836 48.3301C44.1602 47.3926 47.8906 45.9277 48.9258 44.1016L49.2188 43.6035V41.4258C49.2188 39.3066 49.209 39.2383 48.9746 38.7793C48.3105 37.4609 45.9766 36.2305 42.4805 35.3516C41.8652 35.1953 41.1914 35.0391 40.9961 35L40.625 34.9414V34.2578V33.5645L39.2871 33.623C38.5449 33.6523 37.7148 33.7402 37.4316 33.8184L36.9336 33.9648L37.2168 33.3594C37.4512 32.8613 37.5 32.6367 37.5 32.0215C37.5 31.3672 37.4609 31.1914 37.1582 30.6055C36.9629 30.2051 36.5039 29.5801 36.0352 29.0527C34.9316 27.832 34.7266 27.4902 34.2676 26.0352C34.043 25.332 33.7793 24.5801 33.6719 24.375L33.4766 23.9941L35.3223 22.1484L37.1582 20.3125L37.2363 20.625C37.2754 20.8008 37.334 21.8555 37.373 22.9688L37.4316 25H38.252H39.0625V23.6523C39.0625 20.4004 38.5156 17.0508 37.5977 14.7266C37.0605 13.3398 36.4941 12.3828 35.1953 10.6348C33.8574 8.84766 33.5938 8.39844 33.2422 7.37305C32.9297 6.43555 32.8027 4.58984 33.0078 3.95508C33.1641 3.49609 33.7109 2.87109 34.1895 2.62695C34.6777 2.38281 35.5566 2.38281 36.084 2.62695C37.5293 3.30078 37.8613 5.22461 36.709 6.31836C36.2793 6.72852 35.8203 6.91406 35.0195 6.99219L34.375 7.06055V7.8418V8.61328L35.332 8.57422C36.1426 8.54492 36.377 8.49609 36.8652 8.25195C37.6172 7.89062 38.3594 7.14844 38.7305 6.39648C38.9941 5.84961 39.0137 5.73242 39.0137 4.6875C39.0137 3.64258 38.9941 3.52539 38.7305 2.97852C38.3594 2.22656 37.6172 1.48438 36.8652 1.12305C36.3574 0.869141 36.1523 0.830078 35.3027 0.800781C34.5312 0.78125 34.2188 0.820312 33.8184 0.966797ZM6.81641 13.6621C7.77344 14.1602 8.39844 15.0781 8.47656 16.1133L8.51562 16.7578L7.16797 18.1055L5.82031 19.4531L5.17578 19.4141C4.14062 19.3359 3.21289 18.7109 2.72461 17.7539C2.46094 17.2461 2.37305 16.1523 2.5293 15.5566C2.76367 14.6777 3.66211 13.7402 4.53125 13.4766C5.05859 13.3105 6.34766 13.418 6.81641 13.6621ZM24.9023 13.5156C28.1152 13.916 31.1035 15.0098 33.6621 16.7285C34.7266 17.4414 36.2305 18.6133 36.2305 18.7402C36.2305 18.7695 29.834 25.1953 22.0215 33.0078C9.7168 45.3125 7.80273 47.1973 7.68555 47.0703C5.36133 44.5605 3.51562 40.8594 2.83203 37.3535C1.42578 30.0586 4.14062 22.5684 9.88281 17.8906C12.8223 15.498 16.5527 13.916 20.3125 13.4863C21.4844 13.3496 23.6914 13.3691 24.9023 13.5156ZM32.7539 26.7871C33.2422 28.3301 33.5449 28.8379 34.6484 30.0293C35.8691 31.3477 36.1133 32.0312 35.6152 32.832C35.3027 33.3496 33.7695 35.0586 33.623 35.0586C33.5449 35.0586 33.2227 34.9219 32.9004 34.7559C32.4316 34.5215 32.3242 34.4238 32.373 34.2969C33.0664 32.6465 32.9492 30.6445 32.0703 29.1895C31.7188 28.6035 30.8887 27.7246 30.4492 27.4609L30.1758 27.3047L31.1719 26.2988C31.7188 25.752 32.1973 25.3223 32.2363 25.3516C32.2754 25.3711 32.5098 26.0156 32.7539 26.7871ZM29.9609 29.248C30.7031 29.9121 31.0938 30.7617 31.1328 31.7969C31.1621 32.334 31.123 32.7734 31.0156 33.125C30.7812 33.8965 30.8105 33.8867 30.0293 33.7207C29.5215 33.6133 28.9355 33.5938 27.7832 33.623C25.957 33.6719 25.3125 33.8281 23.7402 34.5801C23.1836 34.8438 22.6562 35.0586 22.5684 35.0586C22.4805 35.0586 23.8867 33.5938 25.6738 31.7969C28.916 28.5547 28.9453 28.5254 29.1992 28.6621C29.3359 28.7305 29.6777 28.9941 29.9609 29.248ZM30.4199 35.5273C30.7422 35.625 31.4648 35.9375 32.0215 36.2207C33.0371 36.7188 33.0469 36.7188 33.9844 36.7188H34.9316L36.0254 36.1816C37.1387 35.6348 37.793 35.4102 38.6035 35.293L39.0625 35.2344V35.9668V36.6895L38.457 36.8066C38.1152 36.875 37.2852 37.1875 36.5918 37.5098C34.5703 38.4668 33.3887 38.4766 31.4746 37.5488C30.0098 36.8555 29.4824 36.7188 28.125 36.7188C26.7676 36.7188 26.2402 36.8555 24.7754 37.5488C23.5254 38.1543 22.8027 38.3008 21.6406 38.1738C21.0352 38.1152 19.9219 37.7441 19.9219 37.6074C19.9219 37.5684 20.1562 37.3145 20.4395 37.0312C20.918 36.5527 20.9863 36.5234 21.2305 36.6211C21.377 36.6699 21.8848 36.7188 22.3535 36.7188C23.2031 36.7188 23.2324 36.709 24.3262 36.1719C25.9863 35.3516 26.4941 35.2441 28.3203 35.293C29.4824 35.3223 29.9707 35.3711 30.4199 35.5273ZM42.0312 36.9629C45.127 37.7246 47.5586 38.9941 47.5586 39.8438C47.5586 40.5176 46.25 41.4062 44.1699 42.1289C37.9883 44.2676 25.5762 45.0684 15.3125 43.9746C14.4629 43.8867 13.7695 43.7891 13.7695 43.7598C13.7695 43.7207 14.2871 43.1738 14.9316 42.5391L16.084 41.3867L16.5039 41.4551C16.7285 41.4941 17.3535 41.7383 17.9004 41.9922C19.5898 42.8027 20.1562 42.9199 22.2656 42.9199C24.3848 42.9199 24.9512 42.8027 26.6602 41.9824C28.0176 41.3281 28.2324 41.3281 29.5898 41.9824C31.2988 42.8027 31.8652 42.9199 33.9844 42.9199C36.0938 42.9199 36.6602 42.8027 38.3789 41.9824C39.1406 41.6211 39.5605 41.4746 40.0195 41.4355L40.625 41.377V38.9941C40.625 36.7676 40.6348 36.6113 40.8008 36.6602C40.8887 36.6797 41.4453 36.8262 42.0312 36.9629ZM29.1016 38.4277C29.3457 38.457 30.0391 38.7207 30.6543 39.0137C32.0898 39.707 32.627 39.8438 33.9844 39.8438C35.332 39.8438 35.8691 39.707 37.3145 39.0234C37.9297 38.7305 38.5742 38.4668 38.75 38.4277L39.0625 38.3594V39.082L39.0527 39.7949L37.8613 40.3613C37.207 40.6641 36.4355 40.9863 36.1523 41.0742C34.9902 41.4062 32.959 41.4062 31.7773 41.0547C31.4648 40.9668 30.7324 40.6543 30.1367 40.3711L29.0723 39.8438H28.125H27.1777L26.1133 40.3711C25.5176 40.6543 24.7852 40.9668 24.4727 41.0547C23.2617 41.4062 21.2695 41.4062 20.0488 41.0547C19.7363 40.9668 19.043 40.6738 18.5156 40.4102L17.5488 39.9219L18.0859 39.3848L18.623 38.8477L19.3066 39.1895C20.293 39.6875 20.9961 39.8438 22.2656 39.8438C23.623 39.8438 24.1504 39.707 25.6152 39.0039C26.4941 38.584 26.9043 38.4473 27.4121 38.3887C28.0664 38.3203 28.252 38.3203 29.1016 38.4277ZM47.5684 43.0762C47.0215 44.8926 40.8105 46.6504 32.5195 47.3242C28.6523 47.6367 21.4453 47.6562 17.3828 47.3633C15.6836 47.2461 12.7441 46.9336 11.5918 46.748L10.8301 46.6309L11.5137 45.957L12.1973 45.2832L13.4961 45.4395C17.373 45.918 20.4199 46.0938 25.0391 46.0938C29.7559 46.0938 32.5977 45.9277 36.377 45.459C41.2793 44.8438 45.4297 43.7207 47.3145 42.5C47.6074 42.3145 47.6074 42.3145 47.6367 42.5195C47.6562 42.627 47.627 42.8809 47.5684 43.0762Z" fill="#FD9900"/>
<path d="M20.0195 15C18.9648 15.1465 17.0996 15.5762 16.9726 15.7129C16.9238 15.7519 17.0117 16.123 17.1484 16.5332C17.3437 17.1289 17.4414 17.2852 17.5683 17.2461C19.6093 16.6504 20.332 16.5527 22.6074 16.5625C24.4433 16.5625 24.7851 16.5918 25.8886 16.8262C26.5625 16.9629 27.5488 17.2461 28.0859 17.4316C29.541 17.959 29.3945 17.9883 29.746 17.168C29.9218 16.7773 30.0195 16.416 29.9804 16.3769C29.8339 16.2207 27.7441 15.5371 26.6601 15.3027C24.541 14.8242 22.1093 14.7168 20.0195 15Z" fill="#FD9900"/>
<path d="M31.2207 17.832C31.0254 18.1934 30.8594 18.5156 30.8594 18.5547C30.8594 18.623 32.0801 19.4336 32.1777 19.4336C32.1973 19.4336 32.4121 19.1406 32.666 18.7891C33.0566 18.2422 33.1055 18.125 32.998 18.0176C32.8418 17.8613 31.7285 17.1875 31.6406 17.1875C31.6113 17.1875 31.416 17.4805 31.2207 17.832Z" fill="#FD9900"/>
<path d="M5.28282 26.4356C5.1168 26.8457 4.99961 27.207 5.02891 27.2363C5.05821 27.2656 5.41954 27.4121 5.81993 27.5586C6.48399 27.793 6.56211 27.8027 6.61094 27.6563C6.64024 27.5684 6.77696 27.2363 6.90391 26.9141C7.03086 26.6016 7.12852 26.3281 7.09922 26.3086C7.03086 26.2402 5.76133 25.6836 5.67344 25.6836C5.63438 25.6836 5.44883 26.0254 5.28282 26.4356Z" fill="#FD9900"/>
<path d="M4.4534 28.877C4.4241 28.9746 4.33621 29.3457 4.25809 29.7168C4.13113 30.3613 4.13113 30.3711 4.33621 30.4199C5.17606 30.5957 5.68387 30.6738 5.72293 30.6348C5.79129 30.5762 6.0452 29.4922 6.05496 29.2773C6.05496 29.1602 5.89871 29.0723 5.54715 28.9648C4.55106 28.6816 4.51199 28.6816 4.4534 28.877Z" fill="#FD9900"/>
<path d="M3.90584 32.7637V33.6035L4.71638 33.5742L5.51716 33.5449L5.54646 32.8027L5.57576 32.0605L4.97029 31.9922C3.81795 31.875 3.90584 31.8164 3.90584 32.7637Z" fill="#FD9900"/>
<path d="M13.1543 37.4805L12.5977 38.0469L13.1836 38.623L13.7695 39.1992L14.3555 38.623L14.9414 38.0469L14.3848 37.4805C14.0723 37.168 13.7988 36.9141 13.7695 36.9141C13.7402 36.9141 13.4668 37.168 13.1543 37.4805Z" fill="#FD9900"/>
<path d="M11.0059 39.6289C10.7031 39.9414 10.4492 40.2344 10.4492 40.293C10.4492 40.3418 10.6934 40.625 10.9863 40.918L11.5234 41.4551L12.1387 40.8398L12.7441 40.2344L12.1582 39.6484L11.5723 39.0625L11.0059 39.6289Z" fill="#FD9900"/>
<path d="M8.74023 41.8945L8.16406 42.4805L8.74023 43.0664L9.31641 43.6523L9.93164 43.0469L10.5469 42.4414L9.99023 41.875C9.67773 41.5625 9.4043 41.3086 9.375 41.3086C9.3457 41.3086 9.0625 41.5723 8.74023 41.8945Z" fill="#FD9900"/>
<path d="M43.9746 9.56055C42.9492 9.94141 42.2168 10.6055 41.7187 11.6211C41.4746 12.1094 41.4551 12.2559 41.4551 13.2812C41.4551 14.3262 41.4746 14.4434 41.7383 14.9902C42.1094 15.7422 42.8516 16.4844 43.6035 16.8457C44.0918 17.0898 44.3262 17.1387 45.1367 17.168L46.0937 17.207V16.4355V15.6543L45.4492 15.5859C44.6484 15.5078 44.1895 15.3223 43.7598 14.9121C42.3047 13.5254 43.2812 11.0254 45.2832 11.0352C45.957 11.0352 46.5039 11.2695 46.9434 11.7285C47.4316 12.2461 47.5586 12.666 47.5586 13.7207C47.5586 15.4785 47.0703 17.002 46.1816 18.0078C45.957 18.2617 45.2637 18.9062 44.6387 19.4238C43.2129 20.6348 42.4316 21.4551 41.8555 22.3438C40.6348 24.2188 39.9805 26.8359 39.873 30.2441L39.8145 32.0312H40.6445H41.4746L41.5332 30.3418C41.6309 27.168 42.2363 24.7949 43.3594 23.1543C43.9648 22.2461 44.2969 21.9141 45.8105 20.6445C47.7344 19.0234 48.457 18.0176 48.9453 16.2402C49.1211 15.6055 49.1602 15.1953 49.1602 13.8184C49.1699 12.168 49.1699 12.1484 48.8867 11.5723C48.5156 10.8203 47.7734 10.0781 47.0215 9.7168C46.5137 9.46289 46.3086 9.42383 45.459 9.39453C44.6875 9.375 44.375 9.41406 43.9746 9.56055Z" fill="#FD9900"/>
</g>
<defs>
<clipPath id="clip0_1874_2011">
<rect width="50" height="50" fill="white"/>
</clipPath>
</defs>
</svg>
