<svg width="50" height="50" viewBox="0 0 50 50" fill="none" xmlns="http://www.w3.org/2000/svg">
<path d="M32.0309 2.08499C24.8122 3.22062 18.8747 4.14787 18.833 4.15829C18.7809 4.15829 18.6559 4.25205 18.5413 4.36666C18.333 4.57503 18.333 4.71047 18.333 13.9517V23.3285H19.1663H19.9997V14.5769V5.82526H34.1663H48.333V27.0791V48.333H43.7497H39.1663V49.1665V50H44.3747C49.4476 50 49.5934 49.9896 49.7913 49.7916C49.9997 49.5833 49.9997 49.4478 49.9997 27.0791C49.9997 4.71047 49.9997 4.57503 49.7913 4.36666C49.6038 4.17912 49.4476 4.15829 48.1247 4.15829H46.6663V2.28294C46.6663 0.543041 46.6559 0.397182 46.458 0.199226C46.3018 0.0429497 46.1247 -0.00914383 45.708 0.00127411C45.4059 0.011692 39.2497 0.938946 32.0309 2.08499ZM44.9997 3.01224V4.15829L37.7913 4.14787C33.8226 4.13745 30.6872 4.10619 30.833 4.08535C31.7913 3.91866 44.6663 1.88704 44.8226 1.87662C44.9788 1.8662 44.9997 1.9808 44.9997 3.01224Z" fill="#FD9900"/>
<path d="M15 14.1601V21.6615H15.8333H16.6667V14.1601V6.65876H15.8333H15V14.1601Z" fill="#FD9900"/>
<path d="M28.208 8.29446L27.6143 8.88832L28.9372 10.2531C29.6768 10.9929 30.3643 11.7951 30.4684 12.0243C30.6768 12.4619 30.7393 13.4308 30.5934 13.785C30.5205 13.9622 30.2288 13.7121 28.5101 11.9931L26.5101 9.99269L25.9059 10.597C25.583 10.9304 25.3122 11.2429 25.3122 11.295C25.3122 11.3471 26.1872 12.2744 27.2601 13.3475L29.1976 15.2853L28.7601 15.4103C28.2913 15.5354 27.7288 15.4729 27.2393 15.2332C27.0726 15.1499 26.3018 14.4623 25.5413 13.7121L24.1663 12.3369L23.5101 12.9932L22.8643 13.6496L24.3226 15.0874C25.9059 16.6397 26.4268 16.9835 27.5518 17.1919C28.3226 17.3274 29.1351 17.2336 29.9476 16.9106L30.5726 16.6606L31.7184 17.8066L32.8643 18.9527L29.083 22.7346C27.0101 24.8079 25.3122 26.5582 25.3122 26.6103C25.3122 26.7457 26.3747 27.8084 26.5101 27.8084C26.5726 27.8084 28.3122 26.1102 30.3851 24.0369L34.1663 20.255L37.9476 24.0369C40.0205 26.1102 41.7705 27.8084 41.8226 27.8084C41.958 27.8084 43.0205 26.7457 43.0205 26.6103C43.0205 26.5478 41.3226 24.8079 39.2497 22.7346L35.4684 18.9527L36.0518 18.3692C36.6247 17.8066 36.6455 17.7858 36.8851 17.9421C37.8122 18.5359 39.5101 18.5776 40.6976 18.015C41.6247 17.5878 43.458 15.775 43.8851 14.8686C44.8747 12.7849 44.0309 10.2427 42.0413 9.26339C40.7809 8.63827 39.5309 8.62785 38.2601 9.21129C37.5934 9.51343 35.8122 11.1804 35.3122 11.9722C34.6143 13.0766 34.4893 14.7436 35.0309 15.9417L35.2913 16.5355L34.7288 17.0877L34.1663 17.6503L33.0205 16.5043L31.8747 15.3582L32.1559 14.681C32.3955 14.108 32.4372 13.8476 32.4476 13.0141C32.4476 12.1077 32.4163 11.9618 32.1038 11.295C31.8226 10.7011 31.5101 10.3261 30.333 9.13836C29.5518 8.34655 28.8851 7.7006 28.8538 7.7006C28.8226 7.7006 28.5309 7.97148 28.208 8.29446ZM40.9372 10.8366C41.9163 11.2742 42.4372 12.0556 42.4372 13.0662C42.4372 13.9101 42.1976 14.3164 41.0726 15.4312C40.0622 16.4418 39.6455 16.6606 38.833 16.6606C37.083 16.6502 35.8955 14.7436 36.6768 13.212C36.9163 12.7432 38.0518 11.493 38.583 11.1075C39.3018 10.597 40.1768 10.4928 40.9372 10.8366Z" fill="#FD9900"/>
<path d="M17.8333 25.2142C16.7083 25.6518 15.8333 26.9229 15.8333 28.1106V28.6211L15.3958 28.694C15.1458 28.7357 14.3958 28.9441 13.7292 29.1629C9.20833 30.6423 5.5625 33.8095 3.4375 38.102C2.53125 39.9357 1.88542 42.2069 1.71875 44.1864L1.64583 44.9991H1.03125C0.28125 44.9991 0 45.2179 0 45.7805C0 46.3848 0.84375 49.5937 1.0625 49.8125C1.23958 49.9896 1.92708 50 19.1667 50C36.4062 50 37.0937 49.9896 37.2708 49.8125C37.4896 49.5937 38.3333 46.3848 38.3333 45.7805C38.3333 45.2179 38.0417 44.9991 37.3125 44.9991H36.6979L36.5729 43.8218C35.8021 37.0289 31.125 31.2987 24.6042 29.1629C23.9375 28.9441 23.1875 28.7357 22.9479 28.694L22.5 28.6211V28.1106C22.5 26.902 21.625 25.6414 20.4687 25.2142C19.6979 24.9225 18.5937 24.9225 17.8333 25.2142ZM19.9792 26.975C20.3646 27.2146 20.7292 27.7564 20.7292 28.0897C20.7292 28.3294 20.7187 28.3294 19.1667 28.3294C17.6146 28.3294 17.6042 28.3294 17.6042 28.0897C17.6042 27.7564 17.9687 27.2146 18.3542 26.975C18.8021 26.7041 19.5312 26.7041 19.9792 26.975ZM20.5833 30.1422C23 30.2881 25.6562 31.2466 28.0208 32.8198C29.3646 33.7054 31.2917 35.6536 32.2187 37.0289C33.6875 39.248 34.5833 41.7381 34.8437 44.2906L34.9167 44.9991H19.1667H3.41667L3.48958 44.2906C3.85417 40.6337 5.40625 37.3935 8.07292 34.7264C10.3333 32.4551 13.0208 30.9965 16.0937 30.361C16.9375 30.1839 18.8646 30.0172 19.4271 30.0693C19.6042 30.0797 20.1146 30.1109 20.5833 30.1422ZM36.3542 46.739C36.3542 46.7911 36.2604 47.1453 36.1667 47.5516L35.9792 48.2809H19.1667H2.35417L2.16667 47.5516C2.07292 47.1453 1.97917 46.7911 1.97917 46.739C1.97917 46.6973 9.71875 46.6661 19.1667 46.6661C28.625 46.6661 36.3542 46.6973 36.3542 46.739Z" fill="#FD9900"/>
<path d="M16.6146 31.8404C13.4479 32.403 10.1667 34.32 8.22917 36.7372C7.55208 37.5706 6.875 38.5708 6.875 38.7167C6.875 38.8209 8.13542 39.5814 8.30208 39.5814C8.36458 39.5814 8.61458 39.2689 8.86458 38.873C9.52083 37.8624 11.2292 36.1745 12.3333 35.4661C14.1042 34.3096 16.1042 33.622 18.1458 33.4449C19.1875 33.3615 21 33.4553 21.6667 33.6428C22.3125 33.82 22.3437 33.8095 22.5521 32.9656C22.6667 32.4864 22.7083 32.1426 22.6458 32.08C22.2604 31.6946 18.2812 31.5383 16.6146 31.8404Z" fill="#FD9900"/>
<path d="M5.68783 41.3317C5.54199 41.7693 5.41699 42.186 5.41699 42.2485C5.41699 42.3527 7.05241 42.7903 7.11491 42.6965C7.18783 42.5923 7.61491 41.1233 7.58366 41.0921C7.51074 41.0191 6.20866 40.519 6.08366 40.519C6.01074 40.519 5.83366 40.8837 5.68783 41.3317Z" fill="#FD9900"/>
<path d="M31.667 30.8298V31.6633H37.0837H42.5003V30.8298V29.9964H37.0837H31.667V30.8298Z" fill="#FD9900"/>
<path d="M44.167 30.8298V31.6633H45.0003H45.8337V30.8298V29.9964H45.0003H44.167V30.8298Z" fill="#FD9900"/>
<path d="M35 34.1638V34.9973H38.75H42.5V34.1638V33.3303H38.75H35V34.1638Z" fill="#FD9900"/>
<path d="M44.167 34.1638V34.9973H45.0003H45.8337V34.1638V33.3303H45.0003H44.167V34.1638Z" fill="#FD9900"/>
<path d="M37.5 37.4977V38.3312H40H42.5V37.4977V36.6642H40H37.5V37.4977Z" fill="#FD9900"/>
<path d="M44.167 37.4977V38.3312H45.0003H45.8337V37.4977V36.6642H45.0003H44.167V37.4977Z" fill="#FD9900"/>
</svg>
