<svg width="50" height="50" viewBox="0 0 50 50" fill="none" xmlns="http://www.w3.org/2000/svg">
<g clip-path="url(#clip0_1875_2027)">
<path d="M21.8262 0.195312C17.5 0.859375 13.5059 2.83203 10.3711 5.84961C9.51172 6.67969 9.22852 7.30469 9.22852 8.39844C9.23828 9.44336 9.48242 10.0586 10.166 10.6934C10.8887 11.3672 11.3965 11.5625 12.4023 11.5625C13.4766 11.5625 13.8477 11.3965 15 10.3809C16.1426 9.375 16.7578 8.91602 17.832 8.31055C18.9453 7.66602 20.4492 7.08008 21.8164 6.75781C22.8125 6.51367 23.0664 6.49414 25 6.49414C26.9336 6.49414 27.1875 6.51367 28.1836 6.75781C29.5508 7.08008 31.0547 7.66602 32.168 8.31055C33.2422 8.91602 33.8574 9.375 35 10.3809C36.1523 11.3965 36.5234 11.5625 37.5977 11.5625C38.6035 11.5625 39.1113 11.3672 39.834 10.6934C40.5176 10.0586 40.7715 9.44336 40.7715 8.39844C40.7715 7.30469 40.4883 6.67969 39.6289 5.84961C36.3281 2.67578 32.1191 0.673828 27.5391 0.107422C26.2207 -0.0585938 23.1836 -0.00976562 21.8262 0.195312ZM26.5234 2.08984C29.043 2.2168 32.168 3.19336 34.5996 4.62891C36.5527 5.77148 38.6133 7.54883 38.7305 8.17383C38.8965 9.0332 37.9102 9.84375 37.1875 9.46289C37.0703 9.4043 36.5918 9.01367 36.1328 8.60352C33.8867 6.62109 31.2793 5.3125 28.3203 4.66797C27.4219 4.47266 27.0215 4.45312 25 4.45312C22.9785 4.45312 22.5781 4.47266 21.6797 4.66797C18.7305 5.3125 16.1035 6.63086 13.8672 8.60352C13.4082 9.01367 12.9297 9.4043 12.8125 9.46289C12.0898 9.84375 11.1035 9.0332 11.2695 8.17383C11.3184 7.91992 11.5234 7.65625 12.1094 7.08984C15.1562 4.17969 19.4727 2.31445 23.75 2.06055C24.4141 2.02148 25.0879 2.00195 25.2441 2.02148C25.4102 2.03125 25.9863 2.06055 26.5234 2.08984Z" fill="#FD9900"/>
<path d="M22.9001 9.04297C21.7087 9.25781 20.6247 9.61914 19.5407 10.1562C17.9099 10.9766 16.2497 12.3437 15.82 13.2227C15.4196 14.0625 15.3903 15.1758 15.7517 16.0449C15.9665 16.543 16.6599 17.2559 17.236 17.5586C17.6657 17.793 17.8317 17.8223 18.7009 17.8223C19.8142 17.8223 20.2146 17.6758 20.9763 16.9727C21.6013 16.4062 22.4899 15.8594 23.2224 15.6055C24.1599 15.2832 25.8396 15.2832 26.7771 15.6055C27.5095 15.8594 28.3981 16.4062 29.0231 16.9727C29.7067 17.5977 30.2048 17.8027 31.1618 17.8516C31.9235 17.8906 32.0603 17.8711 32.6071 17.627C33.2712 17.3242 34.0036 16.6211 34.238 16.0449C34.6091 15.1758 34.5798 14.0625 34.1794 13.2227C33.5739 11.9922 31.0446 10.2148 28.8474 9.48242C27.0896 8.90625 24.6872 8.7207 22.9001 9.04297ZM27.0114 11.123C28.1149 11.3477 29.3747 11.8555 30.3415 12.4609C31.2985 13.0566 32.3044 13.9941 32.4021 14.3945C32.5974 15.1074 32.0505 15.8203 31.3083 15.8203C30.9372 15.8203 30.8005 15.752 30.2146 15.2539C28.4567 13.7891 26.8454 13.2227 24.6579 13.3105C22.7829 13.3789 21.3474 13.9551 19.8044 15.2441C19.1989 15.752 19.072 15.8203 18.6911 15.8203C17.9489 15.8203 17.4021 15.1074 17.5974 14.3945C17.7731 13.7012 19.6286 12.3145 21.2497 11.6504C22.9978 10.9375 25.1657 10.7422 27.0114 11.123Z" fill="#FD9900"/>
<path d="M24.3457 17.8711C23.3984 18.0664 22.5195 18.7402 22.0996 19.6094C21.8652 20.0977 21.8262 20.2832 21.8262 21.0449C21.8262 21.8555 21.8555 21.9727 22.168 22.5391C22.7539 23.6328 23.7305 24.2188 24.9805 24.2188C26.25 24.2188 27.2266 23.6523 27.8223 22.5586C28.1543 21.9629 28.1738 21.8652 28.1738 21.0449C28.1738 20.2832 28.1348 20.0977 27.9004 19.6094C27.2754 18.3398 25.7324 17.5879 24.3457 17.8711ZM25.4395 19.9609C25.8105 20.1172 26.1719 20.625 26.1719 20.9766C26.1719 21.6016 25.6152 22.168 25 22.168C24.3848 22.168 23.8281 21.6016 23.8281 20.9766C23.8281 20.6348 24.1895 20.127 24.541 19.9707C24.9414 19.7949 25.0293 19.7949 25.4395 19.9609Z" fill="#FD9900"/>
<path d="M3.39844 27.9199C1.85547 28.418 0.664062 29.6094 0.195312 31.1328C0.00976562 31.7285 0 32.0508 0 38.8672C0 45.6836 0.00976562 46.0059 0.195312 46.6016C0.664062 48.125 1.875 49.3359 3.4082 49.8047C4.01367 50 4.42383 50 25 50C45.5762 50 45.9863 50 46.5918 49.8047C48.125 49.3359 49.3359 48.125 49.8047 46.6016C49.9902 46.0059 50 45.6836 50 38.8672C50 32.0508 49.9902 31.7285 49.8047 31.1328C49.3359 29.6094 48.125 28.3984 46.5918 27.9297C45.9961 27.7441 45.6445 27.7344 37.4512 27.7344H28.9355L28.6719 27.9883C28.3105 28.3594 28.3105 29.0625 28.6719 29.4238L28.9258 29.6777L37.2852 29.707C46.6699 29.7461 46.123 29.6973 46.9922 30.459C47.5195 30.9277 47.832 31.5527 47.959 32.3535C48.0176 32.7246 48.0469 35.4688 48.0273 39.3164C47.998 44.4336 47.9688 45.7227 47.8613 45.9961C47.5098 46.875 46.8066 47.5586 45.9473 47.8613C45.6152 47.9785 42.334 47.998 25 47.998C7.66602 47.998 4.38477 47.9785 4.05273 47.8613C3.16406 47.5488 2.45117 46.8359 2.13867 45.9473C2.03125 45.625 2.00195 44.3359 2.00195 38.8672C2.00195 32.6758 2.01172 32.1387 2.17773 31.6699C2.5293 30.6738 3.4082 29.9707 4.56055 29.7852C4.88281 29.7266 8.52539 29.6875 13.0957 29.6875H21.0645L21.3281 29.4336C21.6895 29.0625 21.6895 28.3594 21.3281 27.9883L21.0645 27.7344L12.5098 27.7441C4.51172 27.7441 3.91602 27.7539 3.39844 27.9199Z" fill="#FD9900"/>
<path d="M24.2773 27.9883C24.0723 28.1934 24.0234 28.3398 24.0234 28.7109C24.0234 29.082 24.0723 29.2285 24.2773 29.4336C24.4824 29.6387 24.6289 29.6875 25 29.6875C25.3711 29.6875 25.5176 29.6387 25.7227 29.4336C25.9277 29.2285 25.9766 29.082 25.9766 28.7109C25.9766 28.3398 25.9277 28.1934 25.7227 27.9883C25.5176 27.7832 25.3711 27.7344 25 27.7344C24.6289 27.7344 24.4824 27.7832 24.2773 27.9883Z" fill="#FD9900"/>
<path d="M12.0801 34.1797C11.9336 34.2969 11.7969 34.5215 11.7676 34.6973C11.7285 34.9121 11.9824 36.3867 12.5098 39.0625C13.3008 43.0469 13.3203 43.125 13.6328 43.4277C13.9063 43.7109 14.0137 43.75 14.4434 43.75C15.3027 43.75 15.4004 43.5938 16.25 40.8691C16.6504 39.5801 17.002 38.5938 17.0313 38.6719C17.0606 38.75 17.3926 39.8047 17.7637 41.0156C18.3496 42.9199 18.4863 43.252 18.75 43.4766C19.1797 43.8672 19.8926 43.8672 20.3223 43.4766C20.625 43.2129 20.6348 43.1348 21.4453 39.1113C22.3438 34.6484 22.3633 34.4922 21.8262 34.1406C21.4356 33.8867 20.8301 33.9355 20.5176 34.248C20.2832 34.4922 20.2051 34.7461 19.834 36.6211C19.6094 37.7734 19.4043 38.7891 19.375 38.8672C19.3262 38.9941 18.7598 37.2852 18.1055 35.0781C18.0273 34.7949 17.8418 34.4336 17.7051 34.2773C17.5 34.0234 17.3926 33.9844 16.9922 33.9844C16.2305 33.9844 16.1816 34.0625 15.4199 36.5234C15.0488 37.7344 14.7168 38.7891 14.6777 38.8672C14.6484 38.9453 14.4141 37.9785 14.1602 36.7188C13.7402 34.6484 13.6719 34.4141 13.4375 34.209C13.0957 33.916 12.4316 33.9062 12.0801 34.1797Z" fill="#FD9900"/>
<path d="M24.7949 34.2676L24.5117 34.5508V38.8672V43.1836L24.7949 43.4668C25.0195 43.6914 25.166 43.75 25.4883 43.75C25.9961 43.75 26.2305 43.623 26.416 43.2617C26.543 43.0273 26.5625 42.3437 26.5625 38.8672C26.5625 35.3906 26.543 34.707 26.416 34.4727C26.2305 34.1113 25.9961 33.9844 25.4883 33.9844C25.166 33.9844 25.0195 34.043 24.7949 34.2676Z" fill="#FD9900"/>
<path d="M29.0918 34.2676L28.8086 34.5508V38.8672V43.1836L29.0918 43.4668C29.4922 43.8672 30.0488 43.8672 30.4883 43.4668L30.8105 43.1836L30.8398 41.5137L30.8691 39.8437H31.8262C32.3535 39.8437 32.9199 39.7949 33.0859 39.7363C33.4766 39.5996 33.6914 39.2578 33.6914 38.7695C33.6914 38.4473 33.6328 38.3008 33.4082 38.0762C33.125 37.793 33.1055 37.793 31.9922 37.793H30.8594V36.9238V36.0547L32.1191 36.0156C33.3008 35.9863 33.3984 35.9668 33.6328 35.752C33.9453 35.459 34.0527 34.9609 33.8867 34.5605C33.6621 34.043 33.418 33.9844 31.2988 33.9844H29.375L29.0918 34.2676Z" fill="#FD9900"/>
<path d="M36.5137 34.2676L36.2305 34.5508V38.8672V43.1836L36.5137 43.4668C36.7383 43.6914 36.8848 43.75 37.207 43.75C37.7148 43.75 37.9492 43.623 38.1348 43.2617C38.2617 43.0273 38.2812 42.3437 38.2812 38.8672C38.2812 35.3906 38.2617 34.707 38.1348 34.4727C37.9492 34.1113 37.7148 33.9844 37.207 33.9844C36.8848 33.9844 36.7383 34.043 36.5137 34.2676Z" fill="#FD9900"/>
</g>
<defs>
<clipPath id="clip0_1875_2027">
<rect width="50" height="50" fill="white"/>
</clipPath>
</defs>
</svg>
