<svg width="50" height="50" viewBox="0 0 50 50" fill="none" xmlns="http://www.w3.org/2000/svg">
<path d="M22.3249 0.185781C21.4478 0.589054 20.9639 1.3956 20.9639 2.43403C20.9739 3.86564 21.9418 4.8335 23.3836 4.8335C24.8354 4.8335 25.8033 3.86564 25.8033 2.41386C25.8033 1.36535 25.2689 0.528563 24.3716 0.155536C23.8473 -0.0662637 22.829 -0.0461001 22.3249 0.185781ZM23.8877 1.90977C23.9986 2.02067 24.0893 2.24247 24.0893 2.41386C24.0893 2.58525 23.9986 2.80705 23.8877 2.91795C23.7768 3.02885 23.555 3.11959 23.3836 3.11959C23.2122 3.11959 22.9904 3.02885 22.8795 2.91795C22.7686 2.80705 22.6778 2.58525 22.6778 2.41386C22.6778 2.24247 22.7686 2.02067 22.8795 1.90977C22.9904 1.79887 23.2122 1.70814 23.3836 1.70814C23.555 1.70814 23.7768 1.79887 23.8877 1.90977Z" fill="#FD9900"/>
<path d="M28.4144 1.01249C28.2128 1.21413 28.2128 1.30487 28.243 3.20025C28.2834 5.17628 28.2834 5.18636 28.6161 5.98283C28.8984 6.66839 28.9488 6.91035 28.9891 7.89837C29.0194 8.51336 29.0597 9.11827 29.0899 9.24933C29.1202 9.42072 29.463 9.63244 30.6224 10.2172C32.4473 11.1346 32.9514 11.2859 34.0705 11.2859C34.9779 11.2859 35.734 11.1145 36.4398 10.7616C36.8733 10.5297 39.1922 8.8259 39.3938 8.58393C39.5854 8.34197 39.545 7.68665 39.3232 7.46485C39.2123 7.35395 38.8695 7.22289 38.5368 7.15232C37.5286 6.95068 37.5488 6.98093 38.0731 6.55749C39.4039 5.50898 40.3113 3.60352 40.3214 1.87953C40.3214 0.881431 40.2105 0.800776 38.8796 0.800776C36.6717 0.800776 34.6855 1.65773 33.1933 3.25066L32.5783 3.91606L32.296 3.34139C31.4996 1.69806 29.1404 0.286604 28.4144 1.01249ZM38.4663 2.8373C38.3554 3.42205 37.9017 4.21851 37.3371 4.82342C36.7523 5.45857 36.0264 5.89209 34.9375 6.24495C34.0806 6.52724 33.8688 6.7188 33.8688 7.25313C33.8688 7.9387 34.0402 8.02943 35.9054 8.37222C36.5406 8.4932 36.5809 8.51336 36.4297 8.67467C36.349 8.76541 35.9962 8.99729 35.6534 9.17876C35.0686 9.50138 34.9678 9.52154 34.0705 9.52154H33.1127L31.8928 8.92671L30.6627 8.34197L30.6224 7.21281C30.5821 6.25503 30.5317 5.98283 30.2595 5.33759C29.9368 4.54113 29.715 3.11959 29.9167 3.11959C30.078 3.11959 30.6224 3.84548 30.8442 4.35965C30.9551 4.6117 31.1366 5.23677 31.2374 5.75094C31.4794 6.90027 31.5197 7.03133 31.7617 7.15232C31.9633 7.26322 32.4574 7.28338 32.7094 7.19264C32.8001 7.15232 33.0623 6.70872 33.3042 6.20463C33.8285 5.10571 34.3729 4.39998 35.1896 3.78499C36.1272 3.07926 37.4278 2.54493 38.2445 2.52477C38.5167 2.51468 38.5268 2.53485 38.4663 2.8373Z" fill="#FD9900"/>
<path d="M16.0034 4.17825C15.2271 4.46054 14.4608 5.1461 14.0172 5.93249C13.9466 6.04339 13.6845 6.0333 12.3537 5.84175C11.4866 5.72077 10.7204 5.64011 10.6397 5.67036C10.5288 5.72077 10.3776 6.54748 10.3574 7.22296C10.3574 7.27337 10.7103 7.35402 11.1438 7.41451C11.5874 7.475 12.3335 7.5859 12.8074 7.65648L13.6845 7.77746L13.745 8.22106C13.7752 8.46302 13.9164 8.88646 14.0575 9.16875C14.5818 10.2072 15.1968 10.6609 16.7293 11.1448C18.4231 11.6791 19.7237 12.4756 20.9234 13.7156C21.8107 14.6432 22.0022 14.9355 23.2726 17.2342C23.8472 18.2625 24.3816 19.1598 24.4723 19.2203C24.7345 19.432 25.3696 19.3816 25.6116 19.1397C25.8132 18.938 25.8233 18.8674 25.783 15.8933C25.7427 12.9998 25.7225 12.7982 25.4704 11.8707C24.9462 9.90472 24.1699 8.31179 23.0104 6.84993C21.5384 4.9848 19.5825 4.01694 17.3443 4.03711C16.7898 4.03711 16.2151 4.0976 16.0034 4.17825ZM19.0986 6.05347C20.6613 6.62813 21.8812 7.88836 22.9499 10.0257C23.6456 11.4069 24.0287 12.8889 24.1194 14.5726L24.1497 15.1977L23.6758 14.4214C22.1635 11.9816 20.1068 10.4088 17.2132 9.4712C15.9026 9.04776 15.3985 8.51343 15.3985 7.55566C15.3985 6.99108 15.59 6.57772 16.074 6.16437C16.4067 5.86191 16.5579 5.80142 17.0822 5.72077C17.4653 5.66028 18.5037 5.83167 19.0986 6.05347Z" fill="#FD9900"/>
<path d="M4.58081 5.02505C3.70367 5.42832 3.21973 6.23486 3.21973 7.27329C3.22981 8.70491 4.19769 9.67276 5.63942 9.67276C7.09124 9.67276 8.05912 8.70491 8.05912 7.25313C8.05912 6.20462 7.52477 5.36783 6.62747 4.9948C6.1032 4.773 5.08491 4.79316 4.58081 5.02505ZM6.14353 6.74904C6.57706 7.18255 6.25443 7.95885 5.63942 7.95885C5.2563 7.95885 4.93368 7.63623 4.93368 7.25313C4.93368 6.87002 5.2563 6.5474 5.63942 6.5474C5.81082 6.5474 6.03262 6.63814 6.14353 6.74904Z" fill="#FD9900"/>
<path d="M42.2066 5.76102C42.1159 5.83159 41.1379 7.83787 40.039 10.2172L38.0427 14.5423L36.974 14.5221C34.9576 14.4818 33.778 14.996 32.2153 16.5788C29.846 18.9581 27.4465 22.1036 25.7123 25.0677L25.2889 25.8037H14.0575C2.94703 25.8037 2.81596 25.8037 2.61432 26.0053C2.25137 26.3682 2.35219 28.8181 2.82604 31.1974C3.65277 35.3511 5.72968 39.283 8.7543 42.3782C10.68 44.3441 12.6964 45.816 14.9447 46.8746L16.1142 47.4291V48.5079C16.1243 49.4556 16.1545 49.627 16.3259 49.7984C16.5276 50 16.6586 50 24.9965 50C33.3344 50 33.4655 50 33.6671 49.7984C33.8385 49.627 33.8687 49.4556 33.8788 48.5079V47.4291L35.1693 46.8041C37.5084 45.6648 39.3231 44.334 41.2791 42.3277C45.1405 38.3555 47.3585 33.2239 47.5501 27.8603C47.6106 26.2977 47.6005 26.2271 47.3888 26.0154C47.1771 25.8037 47.1166 25.8037 43.5475 25.8037H39.9281L40.8052 24.9165C42.2873 23.4344 42.7914 22.1843 42.7208 20.2083C42.6905 19.5933 42.6401 19.0287 42.6099 18.948C42.5595 18.827 43.2652 18.5246 46.0882 17.4358C48.0441 16.6897 49.7177 16.0041 49.8186 15.9033C49.9295 15.7924 50 15.5706 50 15.3387C50 14.996 49.8387 14.7338 48.6894 13.2014C47.9635 12.2335 47.3182 11.4068 47.2476 11.3665C47.1771 11.3262 46.9653 11.2859 46.7536 11.2859C46.3806 11.2859 46.3907 11.2758 44.6565 12.6368C44.3037 12.9191 44.0516 13.0804 44.102 12.9998C44.1524 12.9191 44.959 11.8605 45.8866 10.6507C47.3283 8.7654 47.5803 8.39237 47.5803 8.08992C47.5803 7.89836 47.54 7.6564 47.4795 7.55558C47.3585 7.3237 43.1644 5.64004 42.7107 5.64004C42.5292 5.64004 42.2973 5.70053 42.2066 5.76102ZM44.3541 8.00926C44.8784 8.22098 45.322 8.40245 45.3421 8.42262C45.4228 8.47303 40.0793 15.3186 39.9583 15.3186C39.8877 15.3186 39.797 15.2682 39.7667 15.2178C39.676 15.0766 43.1644 7.5455 43.2955 7.59591C43.3459 7.61607 43.8298 7.80762 44.3541 8.00926ZM47.6509 14.9556C47.409 15.1169 41.884 17.2039 41.8033 17.1635C41.763 17.1333 42.8317 16.2663 44.1726 15.2178L46.6125 13.3224L47.1972 14.0886C47.6207 14.6633 47.7417 14.8851 47.6509 14.9556ZM38.5367 16.5586C39.3433 16.9216 40.2204 17.7886 40.6338 18.6254C40.9262 19.2202 40.9766 19.4219 41.0068 20.2587C41.0472 21.3475 40.8657 22.0431 40.3313 22.8194C40.0289 23.253 37.71 25.5113 37.4882 25.5919C37.4277 25.6121 36.9034 25.1584 36.3288 24.5838L35.2802 23.5352L34.6551 24.1704L34.02 24.7955L34.5241 25.2996L35.0181 25.8037H31.1567H27.2952L27.5271 25.4205C28.4849 23.8377 30.0275 21.6802 31.2877 20.178L31.9027 19.4521L32.9815 20.5309L34.0704 21.6197L34.6955 20.9846L35.3306 20.3595L34.2216 19.2505L33.1227 18.1415L33.5663 17.6777C34.6551 16.5586 35.4819 16.2159 36.9438 16.2562C37.7705 16.2864 38.0528 16.3368 38.5367 16.5586ZM45.8664 27.8906C45.8563 28.798 45.3018 32.0241 45.0901 32.3871C45.0598 32.4375 44.2533 31.7015 43.3056 30.7538C40.9665 28.435 41.2891 28.4249 38.8896 30.8143L37.095 32.5988L35.3004 30.8143C32.8908 28.4249 33.2336 28.4249 30.824 30.8143L29.0293 32.5988L27.2347 30.8143C25.4603 29.05 25.43 29.0298 24.9965 29.0298C24.563 29.0298 24.5327 29.05 22.7583 30.8143L20.9637 32.5988L19.1691 30.8143C16.7595 28.4249 17.1023 28.4249 14.6926 30.8143L12.898 32.5988L11.1034 30.8143C8.70389 28.4249 9.02652 28.435 6.68748 30.7538C5.73976 31.7015 4.9332 32.4375 4.90295 32.3871C4.69123 32.0241 4.13671 28.798 4.12663 27.8906V27.4167H24.9965H45.8664V27.8906ZM10.68 32.9113C13.0694 35.2806 12.7266 35.2806 15.1363 32.8912L16.9309 31.1067L18.7255 32.8912C21.1351 35.2806 20.7923 35.2806 23.2019 32.8912L24.9965 31.1067L26.7911 32.8912C28.5656 34.6555 28.5958 34.6756 29.0293 34.6756C29.4629 34.6756 29.4931 34.6555 31.2676 32.8912L33.0622 31.1067L34.8568 32.8912C37.2664 35.2806 36.9236 35.2806 39.3332 32.8912L41.1278 31.0966L42.741 32.7097C43.6282 33.5969 44.3541 34.3934 44.3541 34.474C44.3541 34.7261 43.1342 37.065 42.5191 38.0026C40.2406 41.4607 37.0345 44.1828 33.4453 45.7253C32.2354 46.2395 32.2556 46.2193 32.2556 47.3989V48.3869H24.9965H17.7374V47.3989C17.7374 46.2092 17.7677 46.2496 16.457 45.6749C12.8779 44.1021 9.81292 41.5111 7.58478 38.164C6.88912 37.1255 5.63894 34.7563 5.63894 34.4841C5.63894 34.3429 8.73414 31.147 8.8652 31.147C8.88537 31.147 9.70202 31.9435 10.68 32.9113Z" fill="#FD9900"/>
<path d="M37.0444 18.5447L36.4395 19.1496L37.6795 20.3897L38.9096 21.6197L39.5346 20.9845L40.1698 20.3595L38.96 19.1496C38.2946 18.4842 37.73 17.9398 37.6997 17.9398C37.6695 17.9398 37.3771 18.212 37.0444 18.5447Z" fill="#FD9900"/>
<path d="M1.52541 11.8504C0.920488 12.5158 0.355892 13.6046 0.134087 14.512C-0.0978007 15.4294 -0.0171441 17.3449 0.285318 18.212C0.940653 20.0469 2.37231 21.4886 4.25765 22.2044C5.02389 22.4968 5.1852 22.5169 6.39505 22.5169C7.50408 22.527 7.81662 22.4867 8.41147 22.2951C9.28861 22.0027 10.2968 21.418 10.8614 20.8635C11.2042 20.5207 11.2849 20.3695 11.2849 20.067C11.2849 19.7243 11.0731 19.4924 7.07055 15.5C2.87641 11.2959 2.86633 11.2858 2.44288 11.2858C2.05976 11.2858 1.97911 11.3362 1.52541 11.8504ZM3.47125 14.3103L4.37864 15.2177H3.04781C1.72705 15.2177 1.72705 15.2177 1.77746 14.9858C1.85812 14.6632 2.4328 13.403 2.50337 13.403C2.5437 13.403 2.97723 13.8062 3.47125 14.3103ZM3.47125 17.839C2.97723 18.333 2.5437 18.7463 2.50337 18.7463C2.4328 18.7463 1.85812 17.4861 1.77746 17.1534C1.72705 16.9316 1.72705 16.9316 3.04781 16.9316H4.37864L3.47125 17.839ZM5.6389 19.4621V20.7828L5.31627 20.7224C5.13479 20.6921 4.69118 20.5207 4.33831 20.3493L3.70314 20.0368L4.64077 19.0891C5.16504 18.5648 5.59857 18.1414 5.60865 18.1414C5.62882 18.1414 5.6389 18.7362 5.6389 19.4621ZM8.88532 20.1779C8.57278 20.3897 7.61498 20.7627 7.40326 20.7627C7.28227 20.7627 7.25203 20.5308 7.25203 19.4319V18.091L8.20982 19.0488L9.15754 19.9965L8.88532 20.1779Z" fill="#FD9900"/>
<path d="M16.6785 18.7363C15.8013 19.1396 15.3174 19.9461 15.3174 20.9846C15.3275 22.4162 16.2953 23.384 17.7371 23.384C19.1889 23.384 20.1568 22.4162 20.1568 20.9644C20.1568 19.9159 19.6224 19.0791 18.7251 18.7061C18.2009 18.4843 17.1826 18.5044 16.6785 18.7363ZM18.2412 20.4603C18.3521 20.5712 18.4428 20.793 18.4428 20.9644C18.4428 21.1358 18.3521 21.3576 18.2412 21.4685C18.1303 21.5794 17.9085 21.6701 17.7371 21.6701C17.5657 21.6701 17.3439 21.5794 17.233 21.4685C17.1221 21.3576 17.0313 21.1358 17.0313 20.9644C17.0313 20.793 17.1221 20.5712 17.233 20.4603C17.3439 20.3494 17.5657 20.2587 17.7371 20.2587C17.9085 20.2587 18.1303 20.3494 18.2412 20.4603Z" fill="#FD9900"/>
</svg>
