<svg width="66" height="66" viewBox="0 0 66 66" fill="none" xmlns="http://www.w3.org/2000/svg">
<g clip-path="url(#clip0_3220_630)">
<path d="M66 48.4124V0H64.0619C59.5781 4.10592 56.8232 9.82279 56.3929 15.8568C54.0593 12.6788 51.093 9.98766 47.6827 7.982C43.249 5.37436 38.1718 3.99609 33 3.99609C28.9418 3.99609 25.0154 4.81826 21.3302 6.43964C18.46 7.70241 15.8466 9.39946 13.5352 11.4968V0H11.6016V9.80023H9.66797V0H7.73438V9.80023H5.80078V0H3.86719V9.80023H1.93359V0H0V12.7006C0 15.3289 1.52818 17.7055 3.86719 18.8157V25.2161H1.93359V61.166C1.93359 63.8315 4.10205 66 6.76758 66C9.4331 66 11.6016 63.8315 11.6016 61.166V52.5749C14.0035 55.1943 16.8896 57.3804 20.0556 58.962C24.0963 60.9805 28.4514 62.0039 33 62.0039C38.1717 62.0039 43.249 60.6256 47.6828 58.018C51.0636 56.0296 54.0077 53.3673 56.332 50.2254V61.166C56.332 63.8315 58.5005 66 61.166 66C63.8315 66 66 63.8315 66 61.166V50.346H64.0664V61.166C64.0664 62.7652 62.7654 64.0664 61.166 64.0664C59.5667 64.0664 58.2656 62.7652 58.2656 61.166V38.7594H64.0664V48.4125H66V48.4124ZM1.93359 12.7006V11.7338H11.6016V12.7006C11.6016 14.7453 10.6333 16.9913 7.73438 17.4864V25.216H5.80078V17.4864C3.00596 17.2134 1.93359 14.7453 1.93359 12.7006ZM9.66797 61.166C9.66797 62.7652 8.36692 64.0664 6.76758 64.0664C5.16824 64.0664 3.86719 62.7652 3.86719 61.166V27.1778H9.66797V61.166ZM60.1992 36.8258H56.332V46.7337C51.476 54.9643 42.553 60.0703 33 60.0703C24.5951 60.0703 16.8077 56.2632 11.6348 49.6252L11.6016 49.6511V25.216H9.66797V18.8155C11.4828 17.9542 12.8089 16.33 13.3123 14.4175C18.4751 8.98812 25.5078 5.92969 33 5.92969C42.553 5.92969 51.476 11.0357 56.332 19.2665V29.6145L60.1992 32.5339V36.8258ZM62.1328 36.8258V31.5709L58.2656 28.6516V17.5315C58.2656 12.0454 60.3637 6.72401 64.0664 2.71154V36.8258H62.1328Z" fill="#FD9900" stroke="#FD9900" stroke-width="0.2"/>
<path d="M33 13.664C25.5985 13.5899 18.5111 18.1355 15.457 24.8579L17.2105 25.6729C20.0556 19.5524 26.2534 15.5976 33 15.5976C42.5957 15.5976 50.4023 23.4043 50.4023 32.9999C50.4023 42.5956 42.5957 50.4023 33 50.4023C23.4043 50.4023 15.5977 42.5956 15.5977 32.9999C15.5977 31.1197 15.8956 29.2707 16.483 27.5044L14.6483 26.8941C13.9951 28.8576 13.6641 30.9119 13.6641 32.9999C13.6641 43.6618 22.3382 52.3359 33 52.3359C43.6618 52.3359 52.3359 43.6618 52.3359 32.9999C52.3359 22.3381 43.6618 13.664 33 13.664Z" fill="#FD9900" stroke="#FD9900" stroke-width="0.2"/>
<path d="M24.96 22.1067L23.8127 20.5503C22.0949 21.8165 20.6787 23.403 19.6035 25.2654L21.278 26.2322C22.2193 24.6021 23.4581 23.2139 24.96 22.1067Z" fill="#FD9900" stroke="#FD9900" stroke-width="0.2"/>
<path d="M27.7073 18.4644C27.0527 18.7024 26.4083 18.9873 25.792 19.311L26.6915 21.0228C27.2311 20.7393 27.7952 20.4899 28.3681 20.2815L27.7073 18.4644Z" fill="#FD9900" stroke="#FD9900" stroke-width="0.2"/>
</g>
<defs>
<clipPath id="clip0_3220_630">
<rect width="66" height="66" fill="white"/>
</clipPath>
</defs>
</svg>
