<svg width="60" height="60" viewBox="0 0 60 60" fill="none" xmlns="http://www.w3.org/2000/svg">
<path d="M20.2251 29.075H8.50006C8.70006 17.4 11 15.475 18.175 11.225C19 10.725 19.275 9.67503 18.775 8.82503C18.275 8.00003 17.225 7.72506 16.375 8.22506C7.92497 13.2251 4.97498 16.275 4.97498 30.825V44.3C4.97498 48.575 8.45004 52.025 12.7 52.025H20.2C24.6 52.025 27.925 48.7 27.925 44.3V36.8C27.95 32.4 24.6251 29.075 20.2251 29.075Z" fill="#FD9900"/>
<path opacity="0.4" d="M47.275 29.075H35.55C35.75 17.4 38.0501 15.475 45.2251 11.225C46.0501 10.725 46.3251 9.67503 45.8251 8.82503C45.3251 8.00003 44.275 7.72506 43.425 8.22506C34.975 13.2251 32.025 16.275 32.025 30.825V44.3C32.025 48.575 35.5001 52.025 39.7501 52.025H47.2501C51.6501 52.025 54.975 48.7 54.975 44.3V36.8C55 32.4 51.675 29.075 47.275 29.075Z" fill="#FD9900"/>
</svg>
