<svg width="160" height="27" viewBox="0 0 160 27" fill="none" xmlns="http://www.w3.org/2000/svg">
<path d="M3.52 25.632C2.512 25.632 1.648 25.5 0.928 25.236C0.64 25.14 0.592 24.972 0.784 24.732C0.88 24.636 1 24.552 1.144 24.48C1.288 24.432 1.444 24.444 1.612 24.516C2.188 24.756 2.944 24.876 3.88 24.876C6.16 24.876 8.824 24.12 11.872 22.608C13.888 21.6 15.784 20.364 17.56 18.9C19.36 17.436 20.896 15.828 22.168 14.076C23.44 12.324 24.304 10.536 24.76 8.712C24.904 8.136 24.976 7.62 24.976 7.164C24.976 5.748 24.4 4.704 23.248 4.032C22.12 3.336 20.548 2.988 18.532 2.988C18.364 2.988 18.148 3 17.884 3.024C17.644 3.024 17.344 3.036 16.984 3.06C16.288 3.108 15.556 3.216 14.788 3.384C14.044 3.528 13.276 3.72 12.484 3.96C10.9 4.44 9.496 5.1 8.272 5.94C7.048 6.756 6.268 7.692 5.932 8.748C5.86 8.964 5.824 9.144 5.824 9.288C5.824 9.552 5.908 9.756 6.076 9.9C6.244 10.044 6.496 10.188 6.832 10.332C6.976 10.404 7.048 10.5 7.048 10.62C7.048 10.764 7 10.884 6.904 10.98C6.616 11.316 6.304 11.412 5.968 11.268C5.896 11.244 5.704 11.172 5.392 11.052C5.08 10.908 4.84 10.74 4.672 10.548C4.456 10.284 4.348 9.996 4.348 9.684C4.348 9.54 4.408 9.252 4.528 8.82C4.936 7.572 5.86 6.456 7.3 5.472C8.26 4.8 9.316 4.224 10.468 3.744C11.644 3.24 12.82 2.844 13.996 2.556C15.196 2.244 16.312 2.064 17.344 2.016C17.752 1.992 18.1 1.98 18.388 1.98C18.7 1.956 18.94 1.944 19.108 1.944C24.22 1.944 26.776 3.54 26.776 6.732C26.776 6.996 26.752 7.308 26.704 7.668C26.656 8.004 26.584 8.376 26.488 8.784C25.72 11.736 24.016 14.496 21.376 17.064C20.032 18.36 18.58 19.536 17.02 20.592C15.484 21.648 13.912 22.548 12.304 23.292C10.72 24.036 9.172 24.612 7.66 25.02C6.172 25.428 4.792 25.632 3.52 25.632ZM7.588 23.472C6.964 23.352 6.52 23.136 6.256 22.824C6.016 22.512 5.896 22.056 5.896 21.456C5.896 21.336 5.908 21.156 5.932 20.916C5.956 20.676 5.992 20.364 6.04 19.98C6.16 19.14 6.472 18.156 6.976 17.028C7.504 15.9 8.152 14.712 8.92 13.464C9.688 12.216 10.504 10.992 11.368 9.792C12.256 8.568 13.132 7.476 13.996 6.516C14.02 6.492 14.02 6.456 13.996 6.408C13.996 6.36 13.96 6.324 13.888 6.3L13.816 6.228C13.744 6.132 13.732 6.06 13.78 6.012L14.644 5.004C14.836 4.764 14.992 4.572 15.112 4.428C15.256 4.26 15.364 4.152 15.436 4.104C15.556 3.984 15.748 3.924 16.012 3.924C16.324 3.924 16.612 4.008 16.876 4.176C17.164 4.344 17.308 4.512 17.308 4.68C17.308 4.8 17.26 4.896 17.164 4.968C16.66 5.424 16.096 6 15.472 6.696C14.848 7.368 14.164 8.184 13.42 9.144C12.412 10.416 11.476 11.7 10.612 12.996C9.748 14.292 9.028 15.492 8.452 16.596C7.9 17.676 7.576 18.552 7.48 19.224L7.336 20.16C7.264 20.52 7.228 20.856 7.228 21.168C7.228 21.672 7.468 21.984 7.948 22.104C8.188 22.128 8.308 22.296 8.308 22.608C8.308 22.848 8.236 23.064 8.092 23.256C7.948 23.448 7.78 23.52 7.588 23.472ZM27.9812 23.472C27.9332 23.472 27.8852 23.46 27.8372 23.436C27.7892 23.436 27.7412 23.424 27.6932 23.4C27.3572 23.232 27.1412 22.992 27.0452 22.68C26.9492 22.368 26.9252 21.972 26.9732 21.492C27.0212 21.3 27.0692 20.964 27.1172 20.484C27.1892 20.004 27.2732 19.62 27.3692 19.332L25.5332 21.096L24.5252 22.068C23.8292 22.764 23.2532 23.112 22.7972 23.112C22.6052 23.112 22.4492 23.04 22.3292 22.896C22.1132 22.632 22.0052 22.308 22.0052 21.924C22.0052 21.42 22.1372 20.88 22.4012 20.304C22.6652 19.728 22.9772 19.176 23.3372 18.648C23.6972 18.096 24.0212 17.64 24.3092 17.28C25.0292 16.392 25.7252 15.696 26.3972 15.192C27.0932 14.688 27.8132 14.436 28.5572 14.436C28.9652 14.436 29.3612 14.508 29.7452 14.652C30.1532 14.796 30.5252 15.036 30.8612 15.372L30.8972 15.408C30.8972 15.48 30.8372 15.552 30.7172 15.624C30.6692 15.672 30.6212 15.708 30.5732 15.732C30.5492 15.756 30.5252 15.78 30.5012 15.804C30.2132 16.092 29.8892 16.572 29.5292 17.244C29.1692 17.916 28.8572 18.624 28.5932 19.368C28.3292 20.088 28.1972 20.712 28.1972 21.24C28.1972 21.72 28.3172 22.044 28.5572 22.212C28.6772 22.284 28.8092 22.32 28.9532 22.32C29.2652 22.32 29.6972 22.128 30.2492 21.744C30.2732 21.72 30.3212 21.684 30.3932 21.636C30.4892 21.564 30.6212 21.468 30.7892 21.348C30.9812 21.204 31.1372 21.132 31.2572 21.132C31.3772 21.132 31.4372 21.18 31.4372 21.276C31.4372 21.42 31.3412 21.588 31.1492 21.78C31.0052 21.9 30.8372 22.032 30.6452 22.176C30.4772 22.32 30.2732 22.464 30.0332 22.608C29.6732 22.872 29.3012 23.076 28.9172 23.22C28.5332 23.388 28.2212 23.472 27.9812 23.472ZM23.9132 21.168C24.4172 21.168 25.3532 20.424 26.7212 18.936C27.0812 18.528 27.4052 18.144 27.6932 17.784C27.9812 17.4 28.2452 17.028 28.4852 16.668C28.9172 15.972 29.0612 15.492 28.9172 15.228C28.8452 15.084 28.7012 15.012 28.4852 15.012C28.2212 15.012 27.8612 15.156 27.4052 15.444C26.9492 15.708 26.4812 16.056 26.0012 16.488C25.5452 16.92 25.1252 17.352 24.7412 17.784C24.4772 18.12 24.2132 18.588 23.9492 19.188C23.6852 19.788 23.5532 20.28 23.5532 20.664C23.5532 21 23.6732 21.168 23.9132 21.168ZM32.7472 23.076C32.3152 23.076 32.0992 22.908 32.0992 22.572C32.0992 22.356 32.1712 22.08 32.3152 21.744C32.4832 21.408 32.6512 21.084 32.8192 20.772C33.2752 19.956 33.6952 19.164 34.0792 18.396C34.4632 17.628 34.8352 16.812 35.1952 15.948C35.3632 15.564 35.6152 15.372 35.9512 15.372C36.3112 15.372 36.4192 15.588 36.2752 16.02C36.1312 16.38 35.9872 16.704 35.8432 16.992C35.1712 18.36 34.8352 19.284 34.8352 19.764C34.8352 19.98 34.9072 20.112 35.0512 20.16C35.3872 19.896 35.6392 19.704 35.8072 19.584C35.9752 19.44 36.0712 19.356 36.0952 19.332C36.4312 19.068 36.8032 18.768 37.2112 18.432C37.6432 18.072 38.1112 17.664 38.6152 17.208C39.4072 16.488 40.0672 16.128 40.5952 16.128C41.2432 16.128 41.5192 16.716 41.4232 17.892C41.3992 18.348 41.3992 18.792 41.4232 19.224C41.4472 19.32 41.4592 19.464 41.4592 19.656C41.4592 19.824 41.4592 20.028 41.4592 20.268C41.4592 20.508 41.6032 20.628 41.8912 20.628C42.2272 20.628 42.5392 20.532 42.8272 20.34L43.6192 19.8L44.4112 19.296C44.4592 19.272 44.5432 19.26 44.6632 19.26C44.8072 19.26 44.8072 19.368 44.6632 19.584C43.1512 21.456 41.9032 22.392 40.9192 22.392C40.7272 22.392 40.5352 22.356 40.3432 22.284C40.1752 22.212 40.0552 22.008 39.9832 21.672C39.9112 21.312 39.8632 20.928 39.8392 20.52C39.8392 20.112 39.8392 19.8 39.8392 19.584L39.8752 18.396C39.8752 17.892 39.7432 17.64 39.4792 17.64C38.8552 17.64 37.3192 18.924 34.8712 21.492C34.6792 21.732 34.3792 22.056 33.9712 22.464C33.5632 22.872 33.1552 23.076 32.7472 23.076ZM48.7993 14.616C48.4873 14.616 48.3313 14.544 48.3313 14.4C48.3313 14.28 48.4153 14.112 48.5833 13.896C48.7753 13.656 48.9913 13.452 49.2313 13.284C49.7593 12.948 50.1673 12.66 50.4553 12.42C50.7673 12.18 51.1393 11.772 51.5713 11.196C51.5953 11.244 51.6073 11.34 51.6073 11.484C51.6073 11.796 51.4753 12.18 51.2113 12.636C50.9713 13.068 50.6953 13.464 50.3833 13.824C50.0713 14.184 49.7953 14.412 49.5553 14.508C49.3393 14.58 49.0873 14.616 48.7993 14.616ZM45.5953 23.436C45.4033 23.436 45.2233 23.364 45.0553 23.22C44.8873 23.076 44.8033 22.884 44.8033 22.644C44.8033 22.14 45.1513 21.216 45.8473 19.872L46.2433 19.08C46.2913 19.032 46.3513 18.912 46.4233 18.72C46.5193 18.528 46.6513 18.276 46.8193 17.964C46.9873 17.628 47.1193 17.328 47.2153 17.064C47.3113 16.8 47.3833 16.548 47.4313 16.308C47.4313 16.284 47.4793 16.236 47.5753 16.164C47.6713 16.092 47.7673 16.032 47.8633 15.984L48.0793 15.948C48.2713 15.948 48.4273 15.984 48.5473 16.056C48.6913 16.128 48.7393 16.224 48.6913 16.344C48.5233 16.704 48.3793 17.016 48.2593 17.28C48.1393 17.544 48.0433 17.772 47.9713 17.964H47.9353C47.6713 18.564 47.4433 19.14 47.2513 19.692C47.0833 20.22 47.0113 20.724 47.0353 21.204L47.0713 22.176C47.0473 22.416 46.9633 22.62 46.8193 22.788C46.7233 22.86 46.5913 22.944 46.4233 23.04C46.2553 23.16 46.0393 23.28 45.7753 23.4C45.7513 23.424 45.6913 23.436 45.5953 23.436ZM51.4408 22.896C50.9368 22.896 50.4928 22.764 50.1088 22.5C49.4848 22.02 49.1728 21.3 49.1728 20.34C49.1728 19.38 49.5088 18.36 50.1808 17.28C50.8528 16.2 51.8728 15.204 53.2408 14.292C53.4808 14.124 53.8048 14.04 54.2128 14.04C54.7408 14.04 55.2088 14.184 55.6168 14.472C56.0488 14.76 56.2168 15.132 56.1208 15.588C55.9528 16.332 55.5808 16.992 55.0048 17.568C54.4528 18.144 53.7928 18.66 53.0248 19.116C52.2808 19.548 51.5128 19.968 50.7208 20.376C50.6968 20.448 50.6728 20.52 50.6488 20.592C50.6488 20.664 50.6488 20.736 50.6488 20.808C50.6488 21.144 50.7568 21.444 50.9728 21.708C51.2128 21.948 51.5368 22.068 51.9448 22.068C52.2568 22.068 52.5208 22.02 52.7368 21.924C53.1208 21.78 53.4328 21.648 53.6728 21.528C53.9368 21.408 54.2368 21.228 54.5728 20.988C54.9088 20.748 55.3648 20.388 55.9408 19.908C56.2048 19.716 56.3608 19.62 56.4088 19.62C56.5528 19.62 56.6008 19.728 56.5528 19.944C56.3128 20.328 55.8928 20.748 55.2928 21.204C54.7168 21.66 54.0688 22.056 53.3488 22.392C52.6528 22.728 52.0168 22.896 51.4408 22.896ZM50.9368 19.404C51.1288 19.404 51.5248 19.212 52.1248 18.828C52.7248 18.444 53.2888 18.024 53.8168 17.568C54.7288 16.728 55.1848 16.08 55.1848 15.624C55.1848 15.504 55.1488 15.396 55.0768 15.3C55.0048 15.18 54.8968 15.12 54.7528 15.12C54.2968 15.12 53.5288 15.66 52.4488 16.74C51.7048 17.46 51.2008 18.348 50.9368 19.404ZM56.9935 24.876C56.7295 24.876 56.5015 24.792 56.3095 24.624C56.1415 24.456 56.0695 24.252 56.0935 24.012C56.1415 23.028 56.3215 22.08 56.6335 21.168C56.9695 20.256 57.4495 19.164 58.0735 17.892C58.1455 17.724 58.2055 17.58 58.2535 17.46C58.3255 17.316 58.3855 17.196 58.4335 17.1C58.9615 15.972 59.5015 14.892 60.0535 13.86C60.6055 12.828 61.1575 11.82 61.7095 10.836L62.2135 9.936C62.7895 8.904 63.2935 8.076 63.7255 7.452C64.1575 6.804 64.5895 6.336 65.0215 6.048C65.5735 5.712 65.9095 5.544 66.0295 5.544C66.2215 5.544 66.4135 5.712 66.6055 6.048C66.7255 6.288 66.4855 6.876 65.8855 7.812C65.5735 8.292 65.1775 8.892 64.6975 9.612C64.2415 10.332 63.6895 11.148 63.0415 12.06C62.9215 12.228 62.7175 12.528 62.4295 12.96C62.1655 13.368 61.8055 13.908 61.3495 14.58C60.8935 15.252 60.4975 15.864 60.1615 16.416C59.8255 16.944 59.5495 17.412 59.3335 17.82C58.9015 18.612 58.4935 19.464 58.1095 20.376C57.7255 21.264 57.5335 21.96 57.5335 22.464C57.5335 22.92 57.7135 23.148 58.0735 23.148C58.6495 23.148 59.5735 22.656 60.8455 21.672C60.9895 21.696 61.0615 21.768 61.0615 21.888C61.0615 21.984 60.9415 22.152 60.7015 22.392C60.4855 22.608 60.2095 22.836 59.8735 23.076C59.5615 23.34 59.1895 23.64 58.7575 23.976L58.1815 24.408C57.7975 24.72 57.4015 24.876 56.9935 24.876ZM104.445 24.696C103.725 24.696 103.137 24.348 102.681 23.652C102.249 22.98 102.081 22.176 102.177 21.24C102.297 20.088 102.573 18.732 103.005 17.172C103.461 15.588 104.013 13.932 104.661 12.204C105.333 10.452 106.041 8.76 106.785 7.128C106.473 7.56 106.089 8.088 105.633 8.712C105.201 9.312 104.709 10.008 104.157 10.8L103.509 11.736C102.957 12.528 102.453 13.236 101.997 13.86C101.541 14.484 101.133 15.036 100.773 15.516C100.725 15.564 100.617 15.696 100.449 15.912C100.305 16.104 100.101 16.368 99.8372 16.704C99.5732 17.04 99.2852 17.388 98.9732 17.748C98.6852 18.084 98.3852 18.42 98.0732 18.756C96.6332 20.364 95.6612 21.168 95.1572 21.168C94.4372 21.192 93.8972 20.868 93.5372 20.196C93.1772 19.524 92.9972 18.6 92.9972 17.424C92.9972 16.944 93.0332 16.416 93.1052 15.84C93.2972 14.016 93.8012 11.652 94.6172 8.748L95.4452 5.796C95.5652 5.388 95.6492 5.016 95.6972 4.68C95.7452 4.344 95.7812 4.032 95.8052 3.744C95.8052 3.432 95.9012 3.216 96.0932 3.096C96.3092 2.952 96.5732 2.88 96.8852 2.88C97.2212 2.88 97.5212 2.952 97.7852 3.096C98.0732 3.24 98.2052 3.396 98.1812 3.564C98.1092 4.02 98.0132 4.488 97.8932 4.968C97.7732 5.448 97.6292 5.952 97.4612 6.48C97.4132 6.672 97.3172 6.924 97.1732 7.236C97.0532 7.548 96.8972 7.908 96.7052 8.316L96.2732 9.288C95.7452 10.464 95.3252 11.568 95.0132 12.6C94.7012 13.632 94.4852 14.688 94.3652 15.768C94.3412 15.864 94.3292 15.996 94.3292 16.164C94.3292 16.308 94.3292 16.476 94.3292 16.668C94.3292 17.388 94.4492 17.904 94.6892 18.216C94.9532 18.504 95.3612 18.66 95.9132 18.684C96.1532 18.684 96.4652 18.552 96.8492 18.288C97.2572 18.024 97.6772 17.7 98.1092 17.316C98.5412 16.932 98.9492 16.536 99.3332 16.128C99.7412 15.696 100.065 15.324 100.305 15.012C101.745 13.188 103.065 11.424 104.265 9.72C105.489 7.992 106.521 6.384 107.361 4.896C108.225 3.408 108.825 2.112 109.161 1.008C109.281 0.647999 109.569 0.467998 110.025 0.467998C110.385 0.467998 110.709 0.587998 110.997 0.827998C111.285 1.068 111.357 1.332 111.213 1.62L110.601 2.808C109.953 4.08 109.329 5.292 108.729 6.444C108.153 7.572 107.637 8.664 107.181 9.72L107.145 9.684C106.161 11.94 105.381 14.016 104.805 15.912C104.253 17.784 103.893 19.488 103.725 21.024C103.677 21.72 103.761 22.332 103.977 22.86C104.217 23.388 104.565 23.652 105.021 23.652C105.621 23.652 106.257 23.22 106.929 22.356C107.169 22.044 107.385 21.924 107.577 21.996C107.649 22.068 107.685 22.128 107.685 22.176C107.685 22.296 107.637 22.404 107.541 22.5C107.037 23.244 106.509 23.796 105.957 24.156C105.429 24.516 104.925 24.696 104.445 24.696ZM74.8172 26.712C73.2332 26.712 71.9732 26.196 71.0372 25.164C70.1012 24.156 69.6332 22.74 69.6332 20.916C69.6332 18.396 70.5452 15.492 72.3692 12.204C73.6172 9.948 74.9972 8.28 76.5092 7.2C78.0452 6.096 79.5092 5.544 80.9012 5.544C82.1252 5.544 83.1332 5.916 83.9252 6.66C84.7412 7.404 85.1492 8.352 85.1492 9.504C85.1492 10.368 84.8972 11.268 84.3932 12.204C83.9132 13.14 83.1692 14.076 82.1612 15.012C82.0412 15.132 81.9212 15.192 81.8012 15.192C81.6812 15.192 81.6212 15.12 81.6212 14.976C81.6212 14.832 81.7172 14.664 81.9092 14.472C82.6292 13.728 83.1692 12.984 83.5292 12.24C83.8892 11.472 84.0692 10.752 84.0692 10.08C84.0692 9.12 83.7572 8.34 83.1332 7.74C82.5092 7.116 81.7172 6.804 80.7572 6.804C79.6052 6.804 78.3932 7.284 77.1212 8.244C75.8732 9.18 74.6972 10.644 73.5932 12.636C71.8172 15.924 70.9292 18.72 70.9292 21.024C70.9292 22.488 71.2772 23.628 71.9732 24.444C72.6932 25.26 73.6772 25.668 74.9252 25.668C76.0532 25.668 77.3132 25.332 78.7052 24.66C80.0972 23.988 81.5732 22.968 83.1332 21.6C85.2932 19.68 87.2732 17.412 89.0732 14.796C89.9852 13.476 90.6812 12.468 91.1612 11.772C91.6412 11.076 91.9052 10.692 91.9532 10.62C92.3372 10.092 92.7452 9.528 93.1772 8.928C93.6092 8.304 94.0652 7.632 94.5452 6.912C94.6172 6.792 94.6892 6.804 94.7612 6.948C94.8812 7.14 94.8932 7.296 94.7972 7.416C94.2452 8.232 93.6212 9.216 92.9252 10.368C92.2532 11.496 91.4852 12.768 90.6212 14.184L89.9732 15.228H90.0092C88.0892 18.204 85.9412 20.688 83.5652 22.68C81.9812 24.024 80.4332 25.032 78.9212 25.704C77.4332 26.376 76.0652 26.712 74.8172 26.712ZM114.208 23.472C114.16 23.472 114.112 23.46 114.064 23.436C114.016 23.436 113.968 23.424 113.92 23.4C113.584 23.232 113.368 22.992 113.272 22.68C113.176 22.368 113.152 21.972 113.2 21.492C113.248 21.3 113.296 20.964 113.344 20.484C113.416 20.004 113.5 19.62 113.596 19.332L111.76 21.096L110.752 22.068C110.056 22.764 109.48 23.112 109.024 23.112C108.832 23.112 108.676 23.04 108.556 22.896C108.34 22.632 108.232 22.308 108.232 21.924C108.232 21.42 108.364 20.88 108.628 20.304C108.892 19.728 109.204 19.176 109.564 18.648C109.924 18.096 110.248 17.64 110.536 17.28C111.256 16.392 111.952 15.696 112.624 15.192C113.32 14.688 114.04 14.436 114.784 14.436C115.192 14.436 115.588 14.508 115.972 14.652C116.38 14.796 116.752 15.036 117.088 15.372L117.124 15.408C117.124 15.48 117.064 15.552 116.944 15.624C116.896 15.672 116.848 15.708 116.8 15.732C116.776 15.756 116.752 15.78 116.728 15.804C116.44 16.092 116.116 16.572 115.756 17.244C115.396 17.916 115.084 18.624 114.82 19.368C114.556 20.088 114.424 20.712 114.424 21.24C114.424 21.72 114.544 22.044 114.784 22.212C114.904 22.284 115.036 22.32 115.18 22.32C115.492 22.32 115.924 22.128 116.476 21.744C116.5 21.72 116.548 21.684 116.62 21.636C116.716 21.564 116.848 21.468 117.016 21.348C117.208 21.204 117.364 21.132 117.484 21.132C117.604 21.132 117.664 21.18 117.664 21.276C117.664 21.42 117.568 21.588 117.376 21.78C117.232 21.9 117.064 22.032 116.872 22.176C116.704 22.32 116.5 22.464 116.26 22.608C115.9 22.872 115.528 23.076 115.144 23.22C114.76 23.388 114.448 23.472 114.208 23.472ZM110.14 21.168C110.644 21.168 111.58 20.424 112.948 18.936C113.308 18.528 113.632 18.144 113.92 17.784C114.208 17.4 114.472 17.028 114.712 16.668C115.144 15.972 115.288 15.492 115.144 15.228C115.072 15.084 114.928 15.012 114.712 15.012C114.448 15.012 114.088 15.156 113.632 15.444C113.176 15.708 112.708 16.056 112.228 16.488C111.772 16.92 111.352 17.352 110.968 17.784C110.704 18.12 110.44 18.588 110.176 19.188C109.912 19.788 109.78 20.28 109.78 20.664C109.78 21 109.9 21.168 110.14 21.168ZM121.444 22.896C120.94 22.896 120.496 22.764 120.112 22.5C119.488 22.02 119.176 21.3 119.176 20.34C119.176 19.38 119.512 18.36 120.184 17.28C120.856 16.2 121.876 15.204 123.244 14.292C123.484 14.124 123.808 14.04 124.216 14.04C124.744 14.04 125.212 14.184 125.62 14.472C126.052 14.76 126.22 15.132 126.124 15.588C125.956 16.332 125.584 16.992 125.008 17.568C124.456 18.144 123.796 18.66 123.028 19.116C122.284 19.548 121.516 19.968 120.724 20.376C120.7 20.448 120.676 20.52 120.652 20.592C120.652 20.664 120.652 20.736 120.652 20.808C120.652 21.144 120.76 21.444 120.976 21.708C121.216 21.948 121.54 22.068 121.948 22.068C122.26 22.068 122.524 22.02 122.74 21.924C123.124 21.78 123.436 21.648 123.676 21.528C123.94 21.408 124.24 21.228 124.576 20.988C124.912 20.748 125.368 20.388 125.944 19.908C126.208 19.716 126.364 19.62 126.412 19.62C126.556 19.62 126.604 19.728 126.556 19.944C126.316 20.328 125.896 20.748 125.296 21.204C124.72 21.66 124.072 22.056 123.352 22.392C122.656 22.728 122.02 22.896 121.444 22.896ZM120.94 19.404C121.132 19.404 121.528 19.212 122.128 18.828C122.728 18.444 123.292 18.024 123.82 17.568C124.732 16.728 125.188 16.08 125.188 15.624C125.188 15.504 125.152 15.396 125.08 15.3C125.008 15.18 124.9 15.12 124.756 15.12C124.3 15.12 123.532 15.66 122.452 16.74C121.708 17.46 121.204 18.348 120.94 19.404ZM125.953 24.012C125.569 24.012 125.233 23.976 124.945 23.904C124.681 23.832 124.549 23.736 124.549 23.616C124.549 23.424 124.741 23.316 125.125 23.292C125.485 23.268 125.725 23.232 125.845 23.184C126.061 23.136 126.313 23.1 126.601 23.076C126.865 23.028 127.081 22.992 127.249 22.968C128.401 22.632 128.977 22.116 128.977 21.42C128.977 20.94 128.725 20.328 128.221 19.584C127.909 19.128 127.753 18.624 127.753 18.072C127.753 17.4 127.957 16.74 128.365 16.092C128.797 15.444 129.325 14.88 129.949 14.4C130.597 13.896 131.245 13.56 131.893 13.392C132.181 13.32 132.481 13.284 132.793 13.284C133.297 13.284 133.657 13.404 133.873 13.644C134.017 13.788 134.089 14.1 134.089 14.58C134.089 14.94 134.029 15.312 133.909 15.696C133.789 16.056 133.621 16.356 133.405 16.596C133.285 16.716 133.189 16.776 133.117 16.776C132.997 16.776 132.937 16.608 132.937 16.272L132.973 15.552C132.997 15.36 133.009 15.192 133.009 15.048C133.033 14.904 133.045 14.784 133.045 14.688C133.045 14.28 132.961 14.04 132.793 13.968C132.601 13.92 132.469 13.896 132.397 13.896C131.893 13.896 131.353 14.124 130.777 14.58C130.201 15.036 129.733 15.564 129.373 16.164C129.229 16.38 129.157 16.644 129.157 16.956C129.157 17.34 129.253 17.796 129.445 18.324C129.661 18.828 129.817 19.2 129.913 19.44C130.153 19.968 130.333 20.424 130.453 20.808C130.597 21.192 130.669 21.528 130.669 21.816C130.669 21.96 130.657 22.068 130.633 22.14C130.753 22.092 131.041 22.02 131.497 21.924C131.905 21.828 132.253 21.78 132.541 21.78C132.709 21.78 132.793 21.816 132.793 21.888C132.793 21.912 132.721 21.996 132.577 22.14C132.505 22.212 132.277 22.332 131.893 22.5C131.533 22.644 131.101 22.8 130.597 22.968C130.117 23.136 129.637 23.292 129.157 23.436C128.677 23.58 128.269 23.688 127.933 23.76C127.357 23.928 126.697 24.012 125.953 24.012ZM134.534 25.848C134.414 25.848 134.354 25.74 134.354 25.524C134.354 25.476 134.354 25.404 134.354 25.308C134.378 25.236 134.402 25.152 134.426 25.056L135.974 21.168L137.81 16.632C137.522 16.608 137.102 16.62 136.55 16.668C135.998 16.692 135.53 16.74 135.146 16.812C135.002 16.836 134.882 16.86 134.786 16.884C134.714 16.884 134.654 16.884 134.606 16.884C134.414 16.884 134.282 16.8 134.21 16.632C134.234 16.488 134.366 16.356 134.606 16.236C134.726 16.188 134.87 16.152 135.038 16.128C135.206 16.08 135.41 16.032 135.65 15.984C135.914 15.936 136.142 15.9 136.334 15.876C136.55 15.852 136.706 15.828 136.802 15.804C136.922 15.78 137.042 15.756 137.162 15.732C137.282 15.708 137.426 15.684 137.594 15.66C137.738 15.636 137.894 15.612 138.062 15.588C138.23 15.564 138.41 15.528 138.602 15.48C138.794 15.216 139.082 14.748 139.466 14.076C139.85 13.404 140.342 12.516 140.942 11.412C141.422 10.524 141.806 9.828 142.094 9.324C142.406 8.796 142.622 8.448 142.742 8.28C142.958 7.992 143.21 7.848 143.498 7.848C143.642 7.848 143.714 7.908 143.714 8.028C143.714 8.052 143.654 8.208 143.534 8.496C143.39 8.736 143.15 9.18 142.814 9.828C142.478 10.476 142.118 11.184 141.734 11.952C141.35 12.72 141.002 13.44 140.69 14.112C140.378 14.784 140.162 15.276 140.042 15.588C140.162 15.564 140.294 15.552 140.438 15.552C140.606 15.552 140.81 15.552 141.05 15.552C141.314 15.552 141.554 15.564 141.77 15.588C142.01 15.588 142.214 15.6 142.382 15.624C142.718 15.696 142.886 15.792 142.886 15.912C142.886 15.96 142.778 16.044 142.562 16.164C142.442 16.212 142.214 16.26 141.878 16.308C141.542 16.356 141.098 16.404 140.546 16.452C140.402 16.452 140.246 16.464 140.078 16.488C139.91 16.488 139.73 16.5 139.538 16.524C138.818 17.7 137.834 19.656 136.586 22.392C136.13 23.304 135.782 24.012 135.542 24.516C135.302 25.02 135.158 25.32 135.11 25.416C134.894 25.704 134.702 25.848 134.534 25.848ZM141.812 23.256C141.5 23.256 141.344 22.98 141.344 22.428C141.344 21.972 141.452 21.528 141.668 21.096C142.22 20.04 142.724 18.996 143.18 17.964C143.492 17.34 143.78 16.74 144.044 16.164C144.332 15.588 144.596 15.06 144.836 14.58C144.98 14.436 145.124 14.364 145.268 14.364C145.58 14.364 145.676 14.508 145.556 14.796C145.508 14.964 145.436 15.168 145.34 15.408C145.268 15.624 145.172 15.888 145.052 16.2C144.668 17.208 144.44 17.916 144.368 18.324C145.04 17.724 145.724 17.172 146.42 16.668C147.14 16.14 147.812 15.708 148.436 15.372C149.06 15.036 149.588 14.868 150.02 14.868C150.404 14.868 150.596 15.024 150.596 15.336C150.596 15.6 150.476 15.888 150.236 16.2C149.996 16.488 149.756 16.632 149.516 16.632C149.396 16.632 149.3 16.596 149.228 16.524C149.156 16.5 149.012 16.488 148.796 16.488C148.028 16.488 147.224 16.86 146.384 17.604C145.496 18.348 144.692 19.248 143.972 20.304C143.252 21.336 142.724 22.236 142.388 23.004C142.22 23.172 142.028 23.256 141.812 23.256ZM150.461 23.112C149.525 23.112 149.057 22.692 149.057 21.852C149.057 21.804 149.057 21.72 149.057 21.6C149.081 21.48 149.105 21.336 149.129 21.168C149.369 20.184 149.849 19.236 150.569 18.324C151.313 17.388 152.165 16.572 153.125 15.876C153.485 15.588 154.061 15.444 154.853 15.444C155.309 15.444 155.705 15.516 156.041 15.66C156.401 15.78 156.653 15.972 156.797 16.236C156.941 16.476 157.013 16.752 157.013 17.064C157.013 17.112 157.001 17.184 156.977 17.28C156.977 17.376 156.965 17.484 156.941 17.604C156.989 17.58 157.061 17.568 157.157 17.568C157.277 17.568 157.421 17.556 157.589 17.532C157.757 17.508 157.913 17.484 158.057 17.46C158.225 17.436 158.393 17.424 158.561 17.424H158.705C158.969 17.424 158.993 17.532 158.777 17.748C158.585 17.94 158.321 18.06 157.985 18.108L156.761 18.252C156.521 18.924 156.101 19.596 155.501 20.268C154.925 20.94 154.277 21.528 153.557 22.032C152.861 22.512 152.201 22.824 151.577 22.968C151.217 23.064 150.845 23.112 150.461 23.112ZM155.069 17.748C155.213 17.748 155.381 17.748 155.573 17.748C155.789 17.724 156.029 17.7 156.293 17.676C156.317 17.628 156.329 17.52 156.329 17.352C156.329 16.92 156.149 16.62 155.789 16.452C155.597 16.332 155.357 16.272 155.069 16.272C154.709 16.272 154.337 16.392 153.953 16.632C153.593 16.848 153.209 17.136 152.801 17.496C153.305 17.664 154.061 17.748 155.069 17.748ZM151.541 21.852C151.781 21.852 152.117 21.744 152.549 21.528C153.005 21.288 153.473 20.976 153.953 20.592C154.433 20.208 154.865 19.8 155.249 19.368C155.369 19.248 155.489 19.104 155.609 18.936C155.729 18.744 155.861 18.552 156.005 18.36L155.141 18.468C153.797 18.66 152.597 18.768 151.541 18.792C151.013 19.656 150.689 20.376 150.569 20.952C150.545 21.264 150.629 21.492 150.821 21.636C151.013 21.78 151.253 21.852 151.541 21.852Z" fill="#101113"/>
</svg>
